#N canvas 344 95 701 827 10;
#X declare -path .;
#X declare -path rj;
#X obj 329 471 / 100;
#X obj 29 363 list prepend;
#X obj 329 436 random 20;
#X obj 329 507 + 0.4;
#X obj 29 499 *~;
#X obj 29 611 outlet~;
#X obj 87 612 outlet~;
#X obj 28 32 inlet;
#X obj 20 745 declare -path .;
#X obj 20 772 declare -path rj;
#X obj 28 58 unpack 0 0;
#X obj 85 81 / 127;
#X obj 30 189 mtof;
#X obj 29 249 * 1;
#X obj 160 209 / 1000;
#X obj 159 189 random 15;
#X obj 159 229 + 0.99;
#X obj 28 159 t a b;
#X obj 29 419 t a b b;
#X obj 29 301 list prepend 1;
#X text 120 300 gain;
#X obj 468 42 inlet;
#X obj 468 66 unpack s f;
#X obj 468 91 s \$0-tableName;
#X obj 565 91 s \$0-tableFreq;
#X obj 63 189 r \$0-tableFreq;
#X obj 112 363 r \$0-tableName;
#X obj 29 210 /;
#X text 213 152 pitch;
#X text 211 363 table;
#X text 467 17 Change Sound;
#X text 28 11 MIDI: note/velocity pairs;
#X obj 85 101 s \$0-velocity;
#X obj 174 397 r \$0-velocity;
#X obj 305 41 inlet;
#X text 306 17 release (ms);
#X obj 208 41 inlet;
#X text 203 13 attack (ms);
#X obj 305 64 s \$0-release;
#X obj 208 64 s \$0-attack;
#N canvas 169 186 328 420 panner 0;
#X obj 127 185 * 1.5708;
#X obj 127 70 inlet;
#X obj 48 72 inlet~;
#X obj 49 361 outlet~;
#X obj 140 365 outlet~;
#X obj 68 217 cos;
#X obj 157 219 sin;
#X msg 178 142 0.5;
#X obj 211 143 f \$1;
#N canvas 0 22 715 450 check-arg 0;
#X obj 179 184 makefilename $%d-EMPTY;
#X obj 52 185 symbol \$1-EMPTY;
#X msg 69 156 bang;
#X obj 52 217 select DUMMY;
#X obj 52 39 loadbang;
#X obj 52 62 t b b;
#X obj 179 157 1;
#X obj 52 294 outlet;
#X text 182 85 Using an idiom by IOhannes;
#X msg 133 250 1;
#X msg 52 246 0;
#X text 182 247 Output 0 if no \$1 argument present \, and 1 if \$1
is present even if it's 0!;
#X connect 0 0 3 1;
#X connect 1 0 3 0;
#X connect 2 0 1 0;
#X connect 3 0 10 0;
#X connect 3 1 9 0;
#X connect 4 0 5 0;
#X connect 5 0 1 0;
#X connect 5 1 6 0;
#X connect 6 0 0 0;
#X connect 9 0 7 0;
#X connect 10 0 7 0;
#X restore 178 69 pd check-arg;
#X obj 178 95 select 0 1;
#X obj 140 334 *~;
#X obj 49 330 *~;
#X obj 157 303 line~;
#X obj 157 277 pack 0 10;
#X obj 68 306 line~;
#X obj 68 280 pack 0 10;
#X text 200 193 * ~PI/2;
#X connect 0 0 5 0;
#X connect 0 0 6 0;
#X connect 1 0 0 0;
#X connect 2 0 11 0;
#X connect 2 0 12 0;
#X connect 5 0 16 0;
#X connect 6 0 14 0;
#X connect 7 0 0 0;
#X connect 8 0 0 0;
#X connect 9 0 10 0;
#X connect 10 0 7 0;
#X connect 10 1 8 0;
#X connect 11 0 4 0;
#X connect 12 0 3 0;
#X connect 13 0 11 1;
#X connect 14 0 13 0;
#X connect 15 0 12 1;
#X connect 16 0 15 0;
#X restore 29 575 pd panner;
#X obj 137 773 table \$0-xyloClick;
#X obj 283 158 loadbang;
#X obj 354 717 loadbang;
#X obj 259 772 s \$0-tableName;
#X msg 354 749 261;
#X obj 354 771 s \$0-tableFreq;
#X obj 259 730 \$0;
#X msg 259 750 \$1-xyloClick;
#X obj 283 181 \$0;
#X obj 346 157 bng 15 250 50 0 empty empty empty 17 7 0 10 -262144
-1 -1;
#X obj 259 709 bng 15 250 50 0 empty empty empty 17 7 0 10 -262144
-1 -1;
#N canvas 424 170 455 884 fillxyloclick 0;
#X obj 42 23 inlet;
#X obj 43 48 t a a;
#X msg 116 63 \; \$1-xyloClick resize 1450;
#X msg 43 123 \; \$1-xyloClick 0.00296021 -0.0136719 -0.205841 -0.339874
-0.0545349 0.417511 0.610016 0.611603 0.609589 0.607056 0.611145 0.580658
0.371002 0.0663452 -0.347321 -0.704285 -0.7117 -0.648834 -0.639374
-0.637177 -0.61972 -0.541901 -0.132904 0.273407 0.304108 0.234833 0.422028
0.609924 0.566803 0.319427 0.050415 -0.0228271 -0.0371094 -0.262085
-0.598083 -0.668701 -0.633636 -0.612488 -0.592987 -0.605621 -0.53241
-0.158539 0.21048 0.336395 0.461304 0.634003 0.666412 0.635254 0.619873
0.594666 0.592041 0.527985 0.218445 -0.1586 -0.34314 -0.441437 -0.582794
-0.653473 -0.628571 -0.621002 -0.566132 -0.467255 -0.268555 0.101318
0.501129 0.658783 0.640503 0.625336 0.613983 0.604797 0.583282 0.427734
0.234283 0.125519 -0.0897827 -0.451294 -0.654633 -0.649231 -0.628845
-0.621704 -0.612732 -0.586975 -0.396301 -0.0787659 0.138367 0.309814
0.525909 0.648987 0.636505 0.601471 0.540649 0.492188 0.446503 0.270782
-0.0173645 -0.243164 -0.392212 -0.556244 -0.649475 -0.635651 -0.622986
-0.580872 -0.477692 -0.337738 -0.101288 0.236694 0.500763 0.596191
0.61795 0.619446 0.605804 0.578522 0.440186 0.215485 0.0678406 -0.0568848
-0.27179 -0.497864 -0.606354 -0.62204 -0.61734 -0.608734 -0.587097
-0.431366 -0.126465 0.13089 0.296967 0.461761 0.599762 0.631104 0.604401
0.563446 0.517731 0.4505 0.264221 -0.0273438 -0.260254 -0.370056 -0.465668
-0.578979 -0.623932 -0.613373 -0.574066 -0.490479 -0.36615 -0.149628
0.182983 0.487885 0.606232 0.606476 0.603302 0.598724 0.56958 0.463257
0.285522 0.135468 -0.00469971 -0.221802 -0.462769 -0.58786 -0.600708
-0.593475 -0.588257 -0.575684 -0.489899 -0.28009 -0.0417786 0.166199
0.392426 0.583893 0.637787 0.61441 0.585449 0.535126 0.452057 0.304474
0.0817261 -0.143921 -0.306213 -0.445557 -0.572937 -0.619507 -0.607422
-0.581207 -0.517212 -0.406555 -0.236206 0.0203857 0.310486 0.518372
0.601532 0.616882 0.609863 0.597107 0.543274 0.380127 0.185638 0.0333862
-0.144196 -0.367157 -0.537445 -0.59729 -0.603668 -0.597076 -0.586975
-0.542786 -0.373322 -0.115417 0.117249 0.336487 0.544586 0.63974 0.624207
0.603394 0.584229 0.541931 0.416321 0.145691 -0.172119 -0.379181 -0.485779
-0.573029 -0.611542 -0.598846 -0.586823 -0.550995 -0.467346 -0.295074
-0.000427246 0.32312 0.529327 0.599518 0.613922 0.604523 0.591309 0.536407
0.359802 0.144592 -0.0405273 -0.26062 -0.48822 -0.59787 -0.597137 -0.576904
-0.556763 -0.531311 -0.434967 -0.223206 0.0324402 0.271149 0.495575
0.626373 0.627014 0.601135 0.591461 0.576904 0.514862 0.345459 0.0794983
-0.185028 -0.384979 -0.520355 -0.590607 -0.602234 -0.589813 -0.570221
-0.520813 -0.41391 -0.25 -0.032074 0.223541 0.455719 0.588348 0.616302
0.603516 0.590424 0.560699 0.434326 0.210602 -0.0106201 -0.207611 -0.400177
-0.542236 -0.588135 -0.585022 -0.571686 -0.556366 -0.516174 -0.374451
-0.146393 0.0688171 0.267273 0.469849 0.600586 0.617798 0.598816 0.583771
0.56311 0.472076 0.250427 -0.0246582 -0.256256 -0.43454 -0.549683 -0.588623
-0.584747 -0.571655 -0.55188 -0.506134 -0.390686 -0.18985 0.0536804
0.298248 0.496155 0.594727 0.608795 0.595154 0.581024 0.556213 0.454651
0.255951 0.0319214 -0.189972 -0.403564 -0.541046 -0.578461 -0.577362
-0.568115 -0.552856 -0.515259 -0.394501 -0.191406 0.0290222 0.26236
0.485565 0.601624 0.607178 0.58963 0.57547 0.554718 0.471466 0.273468
0.0293274 -0.185516 -0.376953 -0.523773 -0.581238 -0.577332 -0.561981
-0.535767 -0.484589 -0.371521 -0.180237 0.0513306 0.279236 0.473267
0.58136 0.597321 0.582764 0.567078 0.520508 0.402893 0.223511 0.019165
-0.192108 -0.383118 -0.51178 -0.560211 -0.564362 -0.556396 -0.531647
-0.457489 -0.315125 -0.138855 0.0541992 0.260315 0.451202 0.565948
0.586426 0.574219 0.555695 0.503326 0.36554 0.164948 -0.0351257 -0.209351
-0.365051 -0.492096 -0.549805 -0.55365 -0.540771 -0.50885 -0.429077
-0.284088 -0.0950928 0.107758 0.292694 0.443634 0.538696 0.567993 0.560974
0.532501 0.457916 0.315552 0.131134 -0.0629272 -0.240662 -0.378296
-0.470093 -0.513794 -0.525085 -0.515167 -0.474182 -0.376099 -0.227478
-0.0532532 0.139435 0.330658 0.47699 0.544403 0.554596 0.543152 0.508545
0.422699 0.268585 0.081665 -0.099884 -0.258942 -0.395325 -0.488098
-0.516205 -0.506622 -0.482025 -0.430969 -0.332397 -0.187714 -0.0137634
0.165802 0.333008 0.468719 0.535645 0.542633 0.52243 0.464569 0.353149
0.203339 0.0205994 -0.181976 -0.323792 -0.393494 -0.464081 -0.508911
-0.498962 -0.438721 -0.346161 -0.253876 -0.141235 0.0323486 0.22699
0.373871 0.470276 0.527344 0.541321 0.520691 0.449005 0.307312 0.14917
-0.00375366 -0.18338 -0.35144 -0.455505 -0.49707 -0.506104 -0.498291
-0.46579 -0.376556 -0.233734 -0.0860901 0.0617981 0.225281 0.38559
0.496429 0.534668 0.529816 0.506348 0.448181 0.317108 0.136169 -0.0430908
-0.201599 -0.336456 -0.44046 -0.497955 -0.509918 -0.493256 -0.450836
-0.367371 -0.235504 -0.0740356 0.0969849 0.255676 0.391266 0.486084
0.524078 0.521088 0.494904 0.429108 0.300507 0.131622 -0.0413513 -0.202057
-0.33905 -0.43573 -0.480194 -0.488068 -0.476898 -0.439148 -0.352356
-0.218719 -0.0644226 0.0960999 0.254883 0.394653 0.483459 0.509064
0.500702 0.471008 0.403168 0.276459 0.11084 -0.0589294 -0.210815 -0.340607
-0.436981 -0.479309 -0.477325 -0.451874 -0.399719 -0.312958 -0.19577
-0.0517273 0.110535 0.263458 0.389771 0.471558 0.501312 0.490448 0.441559
0.345367 0.215302 0.0719299 -0.0780945 -0.216522 -0.327362 -0.406189
-0.446259 -0.450439 -0.417114 -0.333099 -0.221283 -0.12323 -0.0217285
0.121704 0.286987 0.395752 0.43576 0.461334 0.477844 0.437653 0.30838
0.150024 0.026062 -0.0995483 -0.26004 -0.406891 -0.46756 -0.466736
-0.468231 -0.470276 -0.413147 -0.266846 -0.0987244 0.037323 0.174072
0.34024 0.475983 0.514862 0.500854 0.480042 0.440033 0.332947 0.158844
-0.0246277 -0.175079 -0.293304 -0.396667 -0.466034 -0.481781 -0.463013
-0.425201 -0.362732 -0.259705 -0.113281 0.0545959 0.209351 0.341522
0.444702 0.495087 0.501923 0.485657 0.432404 0.323517 0.17865 0.0196533
-0.148132 -0.295776 -0.397614 -0.446198 -0.458618 -0.451324 -0.421173
-0.349701 -0.240082 -0.109863 0.0378418 0.191498 0.330597 0.431183
0.473328 0.475647 0.457092 0.405487 0.297913 0.151611 -0.00717163 -0.164703
-0.304535 -0.407013 -0.459045 -0.467957 -0.449371 -0.402954 -0.325256
-0.220459 -0.0919189 0.0555115 0.197693 0.319336 0.41571 0.467957 0.472382
0.448517 0.391785 0.287689 0.153687 0.0111694 -0.130707 -0.267242 -0.37674
-0.435852 -0.455292 -0.44577 -0.396088 -0.298523 -0.182312 -0.0567017
0.089325 0.233032 0.333496 0.39743 0.43512 0.435516 0.390381 0.309052
0.206818 0.0856323 -0.0447693 -0.16391 -0.262115 -0.337769 -0.388031
-0.408417 -0.400513 -0.357208 -0.273163 -0.164856 -0.050354 0.0742493
0.200104 0.306213 0.384705 0.42749 0.431122 0.401825 0.333466 0.229584
0.104675 -0.0296631 -0.159485 -0.264496 -0.340271 -0.38797 -0.406647
-0.396362 -0.357086 -0.284027 -0.183319 -0.0669556 0.0612793 0.193085
0.305511 0.382843 0.42041 0.427948 0.407745 0.347595 0.241028 0.108978
-0.0295715 -0.167267 -0.293549 -0.385223 -0.424652 -0.424805 -0.402954
-0.357117 -0.275238 -0.15741 -0.0244446 0.106293 0.226746 0.333618
0.406189 0.43103 0.419678 0.382568 0.31192 0.205627 0.074646 -0.0619202
-0.187927 -0.296509 -0.380402 -0.421173 -0.422119 -0.392792 -0.331635
-0.237885 -0.122711 0.00991821 0.14325 0.257019 0.345917 0.402069 0.420471
0.407684 0.359741 0.274933 0.169861 0.0539551 -0.0708618 -0.189758
-0.288635 -0.359985 -0.39801 -0.402161 -0.379089 -0.321899 -0.231201
-0.12204 -0.00332642 0.119568 0.235962 0.333862 0.394775 0.414185 0.4086
0.37677 0.298676 0.18161 0.0537109 -0.0734253 -0.196045 -0.298096 -0.368561
-0.399902 -0.400238 -0.376923 -0.322266 -0.233948 -0.126587 -0.0112305
0.105347 0.215057 0.307404 0.371399 0.397125 0.391357 0.356903 0.285889
0.179413 0.0540161 -0.072876 -0.187744 -0.279846 -0.340759 -0.367981
-0.362244 -0.327209 -0.263885 -0.177124 -0.0734863 0.0353394 0.139526
0.228516 0.298309 0.343597 0.36145 0.351624 0.310944 0.239258 0.146729
0.0380554 -0.0784912 -0.19046 -0.281158 -0.340729 -0.364624 -0.359558
-0.32605 -0.261078 -0.173126 -0.0744629 0.0307617 0.133636 0.223419
0.289581 0.328461 0.338409 0.320862 0.272308 0.198303 0.107666 0.00817871
-0.0962524 -0.195557 -0.275635 -0.324951 -0.341797 -0.330322 -0.290588
-0.220947 -0.132935 -0.0382385 0.0561829 0.149506 0.234619 0.300201
0.335266 0.340729 0.318787 0.266052 0.185333 0.0860901 -0.0214844 -0.125458
-0.217712 -0.290222 -0.335205 -0.346924 -0.328217 -0.279114 -0.20517
-0.114319 -0.0112 0.09552 0.192383 0.269897 0.3255 0.354034 0.351501
0.318207 0.253174 0.166046 0.0634766 -0.047699 -0.155518 -0.245514
-0.310242 -0.345337 -0.351288 -0.329865 -0.276398 -0.194824 -0.0990601
0.00222778 0.104462 0.198853 0.272919 0.319946 0.336639 0.327972 0.291992
0.226074 0.135254 0.0315552 -0.074646 -0.171478 -0.251709 -0.308838
-0.333344 -0.324738 -0.290039 -0.230865 -0.151367 -0.0574341 0.0400085
0.130676 0.20575 0.263428 0.29834 0.306549 0.287628 0.245667 0.182098
0.101898 0.011261 -0.0815125 -0.167206 -0.235809 -0.282867 -0.30426
-0.297089 -0.262421 -0.204742 -0.128601 -0.0417786 0.0481262 0.134796
0.21106 0.266754 0.29718 0.299957 0.275879 0.226501 0.155853 0.0706787
-0.0187073 -0.104187 -0.180634 -0.241028 -0.277954 -0.288239 -0.271667
-0.232269 -0.173584 -0.0997314 -0.0167847 0.0652466 0.140045 0.204071
0.253876 0.281586 0.283325 0.25943 0.21286 0.147736 0.068634 -0.017395
-0.100067 -0.171722 -0.226288 -0.260498 -0.270264 -0.25473 -0.215118
-0.15741 -0.0863037 -0.00775146 0.0719299 0.142609 0.199768 0.240509
0.261658 0.258881 0.232147 0.184174 0.119629 0.0436401 -0.0382385 -0.11911
-0.188538 -0.238831 -0.265686 -0.270447 -0.253052 -0.211426 -0.148895
-0.07547 0.00152588 0.0780029 0.148621 0.204834 0.239441 0.25116 0.242218
0.212891 0.162842 0.0950928 0.0200195 -0.0525208 -0.120575 -0.181671
-0.224731 -0.241089 -0.234039 -0.210938 -0.171051 -0.113556 -0.043457
0.0278625 0.0927429 0.149078 0.194977 0.224823 0.233337 0.218781 0.185333
0.136566 0.0756836 0.00759888 -0.0619202 -0.125641 -0.174805 -0.207886
-0.222687 -0.216492 -0.18869 -0.144073 -0.0883789 -0.02771 0.0348816
0.0956421 0.147461 0.18457 0.204681 0.205994 0.188751 0.155609 0.109161
0.0523682 -0.0083313 -0.0665283 -0.11676 -0.156586 -0.182709 -0.191223
-0.181091 -0.155945 -0.119629 -0.0722961 -0.0164185 0.0415649 0.094574
0.138519 0.1716 0.191925 0.195404 0.179108 0.145416 0.0992432 0.0452576
-0.0132446 -0.0716248 -0.12204 -0.158539 -0.18042 -0.187958 -0.178253
-0.150696 -0.109131 -0.0590515 -0.00445557 0.0509338 0.101501 0.142487
0.169739 0.180695 0.174683 0.153442 0.118195 0.0704346 0.0154114 -0.0401306
-0.0919189 -0.135223 -0.164764 -0.17804 -0.175171 -0.156342 -0.123535
-0.0799561 -0.0308838 0.0196533 0.0686951 0.112366 0.144623 0.163666
0.170258 0.161835 0.137268 0.0994873 0.0532837 0.00262451 -0.0486755
-0.0961914 -0.134613 -0.158905 -0.168213 -0.162384 -0.140625 -0.105408
-0.0600891 -0.0100403 0.0383301 0.082428 0.12149 0.149902 0.163727
0.161926 0.145233 0.116486 0.0784607 0.0314941 -0.0203247 -0.0692139
-0.110138 -0.141693 -0.16217 -0.16861 -0.157349 -0.130249 -0.0934753
-0.0495605 0.000579834 0.0509338 0.0953674 0.129333 0.150055 0.159729
0.156769 0.1362 0.101593 0.0601807 0.0145569 -0.0334473 -0.0802612
-0.119904 -0.14563 -0.157196 -0.156891 -0.142151 -0.111176 -0.0690308
-0.021759 0.0253601 0.0693665 0.108429 0.138092 0.152069 0.151398 0.140137
0.118744 0.0860596 0.0437012 -0.00378418 -0.0491638 -0.0897827 -0.124268
-0.148346 -0.156769 -0.150116 -0.130951 -0.1008 -0.0611877 -0.014801
0.0325012 0.0735779 0.107025 0.131927 0.145264 0.145386 0.132538 0.108704
0.077301 0.0391235 -0.00283813 -0.0446167 -0.083374 -0.115356 -0.135559
-0.14267 -0.136963 -0.11908 -0.0907898 -0.0545959 -0.0126648 0.0303345
0.0704041 0.103973 0.128937 0.141052 0.13913 0.124115 0.100037 0.0691223
0.0307617 -0.0126648 -0.0530396 -0.0865479 -0.11441 -0.134583 -0.140564
-0.130188 -0.108185 -0.0799255 -0.0458679 -0.0065918 0.0338745 0.0684204
0.0950623 0.114838 0.126068 0.125061 0.111237 0.0871582 0.0581665 0.0249329
-0.0118713 -0.0481262 -0.0775757 -0.0996704 -0.114594 -0.121063 -0.115509
-0.0974121 -0.0697632 -0.0375671 -0.00302124 0.0324097 0.0654602 0.0910645
0.107178 0.114136 0.11261 0.100708 0.0788574 0.0500183 0.018219 -0.0148315
-0.0466309 -0.0748291 -0.0956726 -0.107269 -0.108917 -0.10257 -0.0876465
-0.0638428 -0.0327454 0.000762939 0.0331421 0.0619812 0.0856018 0.100525
0.105835 0.102264 0.0904846 0.0705872 0.0445862 0.014801 -0.0158081
-0.0451965 -0.0699158 -0.0878296 -0.09729 -0.0979614 -0.0894775 -0.0739136
-0.052063 -0.0253601 0.00384521 0.0318298 0.0570374 0.0768433 0.0888672
0.0915222 0.0864868 0.0739746 0.0549622 0.0308533 0.00476074 -0.020874
-0.0438843 -0.0632324 -0.0765381 -0.0822144 -0.0799866 -0.0709534 -0.0553284
-0.0348816 -0.0125732 0.00942993 0.0309753 0.0496826 0.0638123 0.0705872
0.0703125 0.0637207 0.0521851 0.0360107 0.0174255 -0.0020752 -0.0203857
-0.0363464 -0.0488281 -0.0576172 -0.0609436 -0.0586853 -0.0513 -0.0401306
-0.0252686 -0.00836182 0.00897217 0.0245361 0.0378113 0.0479126 0.0541382
0.0549011 0.0509033 0.0422058 0.0300293 0.0153198 0.00012207 -0.014801
-0.0274658 -0.037384 -0.0437622 -0.0464172 -0.0447693 -0.0395508 -0.0308228
-0.0197144 -0.00686646 0.006073 0.0183105 0.0281372 0.0353088 0.0389099
0.039032 0.0354614 0.0289917 0.0198669 0.00942993 -0.00167847 -0.0120544
-0.0208435 -0.0270081 -0.0309753 -0.0317993 -0.0298462 -0.0256653 -0.0202332
-0.0129089 -0.00469971 0.00378418 0.011261 0.0175476 0.0218506 0.0242004
0.0239563 0.021759 0.0176697 0.0124512 0.00619507 -9.15527e-05 -0.0062561
-0.0111694 -0.0149231 -0.0168457 -0.017334 -0.0158691 -0.0133667 -0.00994873
-0.00619507 -0.00198364 0.00177002 0.00512695 0.00747681 0.00900269
0.00915527 0.0085144 0.00701904 0.00527954 0.00314331 0.00131226 -0.000335693
-0.00131226 -0.00198364 -0.00198364 -0.0017395 -0.00100708 -0.000457764
-0.000152588 -0.000213623 -0.000152588 -0.000213623 -9.15527e-05 -0.000274658
-0.000213623 -0.000244141 -0.000152588 -0.000244141 -0.00012207 -0.000213623
-0.00012207 -0.000244141 -0.000183105 -0.000244141 -6.10352e-05 -0.000152588
-3.05176e-05 -9.15527e-05 -3.05176e-05 -0.000152588 -6.10352e-05 -0.000213623
-0.00012207 -0.00012207 -3.05176e-05 -0.000152588 0 -0.00012207 -6.10352e-05
-0.000183105 -0.00012207 -0.000244141 -0.00012207 -0.000183105 -0.00012207
-0.000213623;
#X connect 0 0 1 0;
#X connect 1 0 3 0;
#X connect 1 1 2 0;
#X restore 284 207 pd fillxyloclick;
#X obj 236 444 r \$0-release;
#X obj 205 420 r \$0-attack;
#X obj 410 437 bng 15 250 50 0 empty empty empty 17 7 0 10 -262144
-1 -1;
#N canvas 442 288 794 645 envperc 0;
#X obj 102 440 outlet~;
#X obj 15 48 inlet;
#X obj 185 48 inlet;
#X text 183 24 volume (0-1);
#X text 15 23 trigger - start envelope;
#X text 143 387 handle the volume scaling.;
#X obj 102 309 vline~;
#X obj 102 383 *~;
#X obj 293 49 inlet;
#X obj 371 49 inlet;
#X text 291 24 attack;
#X text 372 24 release;
#X text 41 515 percussive envelope generator - cpm 2014;
#X obj 101 239 f;
#X obj 101 214 t b;
#X obj 513 33 loadbang;
#X obj 496 93 s \$0-att;
#X obj 555 92 s \$0-rel;
#X msg 496 66 25;
#X msg 556 64 4000;
#X obj 616 92 s \$0-vol;
#X msg 615 64 1;
#X obj 297 76 s \$0-att;
#X obj 356 75 s \$0-rel;
#X obj 186 73 s \$0-vol;
#X text 583 35 defaults;
#X obj 127 214 r \$0-rel;
#X obj 117 353 r \$0-vol;
#X obj 205 212 r \$0-att;
#X text 262 212 doesn't work right now;
#X msg 102 282 1 25 \, 0 \$1 25;
#X connect 1 0 14 0;
#X connect 2 0 24 0;
#X connect 6 0 7 0;
#X connect 7 0 0 0;
#X connect 8 0 22 0;
#X connect 9 0 23 0;
#X connect 13 0 30 0;
#X connect 14 0 13 0;
#X connect 15 0 18 0;
#X connect 15 0 19 0;
#X connect 15 0 21 0;
#X connect 18 0 16 0;
#X connect 19 0 17 0;
#X connect 21 0 20 0;
#X connect 26 0 13 1;
#X connect 27 0 7 1;
#X connect 30 0 6 0;
#X restore 143 467 pd envperc;
#N canvas 1095 200 803 643 tableplayer 0;
#X obj 466 86 inlet;
#X obj 46 46 inlet;
#X obj 46 601 outlet~;
#X obj 46 471 tabread4~;
#X obj 46 311 list prepend set;
#X obj 46 341 list trim;
#X obj 61 441 vline~;
#N canvas 216 211 1064 786 trigger-sample 0;
#X text 20 165 Wait for the;
#X text 18 179 cutoff to finish;
#X text 83 435 set the upper line~ to start;
#X text 82 454 at the first sample and go;
#X text 81 475 forever (until the next trigger);
#X obj 122 202 t b b;
#X obj 299 645 s \$0-phase;
#X obj 122 315 s \$0-cutoff;
#X obj 122 52 inlet;
#X obj 149 142 s \$0-cutoff;
#X text 16 143 cut the sound off;
#X obj 122 266 f;
#X obj 264 52 inlet;
#X obj 122 82 t b b;
#X text 267 30 gain;
#X obj 314 52 inlet;
#X text 313 30 transpos;
#X obj 299 465 * 1e+07;
#X obj 299 435 f 1;
#X obj 341 233 moses 0;
#X obj 448 646 s \$0-phase;
#X obj 448 466 * 1e+07;
#X obj 448 436 f 1;
#X obj 463 406 abs;
#X obj 314 73 t a a;
#X obj 299 307 < 0;
#X obj 299 331 select 0 1;
#X obj 299 285 f;
#X obj 122 172 delay 2;
#X obj 416 52 inlet;
#X text 413 32 start;
#X obj 633 85 inlet;
#X obj 299 555 unpack 0 0;
#X obj 299 585 + 0;
#X obj 299 615 pack 0 0;
#X obj 416 112 * 22.05;
#X text 468 111 ms to samples;
#X text 671 84 duration;
#X obj 633 115 select 0;
#X obj 678 175 delay;
#X obj 855 45 inlet;
#X text 852 24 loops;
#X obj 736 270 outlet;
#X obj 678 145 - 2;
#X obj 736 235 delay 2;
#X obj 448 556 unpack 0 0;
#X obj 448 586 + 0;
#X obj 448 616 pack 0 0;
#X msg 633 145 stop;
#X obj 455 82 / 1000;
#X obj 455 52 r \$0-sr;
#X obj 448 496 pack 0 -2.205e+08;
#X msg 448 526 1 0 \, \$2 \$1;
#X obj 547 438 r \$0-sr;
#X obj 547 468 * -10000;
#X obj 392 435 r \$0-sr;
#X obj 392 465 * 10000;
#X obj 299 495 pack 0 2.205e+08;
#X msg 299 525 1 0 \, \$2 \$1;
#X obj 709 115 r \$0-stop;
#X obj 149 112 pack 0 2;
#X obj 678 365 s \$0-cutoff;
#X obj 678 335 pack 0 2;
#X obj 341 185 swap 1;
#X obj 341 210 /;
#X obj 167 82 t f f;
#X obj 416 134 t f f;
#X obj 748 82 t f f;
#X obj 678 205 t f f;
#X obj 709 145 t f f;
#X obj 167 52 r \$0-fade-out;
#X obj 122 290 pack 0 0;
#X obj 175 265 r \$0-fade-in;
#X obj 723 305 r \$0-fade-out;
#X obj 748 52 r \$0-fade-out;
#X connect 5 0 11 0;
#X connect 5 1 27 0;
#X connect 8 0 13 0;
#X connect 11 0 71 0;
#X connect 12 0 11 1;
#X connect 13 0 28 0;
#X connect 13 1 60 0;
#X connect 15 0 24 0;
#X connect 17 0 57 0;
#X connect 18 0 17 0;
#X connect 19 0 23 0;
#X connect 19 1 18 1;
#X connect 21 0 51 0;
#X connect 22 0 21 0;
#X connect 23 0 22 1;
#X connect 24 0 27 1;
#X connect 24 1 63 0;
#X connect 25 0 26 0;
#X connect 26 0 18 0;
#X connect 26 1 22 0;
#X connect 27 0 25 0;
#X connect 28 0 5 0;
#X connect 29 0 35 0;
#X connect 31 0 38 0;
#X connect 32 0 33 0;
#X connect 32 1 34 1;
#X connect 33 0 34 0;
#X connect 34 0 6 0;
#X connect 35 0 66 0;
#X connect 38 0 48 0;
#X connect 38 1 43 0;
#X connect 39 0 68 0;
#X connect 43 0 39 0;
#X connect 44 0 42 0;
#X connect 45 0 46 0;
#X connect 45 1 47 1;
#X connect 46 0 47 0;
#X connect 47 0 20 0;
#X connect 48 0 39 0;
#X connect 49 0 35 1;
#X connect 50 0 49 0;
#X connect 51 0 52 0;
#X connect 52 0 45 0;
#X connect 53 0 54 0;
#X connect 54 0 51 1;
#X connect 55 0 56 0;
#X connect 56 0 57 1;
#X connect 57 0 58 0;
#X connect 58 0 32 0;
#X connect 59 0 69 0;
#X connect 60 0 9 0;
#X connect 62 0 61 0;
#X connect 63 0 64 0;
#X connect 63 1 64 1;
#X connect 64 0 19 0;
#X connect 65 0 28 1;
#X connect 65 1 60 1;
#X connect 66 0 33 1;
#X connect 66 1 46 1;
#X connect 67 0 43 1;
#X connect 67 1 44 1;
#X connect 68 0 62 0;
#X connect 68 1 44 0;
#X connect 69 0 39 0;
#X connect 69 1 44 0;
#X connect 70 0 65 0;
#X connect 71 0 7 0;
#X connect 72 0 71 1;
#X connect 73 0 62 1;
#X connect 74 0 67 0;
#X restore 65 246 pd trigger-sample;
#X obj 61 511 r \$0-cutoff;
#X obj 46 571 *~;
#X obj 61 541 vline~;
#X obj 71 411 r \$0-phase;
#X text 89 38 IN: tablename gain transposition start(ms) duration(ms)
loop(0/1);
#X text 505 85 dispatcher (later);
#X obj 46 156 list;
#N canvas 262 214 523 499 defaults 0;
#X msg 57 404 1;
#X obj 23 24 inlet;
#X obj 23 54 list split 1;
#X obj 57 84 t a b;
#X obj 57 144 unpack 1 2 3 4 5;
#X text 149 114 defaults: gain 1 \, trans 1 \, start 0 \, dur 0==all
\, loops 0;
#X msg 84 114 1 1 0 0 0;
#X obj 57 454 outlet gain;
#X obj 57 374 select 0;
#X msg 80 294 1;
#X obj 80 264 select 0;
#X obj 80 344 outlet transpos;
#X obj 103 234 outlet start;
#X obj 126 204 outlet duration;
#X obj 150 174 outlet loops;
#X connect 0 0 7 0;
#X connect 1 0 2 0;
#X connect 2 1 3 0;
#X connect 2 2 3 0;
#X connect 3 0 4 0;
#X connect 3 1 6 0;
#X connect 4 0 8 0;
#X connect 4 1 10 0;
#X connect 4 2 12 0;
#X connect 4 3 13 0;
#X connect 4 4 14 0;
#X connect 6 0 4 0;
#X connect 8 0 0 0;
#X connect 8 1 7 0;
#X connect 9 0 11 0;
#X connect 10 0 9 0;
#X connect 10 1 11 0;
#X restore 85 216 pd defaults;
#X obj 103 106 t b a;
#X obj 46 76 route bang;
#X obj 65 276 outlet;
#X text 110 276 bangs at end of duration \, if specified;
#X obj 46 186 t a a a;
#N canvas 0 22 190 276 sr 0;
#X obj 32 29 inlet;
#X obj 32 89 route sr;
#X obj 32 59 list trim;
#X obj 77 119 outlet;
#X obj 32 219 s \$0-sr;
#X connect 0 0 2 0;
#X connect 1 0 4 0;
#X connect 1 1 3 0;
#X connect 2 0 1 0;
#X restore 466 116 pd sr;
#N canvas 0 22 492 417 stop 0;
#X obj 80 49 inlet;
#X obj 80 74 list trim;
#X obj 147 131 outlet;
#X obj 80 101 route stop;
#X obj 155 271 s \$0-cutoff;
#X obj 80 128 b;
#X obj 80 290 s \$0-stop;
#X msg 80 268 stop;
#X obj 80 247 delay 2;
#X obj 155 249 pack 0 2;
#X obj 151 201 r \$0-fade-out;
#X connect 0 0 1 0;
#X connect 1 0 3 0;
#X connect 3 0 5 0;
#X connect 3 1 2 0;
#X connect 5 0 8 0;
#X connect 5 0 9 0;
#X connect 7 0 6 0;
#X connect 8 0 7 0;
#X connect 9 0 4 0;
#X connect 10 0 8 1;
#X connect 10 0 9 1;
#X restore 466 146 pd stop;
#X obj 61 381 r \$0-stop;
#N canvas 0 22 492 417 fade 0;
#X obj 80 49 inlet;
#X obj 80 74 list trim;
#X obj 147 131 outlet;
#X obj 80 101 route fade;
#X obj 80 238 max 0;
#X obj 80 264 s \$0-fade-in;
#X obj 80 167 unpack 0 0;
#X obj 172 238 max 0;
#X obj 172 264 s \$0-fade-out;
#X connect 0 0 1 0;
#X connect 1 0 3 0;
#X connect 3 0 6 0;
#X connect 3 1 2 0;
#X connect 4 0 5 0;
#X connect 6 0 4 0;
#X connect 6 1 7 0;
#X connect 7 0 8 0;
#X restore 466 176 pd fade;
#N canvas 0 22 256 258 calc 0;
#X obj 55 65 unpack 0 0;
#X obj 55 125 pack 0 0;
#X msg 55 155 set \$1 \$2;
#X msg 55 185 2.205e+08 1e+07;
#X msg 55 35 22050 1000;
#X floatatom 151 65 5 0 0 0 - - -;
#X obj 112 95 * 10000;
#X obj 55 95 * 10000;
#X connect 0 0 7 0;
#X connect 0 1 6 0;
#X connect 1 0 2 0;
#X connect 2 0 3 0;
#X connect 4 0 0 0;
#X connect 5 0 6 1;
#X connect 5 0 7 1;
#X connect 6 0 1 1;
#X connect 7 0 1 0;
#X restore 466 206 pd calc;
#X connect 0 0 21 0;
#X connect 1 0 17 0;
#X connect 3 0 9 0;
#X connect 4 0 5 0;
#X connect 5 0 3 0;
#X connect 6 0 3 0;
#X connect 7 0 18 0;
#X connect 8 0 10 0;
#X connect 9 0 2 0;
#X connect 10 0 9 1;
#X connect 11 0 6 0;
#X connect 14 0 20 0;
#X connect 15 0 7 1;
#X connect 15 1 7 2;
#X connect 15 2 7 3;
#X connect 15 3 7 4;
#X connect 15 4 7 5;
#X connect 16 0 14 0;
#X connect 16 1 14 1;
#X connect 17 0 14 0;
#X connect 17 1 16 0;
#X connect 20 0 4 0;
#X connect 20 1 7 0;
#X connect 20 2 15 0;
#X connect 21 0 22 0;
#X connect 22 0 24 0;
#X connect 23 0 6 0;
#X restore 452 465 pd tableplayer;
#X obj 29 466 s_playtable;
#X connect 0 0 3 0;
#X connect 1 0 18 0;
#X connect 2 0 0 0;
#X connect 3 0 40 1;
#X connect 4 0 40 0;
#X connect 7 0 10 0;
#X connect 10 0 17 0;
#X connect 10 1 11 0;
#X connect 11 0 32 0;
#X connect 12 0 27 0;
#X connect 13 0 19 0;
#X connect 14 0 16 0;
#X connect 15 0 14 0;
#X connect 16 0 13 1;
#X connect 17 0 12 0;
#X connect 17 1 15 0;
#X connect 18 0 58 0;
#X connect 18 1 56 0;
#X connect 18 2 2 0;
#X connect 18 2 55 0;
#X connect 19 0 1 0;
#X connect 21 0 22 0;
#X connect 22 0 23 0;
#X connect 22 1 24 0;
#X connect 25 0 27 1;
#X connect 26 0 1 1;
#X connect 27 0 13 0;
#X connect 33 0 56 1;
#X connect 34 0 38 0;
#X connect 36 0 39 0;
#X connect 40 0 5 0;
#X connect 40 1 6 0;
#X connect 42 0 49 0;
#X connect 43 0 45 0;
#X connect 43 0 47 0;
#X connect 45 0 46 0;
#X connect 47 0 48 0;
#X connect 48 0 44 0;
#X connect 49 0 52 0;
#X connect 50 0 49 0;
#X connect 51 0 47 0;
#X connect 51 0 45 0;
#X connect 53 0 56 3;
#X connect 54 0 56 2;
#X connect 56 0 4 1;
#X connect 58 0 4 0;
