#N canvas 725 23 792 858 10;
#X declare -path rj;
#X obj 38 44 inlet;
#X obj 37 753 outlet~;
#X obj 88 753 outlet~;
#X msg 639 83 sr 44100;
#X obj 639 60 loadbang;
#X obj 470 48 inlet;
#X obj 470 115 list prepend open;
#X obj 470 139 list trim;
#X obj 37 560 *~;
#X obj 470 69 s \$0-tableName;
#X obj 470 94 r \$0-tableName;
#X obj 642 32 declare -path rj;
#X msg 666 527 stream;
#X obj 139 448 r \$0-vel;
#X obj 170 471 r \$0-att;
#X obj 201 495 r \$0-rel;
#X msg 666 556 cb2;
#X msg 669 584 cb1;
#X obj 179 542 bng 15 250 50 0 empty empty empty 17 7 0 10 -262144
-1 -1;
#X obj 645 610 s \$0-tableName;
#X obj 183 363 unpack s f f f;
#X floatatom 210 385 10 0 0 0 - - -;
#X obj 210 406 s \$0-tabledur;
#X text 43 24 volume (0-1) (trigger);
#X text 469 30 tableName to open;
#X msg 639 714 play;
#X msg 641 739 startpos 0.7;
#X obj 639 104 s \$0-playerInlet;
#X obj 38 333 r \$0-playerInlet;
#X msg 179 563 stop;
#X obj 179 583 s \$0-playerInlet;
#X msg 638 654 stop;
#X obj 638 770 s \$0-playerInlet;
#X obj 40 285 list trim;
#X obj 40 308 s \$0-playerInlet;
#X obj 160 307 s \$0-rel;
#X floatatom 177 274 5 0 0 0 - - -;
#X obj 246 219 random 100;
#X obj 245 244 / 100;
#X floatatom 284 244 5 0 0 0 - - -;
#X obj 245 307 s \$0-vel;
#X obj 470 160 s \$0-playerInlet;
#N canvas 1086 168 671 573 playdivcode 0;
#X obj 39 22 inlet;
#X obj 38 252 list prepend playdiv;
#X obj 38 139 bng 15 250 50 0 empty empty empty 17 7 0 10 -262144 -1
-1;
#X obj 38 230 list prepend 150;
#X obj 38 165 random 5;
#X obj 38 209 list prepend;
#X obj 108 165 random 150;
#X obj 38 187 + 1;
#X obj 38 275 list trim;
#X obj 65 138 s \$0-vel;
#X obj 38 114 t b f;
#X msg 78 114 0.8;
#X obj 64 187 s \$0-notedur;
#X floatatom 150 188 5 0 0 0 - - -;
#X obj 38 299 s \$0-playerInlet;
#X obj 229 147 / 150;
#X obj 229 123 r \$0-tabledur;
#X obj 214 171 *;
#X obj 214 102 r \$0-notedur;
#X obj 215 217 s \$0-rel;
#X floatatom 275 217 5 0 0 0 - - -;
#X obj 214 193 - 50;
#X connect 0 0 10 0;
#X connect 1 0 8 0;
#X connect 2 0 4 0;
#X connect 2 0 6 0;
#X connect 3 0 1 0;
#X connect 4 0 7 0;
#X connect 5 0 3 0;
#X connect 6 0 5 1;
#X connect 6 0 13 0;
#X connect 7 0 5 0;
#X connect 7 0 12 0;
#X connect 8 0 14 0;
#X connect 10 0 2 0;
#X connect 10 1 9 0;
#X connect 11 0 10 0;
#X connect 15 0 17 1;
#X connect 16 0 15 0;
#X connect 17 0 21 0;
#X connect 18 0 17 0;
#X connect 21 0 19 0;
#X connect 21 0 20 0;
#X restore 400 214 pd playdivcode;
#X obj 138 184 t b b a;
#X msg 640 686 loop 1;
#X msg 576 687 play 0.25;
#X obj 40 264 list prepend loop;
#N canvas 284 300 794 645 envperc 0;
#X obj 16 526 outlet~;
#X obj 15 48 inlet;
#X obj 317 52 inlet;
#X text 315 28 volume (0-1);
#X text 15 23 trigger - start envelope;
#X text 57 473 handle the volume scaling.;
#X obj 16 395 vline~;
#X obj 16 469 *~;
#X obj 425 53 inlet;
#X obj 503 53 inlet;
#X text 423 28 attack;
#X text 504 28 release;
#X text 15 602 percussive envelope generator - cpm 2014;
#X obj 15 325 f;
#X obj 15 300 t b;
#X obj 601 549 loadbang;
#X msg 584 582 25;
#X msg 644 580 4000;
#X msg 703 580 1;
#X text 671 551 defaults;
#X text 176 298 doesn't work right now;
#X msg 16 368 1 25 \, 0 \$1 25;
#X obj 318 77 s \$0-v;
#X obj 429 80 s \$0-a;
#X obj 488 79 s \$0-r;
#X obj 584 609 s \$0-a;
#X obj 643 608 s \$0-r;
#X obj 704 608 s \$0-v;
#X obj 41 300 r \$0-r;
#X obj 119 298 r \$0-a;
#X obj 31 439 r \$0-v;
#X obj 161 171 + 25;
#X obj 161 194 +;
#X obj 134 218 delay;
#X obj 188 146 r $-a;
#X obj 161 146 f;
#X obj 161 123 t b;
#X obj 161 93 r \$0-a;
#X obj 211 93 r \$0-r;
#X obj 134 242 outlet;
#X obj 114 93 r \$0-v;
#X floatatom 200 228 5 0 0 0 - - -;
#X obj 189 194 r \$0-r;
#X connect 1 0 14 0;
#X connect 1 0 33 0;
#X connect 2 0 22 0;
#X connect 6 0 7 0;
#X connect 7 0 0 0;
#X connect 8 0 23 0;
#X connect 9 0 24 0;
#X connect 13 0 21 0;
#X connect 14 0 13 0;
#X connect 15 0 16 0;
#X connect 15 0 17 0;
#X connect 15 0 18 0;
#X connect 16 0 25 0;
#X connect 17 0 26 0;
#X connect 18 0 27 0;
#X connect 21 0 6 0;
#X connect 28 0 13 1;
#X connect 30 0 7 1;
#X connect 31 0 32 0;
#X connect 32 0 33 1;
#X connect 32 0 41 0;
#X connect 33 0 39 0;
#X connect 34 0 35 1;
#X connect 35 0 31 0;
#X connect 36 0 35 0;
#X connect 37 0 36 0;
#X connect 38 0 36 0;
#X connect 40 0 36 0;
#X connect 42 0 32 1;
#X restore 116 521 pd envperc;
#X obj 38 362 cpmlooper \$1;
#X obj 243 45 inlet;
#X text 243 25 pitchshift;
#X msg 243 74 speed \$1;
#X obj 243 96 s \$0-playerInlet;
#X msg 569 716 speed 0.95;
#X obj 355 46 inlet;
#X text 356 25 startpos;
#X msg 355 69 startpos \$1;
#X obj 355 89 s \$0-playerInlet;
#X obj 40 242 f 0;
#X obj 157 218 random 400;
#X obj 158 243 + 50;
#X connect 0 0 43 0;
#X connect 3 0 27 0;
#X connect 4 0 3 0;
#X connect 5 0 9 0;
#X connect 6 0 7 0;
#X connect 7 0 41 0;
#X connect 8 0 1 0;
#X connect 8 0 2 0;
#X connect 10 0 6 0;
#X connect 12 0 19 0;
#X connect 13 0 47 1;
#X connect 14 0 47 2;
#X connect 15 0 47 3;
#X connect 16 0 19 0;
#X connect 17 0 19 0;
#X connect 20 1 21 0;
#X connect 21 0 22 0;
#X connect 25 0 32 0;
#X connect 26 0 32 0;
#X connect 28 0 48 0;
#X connect 29 0 30 0;
#X connect 31 0 32 0;
#X connect 33 0 34 0;
#X connect 37 0 38 0;
#X connect 38 0 39 0;
#X connect 43 0 58 0;
#X connect 43 1 59 0;
#X connect 43 2 40 0;
#X connect 44 0 32 0;
#X connect 45 0 32 0;
#X connect 46 0 33 0;
#X connect 47 0 8 1;
#X connect 47 1 18 0;
#X connect 47 1 29 0;
#X connect 48 0 8 0;
#X connect 48 2 47 0;
#X connect 48 3 20 0;
#X connect 49 0 51 0;
#X connect 51 0 52 0;
#X connect 53 0 32 0;
#X connect 54 0 56 0;
#X connect 54 0 58 1;
#X connect 56 0 57 0;
#X connect 58 0 46 0;
#X connect 59 0 60 0;
#X connect 60 0 35 0;
#X connect 60 0 36 0;
