#N canvas 0 23 898 412 12;
#X obj 32 284 outlet;
#X obj 31 236 tgl 15 0 empty empty empty 17 7 0 10 -262144 -1 -1 0
1;
#X obj 32 259 * 0.95;
#X obj 243 43 f;
#X obj 251 17 select 0;
#X floatatom 244 64 5 0 0 0 - - -;
#X obj 184 15 notein 11;
#X obj 245 82 s \$0-tog;
#X obj 30 149 r \$0-tog;
#X obj 30 168 select 0;
#X obj 95 19 loadbang;
#X obj 50 211 f;
#X obj 77 209 + 1;
#X obj 77 229 % 2;
#X obj 44 187 b;
#X obj 100 37 f \$1;
#X msg 65 41 1;
#X msg 30 43 0;
#X obj 115 286 outlet;
#X obj 114 238 tgl 15 0 empty empty empty 17 7 0 10 -262144 -1 -1 0
1;
#X obj 115 261 * 0.95;
#X obj 113 151 r \$0-tog;
#X obj 133 213 f;
#X obj 160 211 + 1;
#X obj 160 231 % 2;
#X obj 127 189 b;
#X obj 191 288 outlet;
#X obj 190 240 tgl 15 0 empty empty empty 17 7 0 10 -262144 -1 -1 0
1;
#X obj 191 263 * 0.95;
#X obj 189 153 r \$0-tog;
#X obj 209 215 f;
#X obj 236 213 + 1;
#X obj 236 233 % 2;
#X obj 203 191 b;
#X obj 270 285 outlet;
#X obj 269 237 tgl 15 0 empty empty empty 17 7 0 10 -262144 -1 -1 0
1;
#X obj 270 260 * 0.95;
#X obj 268 150 r \$0-tog;
#X obj 288 212 f;
#X obj 315 210 + 1;
#X obj 315 230 % 2;
#X obj 282 188 b;
#X obj 352 288 outlet;
#X obj 351 240 tgl 15 0 empty empty empty 17 7 0 10 -262144 -1 -1 0
1;
#X obj 352 263 * 0.95;
#X obj 350 153 r \$0-tog;
#X obj 370 215 f;
#X obj 397 213 + 1;
#X obj 397 233 % 2;
#X obj 364 191 b;
#X obj 433 287 outlet;
#X obj 432 239 tgl 15 0 empty empty empty 17 7 0 10 -262144 -1 -1 0
1;
#X obj 433 262 * 0.95;
#X obj 431 152 r \$0-tog;
#X obj 451 214 f;
#X obj 478 212 + 1;
#X obj 478 232 % 2;
#X obj 445 190 b;
#X obj 512 284 outlet;
#X obj 511 236 tgl 15 0 empty empty empty 17 7 0 10 -262144 -1 -1 0
1;
#X obj 512 259 * 0.95;
#X obj 510 149 r \$0-tog;
#X obj 530 211 f;
#X obj 557 209 + 1;
#X obj 557 229 % 2;
#X obj 524 187 b;
#X obj 594 287 outlet;
#X obj 593 239 tgl 15 0 empty empty empty 17 7 0 10 -262144 -1 -1 0
1;
#X obj 594 262 * 0.95;
#X obj 592 152 r \$0-tog;
#X obj 612 214 f;
#X obj 639 212 + 1;
#X obj 639 232 % 2;
#X obj 606 190 b;
#X obj 113 170 select 1;
#X obj 189 172 select 2;
#X obj 268 169 select 3;
#X obj 351 172 select 4;
#X obj 431 171 select 5;
#X obj 510 168 select 6;
#X obj 592 171 select 7;
#X obj 12 3 inlet;
#X obj 99 59 s \$0-togs;
#X obj 22 127 r \$0-togs;
#X obj 106 129 r \$0-togs;
#X obj 182 131 r \$0-togs;
#X obj 261 128 r \$0-togs;
#X obj 343 131 r \$0-togs;
#X obj 424 130 r \$0-togs;
#X obj 503 127 r \$0-togs;
#X obj 585 130 r \$0-togs;
#X connect 1 0 2 0;
#X connect 1 0 12 0;
#X connect 2 0 0 0;
#X connect 3 0 5 0;
#X connect 4 0 3 0;
#X connect 5 0 7 0;
#X connect 6 0 3 1;
#X connect 6 1 4 0;
#X connect 8 0 9 0;
#X connect 9 0 14 0;
#X connect 10 0 15 0;
#X connect 11 0 1 0;
#X connect 12 0 13 0;
#X connect 13 0 11 1;
#X connect 14 0 11 0;
#X connect 15 0 82 0;
#X connect 16 0 82 0;
#X connect 17 0 82 0;
#X connect 19 0 20 0;
#X connect 19 0 23 0;
#X connect 20 0 18 0;
#X connect 21 0 74 0;
#X connect 22 0 19 0;
#X connect 23 0 24 0;
#X connect 24 0 22 1;
#X connect 25 0 22 0;
#X connect 27 0 28 0;
#X connect 27 0 31 0;
#X connect 28 0 26 0;
#X connect 29 0 75 0;
#X connect 30 0 27 0;
#X connect 31 0 32 0;
#X connect 32 0 30 1;
#X connect 33 0 30 0;
#X connect 35 0 36 0;
#X connect 35 0 39 0;
#X connect 36 0 34 0;
#X connect 37 0 76 0;
#X connect 38 0 35 0;
#X connect 39 0 40 0;
#X connect 40 0 38 1;
#X connect 41 0 38 0;
#X connect 43 0 44 0;
#X connect 43 0 47 0;
#X connect 44 0 42 0;
#X connect 45 0 77 0;
#X connect 46 0 43 0;
#X connect 47 0 48 0;
#X connect 48 0 46 1;
#X connect 49 0 46 0;
#X connect 51 0 52 0;
#X connect 51 0 55 0;
#X connect 52 0 50 0;
#X connect 53 0 78 0;
#X connect 54 0 51 0;
#X connect 55 0 56 0;
#X connect 56 0 54 1;
#X connect 57 0 54 0;
#X connect 59 0 60 0;
#X connect 59 0 63 0;
#X connect 60 0 58 0;
#X connect 61 0 79 0;
#X connect 62 0 59 0;
#X connect 63 0 64 0;
#X connect 64 0 62 1;
#X connect 65 0 62 0;
#X connect 67 0 68 0;
#X connect 67 0 71 0;
#X connect 68 0 66 0;
#X connect 69 0 80 0;
#X connect 70 0 67 0;
#X connect 71 0 72 0;
#X connect 72 0 70 1;
#X connect 73 0 70 0;
#X connect 74 0 25 0;
#X connect 75 0 33 0;
#X connect 76 0 41 0;
#X connect 77 0 49 0;
#X connect 78 0 57 0;
#X connect 79 0 65 0;
#X connect 80 0 73 0;
#X connect 81 0 82 0;
#X connect 83 0 1 0;
#X connect 84 0 19 0;
#X connect 85 0 27 0;
#X connect 86 0 35 0;
#X connect 87 0 43 0;
#X connect 88 0 51 0;
#X connect 89 0 59 0;
#X connect 90 0 67 0;
