#N canvas 726 372 813 240 10;
#X obj 32 27 inlet~;
#X obj 33 197 outlet~;
#X obj 297 24 inlet;
#X obj 33 169 *~;
#X obj 46 149 vline~;
#X obj 297 114 f;
#X obj 393 112 f;
#X obj 302 66 bng 15 250 50 0 empty empty empty 17 7 0 10 -262144 -1
-1;
#X msg 299 160 1 \$1 \, 0 \$2 \$1;
#X obj 298 137 list prepend;
#X obj 297 88 t b b;
#X obj 151 31 inlet;
#X obj 565 77 t f f;
#X obj 686 50 vsl 15 128 0 1 0 0 empty empty empty 0 -9 0 10 -262144
-1 -1 0 1;
#X obj 564 57 inlet;
#X obj 299 182 print;
#X obj 152 54 tgl 15 0 empty empty empty 17 7 0 10 -262144 -1 -1 0
1;
#X obj 297 44 spigot;
#X msg 151 93 1 1000;
#X msg 205 95 0 1000;
#X obj 532 142 s \$0-att;
#X obj 604 142 s \$0-dec;
#X floatatom 532 161 5 0 0 0 - - -;
#X floatatom 604 161 5 0 0 0 - - -;
#X obj 419 112 r \$0-att;
#X obj 326 114 r \$0-dec;
#X obj 532 103 * 300;
#X obj 532 122 + 15;
#X obj 604 102 * 3000;
#X obj 604 122 + 150;
#X text 538 6 attack/decay (0-1);
#X text 294 5 trigger (bang);
#X text 147 9 bypass (0/1);
#X obj 152 73 select 1;
#X obj 227 34 * -1;
#X obj 226 56 + 1;
#X connect 0 0 3 0;
#X connect 2 0 17 0;
#X connect 3 0 1 0;
#X connect 4 0 3 1;
#X connect 5 0 9 0;
#X connect 6 0 9 1;
#X connect 7 0 10 0;
#X connect 8 0 4 0;
#X connect 8 0 15 0;
#X connect 9 0 8 0;
#X connect 10 0 5 0;
#X connect 10 1 6 0;
#X connect 11 0 16 0;
#X connect 12 0 26 0;
#X connect 12 1 28 0;
#X connect 13 0 12 0;
#X connect 14 0 12 0;
#X connect 16 0 33 0;
#X connect 16 0 34 0;
#X connect 17 0 7 0;
#X connect 18 0 4 0;
#X connect 19 0 4 0;
#X connect 24 0 6 1;
#X connect 25 0 5 1;
#X connect 26 0 27 0;
#X connect 27 0 20 0;
#X connect 27 0 22 0;
#X connect 28 0 29 0;
#X connect 29 0 21 0;
#X connect 29 0 23 0;
#X connect 33 0 18 0;
#X connect 33 1 19 0;
#X connect 34 0 35 0;
#X connect 35 0 17 1;
