#N canvas 847 400 1400 834 10;
#X obj 104 122 vsl 30 128 0 127 0 0 empty empty empty 0 -9 0 10 -259674
-1 -1 7772 1;
#X obj 154 122 vsl 30 128 0 127 0 0 empty empty empty 0 -9 0 10 -261338
-1 -1 0 1;
#X obj 204 121 vsl 30 128 0 127 0 0 empty empty empty 0 -9 0 10 -262106
-1 -1 0 1;
#X obj 256 122 vsl 30 128 0 127 0 0 empty empty empty 0 -9 0 10 -212954
-1 -1 279 1;
#X obj 307 122 vsl 30 128 0 127 0 0 empty empty empty 0 -9 0 10 -106458
-1 -1 3100 1;
#X obj 363 122 vsl 30 128 0 127 0 0 empty empty empty 0 -9 0 10 -106484
-1 -1 0 1;
#X obj 415 122 vsl 30 128 0 127 0 0 empty empty empty 0 -9 0 10 -106496
-1 -1 0 1;
#X obj 470 122 vsl 30 128 0 127 0 0 empty empty empty 0 -9 0 10 -105728
-1 -1 310 1;
#X floatatom 508 237 5 0 0 2 channel #0-chbs -;
#X obj 262 55 r \$0-all;
#X obj 509 121 bng 30 250 50 0 empty empty empty 17 7 0 10 -104064
-1 -1;
#X obj 510 162 tgl 30 0 empty empty empty 17 7 0 10 -210560 -1 -1 1
1;
#X floatatom 558 442 5 0 0 0 - - -;
#X floatatom 662 440 5 0 0 0 - - -;
#X floatatom 769 442 5 0 0 0 - - -;
#X floatatom 872 446 5 0 0 0 - - -;
#X floatatom 1068 445 5 0 0 0 - - -;
#X floatatom 1167 442 5 0 0 0 - - -;
#X floatatom 1272 440 5 0 0 0 - - -;
#X obj 880 187 unpack f f f f f f f f;
#X obj 557 418 * 127;
#X obj 663 416 * 127;
#X obj 771 415 * 127;
#X obj 875 421 * 127;
#X obj 1063 423 * 127;
#X obj 1174 418 * 127;
#X obj 1272 417 * 127;
#X obj 968 425 * 127;
#X floatatom 967 447 5 0 0 0 - - -;
#X obj 924 140 r neural_net_only;
#X connect 9 0 7 0;
#X connect 9 0 6 0;
#X connect 9 0 5 0;
#X connect 9 0 4 0;
#X connect 9 0 3 0;
#X connect 9 0 2 0;
#X connect 9 0 1 0;
#X connect 9 0 0 0;
#X connect 12 0 0 0;
#X connect 13 0 1 0;
#X connect 14 0 2 0;
#X connect 15 0 3 0;
#X connect 16 0 5 0;
#X connect 17 0 6 0;
#X connect 18 0 7 0;
#X connect 19 0 20 0;
#X connect 19 1 21 0;
#X connect 19 2 22 0;
#X connect 19 3 23 0;
#X connect 19 4 27 0;
#X connect 19 5 24 0;
#X connect 19 6 25 0;
#X connect 19 7 26 0;
#X connect 20 0 12 0;
#X connect 21 0 13 0;
#X connect 22 0 14 0;
#X connect 23 0 15 0;
#X connect 24 0 16 0;
#X connect 25 0 17 0;
#X connect 26 0 18 0;
#X connect 27 0 28 0;
#X connect 28 0 4 0;
#X connect 29 0 19 0;
#X coords 0 -1 1 1 450 160 1 100 100;
