#N canvas 66 63 653 256 10;
#X obj 26 48 notein;
#X floatatom 10 126 5 0 0 0 - - -;
#N canvas 83 402 888 381 osc_sending 0;
#X obj 58 23 inlet;
#X obj 61 149 f;
#X obj 58 46 t b f;
#X obj 448 94 r sosc;
#X obj 221 72 s sosc;
#X obj 128 148 f;
#X obj 179 341 netsend -u -b;
#X obj 182 290 list prepend send;
#X obj 182 315 list trim;
#X obj 181 244 list trim;
#X obj 181 266 oscformat interface;
#X msg 286 316 connect localhost 5001;
#X msg 306 340 disconnect;
#X obj 309 213 bng 15 250 50 0 empty empty empty 17 7 0 10 -262144
-1 -1;
#X obj 340 180 loadbang;
#X obj 282 172 inlet;
#X obj 60 91 / 127;
#X obj 121 16 inlet;
#X obj 121 39 t b f;
#X obj 123 84 / 127;
#X obj 23 332 outlet;
#X obj 182 153 f;
#X obj 175 21 inlet;
#X obj 175 44 t b f;
#X obj 177 89 / 127;
#X obj 88 189 pack f f f;
#X obj 449 116 t b b b;
#X connect 0 0 2 0;
#X connect 1 0 25 0;
#X connect 2 1 16 0;
#X connect 3 0 26 0;
#X connect 5 0 25 1;
#X connect 7 0 8 0;
#X connect 8 0 6 0;
#X connect 9 0 10 0;
#X connect 10 0 7 0;
#X connect 11 0 6 0;
#X connect 12 0 6 0;
#X connect 13 0 11 0;
#X connect 14 0 13 0;
#X connect 15 0 13 0;
#X connect 16 0 1 1;
#X connect 17 0 18 0;
#X connect 18 1 19 0;
#X connect 19 0 5 1;
#X connect 21 0 25 2;
#X connect 22 0 23 0;
#X connect 23 0 4 0;
#X connect 23 1 24 0;
#X connect 24 0 21 1;
#X connect 25 0 9 0;
#X connect 25 0 20 0;
#X connect 26 0 1 0;
#X connect 26 1 5 0;
#X connect 26 2 21 0;
#X restore 6 214 pd osc_sending;
#X obj 506 54 bng 150 250 50 0 empty empty empty 17 7 0 10 -258113
-1 -1;
#N canvas 231 421 812 370 osc_receiving 1;
#X obj 132 58 netreceive -u -b;
#X msg 132 34 listen 5000;
#X obj 133 82 oscparse;
#X obj 133 106 list trim;
#X floatatom 7 158 10 0 0 0 - - -;
#X obj 11 132 timer;
#X obj 10 102 t b b;
#X obj 133 14 bng 15 250 50 0 empty empty empty 17 7 0 10 -262144 -1
-1;
#X obj 160 11 inlet;
#X obj 271 68 list split 1;
#X obj 310 88 s emg;
#X text 372 75 send to sound;
#X obj 87 191 t f b;
#X obj 170 190 t f b;
#X obj 86 214 * 127;
#X obj 533 210 osc~;
#X obj 518 190 mtof;
#X obj 516 263 *~;
#X floatatom 468 171 5 0 0 0 - - -;
#X floatatom 83 261 5 0 0 0 - - -;
#X obj 516 284 dac~;
#X obj 491 214 line~;
#X obj 132 129 unpack s f f f;
#X obj 121 313 makenote;
#X obj 84 239 int;
#X obj 170 212 * 127;
#X floatatom 167 259 5 0 0 0 - - -;
#X obj 168 237 int;
#X obj 216 192 t f b;
#X floatatom 228 289 5 0 0 0 - - -;
#X obj 229 267 int;
#X obj 122 338 noteout 1;
#X obj 216 214 * 100000;
#X obj 226 242 + 10;
#X connect 0 0 2 0;
#X connect 1 0 0 0;
#X connect 2 0 3 0;
#X connect 3 0 9 0;
#X connect 3 0 22 0;
#X connect 5 0 4 0;
#X connect 6 0 5 0;
#X connect 6 1 5 1;
#X connect 7 0 1 0;
#X connect 8 0 7 0;
#X connect 9 1 10 0;
#X connect 12 0 14 0;
#X connect 13 0 25 0;
#X connect 14 0 24 0;
#X connect 15 0 17 0;
#X connect 16 0 15 0;
#X connect 17 0 20 0;
#X connect 17 0 20 1;
#X connect 18 0 21 0;
#X connect 19 0 23 0;
#X connect 21 0 17 1;
#X connect 22 0 6 0;
#X connect 22 1 12 0;
#X connect 22 2 13 0;
#X connect 22 3 28 0;
#X connect 23 0 31 0;
#X connect 23 1 31 1;
#X connect 24 0 19 0;
#X connect 25 0 27 0;
#X connect 26 0 23 1;
#X connect 27 0 26 0;
#X connect 28 0 32 0;
#X connect 29 0 23 2;
#X connect 30 0 29 0;
#X connect 32 0 33 0;
#X connect 33 0 30 0;
#X restore 506 210 pd osc_receiving;
#X obj 25 79 print;
#X floatatom 385 146 10 0 0 0 - - -;
#X obj 393 115 timer;
#X obj 382 63 select 0;
#X obj 382 84 t b;
#X obj 427 84 t b;
#X obj 59 129 select 0;
#X floatatom 221 178 5 0 0 0 - - -;
#X obj 204 124 min 1000;
#X obj 203 147 / 1000;
#X connect 0 0 1 0;
#X connect 0 0 5 0;
#X connect 0 1 8 0;
#X connect 0 1 11 0;
#X connect 1 0 2 0;
#X connect 3 0 4 0;
#X connect 3 0 2 3;
#X connect 6 0 13 0;
#X connect 7 0 6 0;
#X connect 8 0 9 0;
#X connect 8 1 10 0;
#X connect 9 0 7 1;
#X connect 10 0 7 0;
#X connect 11 1 2 1;
#X connect 13 0 14 0;
#X connect 14 0 2 2;
#X connect 14 0 12 0;
