#N canvas 954 80 1369 616 10;
#X floatatom 39 79 0 0 0 0 - - -;
#X obj 34 51 ctlin 113 1;
#X floatatom 132 76 0 0 0 0 - - -;
#X obj 127 51 ctlin 114 1;
#X floatatom 220 76 0 0 0 0 - - -;
#X obj 215 50 ctlin 115 1;
#X text 36 31 x;
#X text 129 30 y;
#X text 215 31 z;
#X obj 299 107 t b;
#X obj 300 138 bng 15 250 50 0 empty empty empty 17 7 0 10 -262144
-1 -1;
#X obj 409 281 netsend -u -b;
#X obj 410 180 list prepend send;
#X obj 410 205 list trim;
#X obj 79 172 list append;
#X obj 66 140 list;
#X obj 84 197 list append;
#X obj 471 85 loadbang;
#X floatatom 344 167 10 0 0 0 - - -, f 10;
#N canvas 0 335 450 300 switch_outputs 0;
#X obj 150 23 inlet;
#X obj 117 209 outlet;
#X obj 208 208 outlet;
#X obj 163 47 t b;
#X obj 165 70 f;
#X obj 207 75 + 1;
#X obj 207 111 % 2;
#X obj 110 127 select 0;
#X obj 316 63 bng 15 250 50 0 empty empty empty 17 7 0 10 -262144 -1
-1;
#X obj 114 161 t b;
#X obj 177 156 t b;
#X obj 302 165 bng 15 250 50 0 empty empty empty 17 7 0 10 -262144
-1 -1;
#X obj 45 177 bng 15 250 50 0 empty empty empty 17 7 0 10 -262144 -1
-1;
#X connect 0 0 3 0;
#X connect 3 0 4 0;
#X connect 4 0 5 0;
#X connect 4 0 7 0;
#X connect 5 0 6 0;
#X connect 6 0 4 1;
#X connect 7 0 9 0;
#X connect 7 1 10 0;
#X connect 8 0 4 0;
#X connect 9 0 1 0;
#X connect 9 0 12 0;
#X connect 10 0 2 0;
#X connect 10 0 11 0;
#X restore 377 56 pd switch_outputs;
#X obj 381 94 timer;
#X obj 181 240 list trim;
#X obj 214 387 oscparse;
#X obj 214 412 print reassembled;
#X text 391 329 Just repeats roli block messages to OSC. I use "cpmpercussion/OSC-Logger"
to record them.;
#X obj 227 303 oscformat interface;
#X msg 420 230 connect localhost 5001;
#X msg 571 289 disconnect;
#X obj 49 105 / 128;
#X obj 127 110 / 128;
#X obj 217 113 / 128;
#X obj 769 237 netreceive -u -b;
#X msg 769 182 listen 5000;
#X msg 781 210 listen 0;
#X text 766 158 packets from network;
#X obj 931 266 oscparse;
#X obj 808 393 list trim;
#X floatatom 817 512 5 0 0 0 - - -, f 5;
#X obj 821 428 unpack s f f f;
#X obj 817 464 * 128;
#X obj 816 487 int;
#X floatatom 876 512 5 0 0 0 - - -, f 5;
#X obj 876 471 * 128;
#X obj 875 492 int;
#X floatatom 935 509 5 0 0 0 - - -, f 5;
#X obj 935 468 * 128;
#X obj 934 489 int;
#X text 786 544 x;
#X text 879 543 y;
#X text 965 544 z;
#X obj 784 564 ctlout 113 1;
#X obj 877 564 ctlout 114 1;
#X obj 965 563 ctlout 115 1;
#X msg 547 499 64;
#X obj 584 537 t f f f;
#X text 332 565 x;
#X text 425 564 y;
#X text 511 565 z;
#X obj 330 585 ctlout 113 1;
#X obj 423 585 ctlout 114 1;
#X obj 511 584 ctlout 115 1;
#X connect 0 0 9 0;
#X connect 0 0 28 0;
#X connect 1 0 0 0;
#X connect 2 0 9 0;
#X connect 2 0 29 0;
#X connect 3 0 2 0;
#X connect 4 0 9 0;
#X connect 4 0 30 0;
#X connect 5 0 4 0;
#X connect 9 0 10 0;
#X connect 10 0 20 1;
#X connect 12 0 13 0;
#X connect 13 0 11 0;
#X connect 14 0 16 0;
#X connect 15 0 14 0;
#X connect 16 0 21 0;
#X connect 17 0 26 0;
#X connect 20 0 18 0;
#X connect 21 0 25 0;
#X connect 22 0 23 0;
#X connect 25 0 12 0;
#X connect 25 0 22 0;
#X connect 26 0 11 0;
#X connect 27 0 11 0;
#X connect 28 0 15 0;
#X connect 29 0 14 1;
#X connect 30 0 16 1;
#X connect 31 0 35 0;
#X connect 32 0 31 0;
#X connect 33 0 31 0;
#X connect 35 0 36 0;
#X connect 36 0 38 0;
#X connect 37 0 50 0;
#X connect 38 1 39 0;
#X connect 38 2 42 0;
#X connect 38 3 45 0;
#X connect 39 0 40 0;
#X connect 40 0 37 0;
#X connect 41 0 51 0;
#X connect 42 0 43 0;
#X connect 43 0 41 0;
#X connect 44 0 52 0;
#X connect 45 0 46 0;
#X connect 46 0 44 0;
#X connect 53 0 54 0;
#X connect 54 0 58 0;
#X connect 54 1 59 0;
#X connect 54 2 60 0;
