#N canvas 872 471 404 343 10;
#X obj 16 27 loadbang;
#X obj 16 47 bng 180 250 50 0 empty empty connect 17 7 0 10 -258113
-1 -1;
#X text 18 4 roli lightpad block to MDRNN predictive model - 2019;
#N canvas 0 538 450 300 test_block_ui 0;
#X obj 19 25 inlet;
#X msg 93 86 64;
#X obj 130 124 t f f f;
#X text 45 138 x;
#X text 138 137 y;
#X text 224 138 z;
#X obj 43 158 ctlout 113 17;
#X obj 144 159 ctlout 114 17;
#X obj 249 158 ctlout 115 17;
#X obj 94 62 delay 1000;
#X obj 373 33 vsl 15 128 0 127 0 0 empty empty empty 0 -9 0 10 -262144
-1 -1 0 1;
#X obj 321 41 int;
#X obj 43 185 ctlout 113 1;
#X obj 144 186 ctlout 114 1;
#X obj 249 185 ctlout 115 1;
#X connect 0 0 9 0;
#X connect 1 0 2 0;
#X connect 2 0 6 0;
#X connect 2 0 12 0;
#X connect 2 1 7 0;
#X connect 2 1 13 0;
#X connect 2 2 8 0;
#X connect 2 2 14 0;
#X connect 9 0 1 0;
#X connect 10 0 11 0;
#X connect 11 0 2 0;
#X restore 124 248 pd test_block_ui;
#N canvas 22 32 408 533 block_to_notes 0;
#X obj 61 51 list trim;
#X obj 68 192 unpack f f;
#X floatatom 133 305 0 0 0 0 - - -;
#X floatatom 236 308 0 0 0 0 - - -;
#X floatatom 68 306 5 0 0 0 - - -;
#X obj 268 69 vsl 15 128 -1024 1024 0 0 empty empty empty 0 -9 0 10
-262144 -1 -1 0 1;
#X obj 65 116 touch_to_notes 24 37;
#X obj 234 263 * 127;
#X obj 235 286 int;
#X obj 92 451 block-tester block_direct;
#X obj 61 29 r block_direct-input;
#X obj 41 416 ctlin 113 1;
#X obj 144 415 ctlin 114 1;
#X obj 245 416 ctlin 115 1;
#X obj 85 241 noteout 2;
#X obj 60 332 bendout 2;
#X obj 133 331 touchout 2;
#X obj 221 332 ctlout 109 2;
#X obj 125 358 ctlout 111 2;
#X text 94 389 block output \, channel 2;
#X floatatom 29 169 5 0 0 0 - - -;
#X obj 61 74 t a b;
#X obj 102 74 s rec_from_block;
#X connect 0 0 21 0;
#X connect 1 0 14 0;
#X connect 1 1 14 1;
#X connect 2 0 16 0;
#X connect 2 0 18 0;
#X connect 3 0 17 0;
#X connect 4 0 15 0;
#X connect 5 0 4 0;
#X connect 6 0 1 0;
#X connect 6 0 20 0;
#X connect 6 1 4 0;
#X connect 6 2 2 0;
#X connect 6 3 7 0;
#X connect 7 0 8 0;
#X connect 8 0 3 0;
#X connect 10 0 0 0;
#X connect 11 0 9 0;
#X connect 12 0 9 1;
#X connect 13 0 9 2;
#X connect 21 0 6 0;
#X connect 21 1 22 0;
#X restore 15 296 pd block_to_notes;
#X obj 203 46 tgl 180 0 empty empty transmit 17 7 0 10 -260097 -1 -1
1 1;
#N canvas 288 253 594 440 data_to_imps 0;
#X obj 505 146 inlet;
#X floatatom 143 81 0 0 0 0 - - -;
#X obj 138 53 ctlin 113 1;
#X floatatom 236 78 0 0 0 0 - - -;
#X obj 231 53 ctlin 114 1;
#X floatatom 324 78 0 0 0 0 - - -;
#X obj 319 52 ctlin 115 1;
#X text 140 33 x;
#X text 233 32 y;
#X text 319 33 z;
#X obj 194 323 netsend -u -b;
#X obj 193 273 list prepend send;
#X obj 193 298 list trim;
#X obj 183 174 list append;
#X obj 170 142 list;
#X obj 188 199 list append;
#X floatatom 400 165 10 0 0 0 - - -;
#X obj 404 139 timer;
#X obj 192 227 list trim;
#X obj 192 249 oscformat interface;
#X msg 297 299 connect localhost 5001;
#X msg 445 301 disconnect;
#X obj 153 107 / 128;
#X obj 231 112 / 128;
#X obj 321 115 / 128;
#X obj 403 109 t b b;
#X obj 213 352 select 0;
#X obj 418 255 bng 15 250 50 0 empty empty empty 17 7 0 10 -262144
-1 -1;
#X obj 419 215 t b b;
#X obj 418 236 delay 100;
#X connect 0 0 28 0;
#X connect 1 0 22 0;
#X connect 2 0 1 0;
#X connect 3 0 23 0;
#X connect 4 0 3 0;
#X connect 5 0 24 0;
#X connect 5 0 25 0;
#X connect 6 0 5 0;
#X connect 10 0 26 0;
#X connect 11 0 12 0;
#X connect 12 0 10 0;
#X connect 13 0 15 0;
#X connect 14 0 13 0;
#X connect 15 0 18 0;
#X connect 17 0 16 0;
#X connect 18 0 19 0;
#X connect 19 0 11 0;
#X connect 20 0 10 0;
#X connect 21 0 10 0;
#X connect 22 0 14 0;
#X connect 23 0 13 1;
#X connect 24 0 15 1;
#X connect 25 0 17 0;
#X connect 25 1 17 1;
#X connect 26 0 27 0;
#X connect 27 0 20 0;
#X connect 28 0 29 0;
#X connect 28 1 21 0;
#X connect 29 0 27 0;
#X restore 16 246 pd data_to_imps;
#N canvas 0 23 684 570 data_from_imps 0;
#X obj 27 47 inlet;
#X obj 582 27 inlet;
#X obj 585 70 tgl 15 0 empty empty empty 17 7 0 10 -262144 -1 -1 1
1;
#X obj 33 81 bng 15 250 50 0 empty empty empty 17 7 0 10 -262144 -1
-1;
#X obj 206 173 netreceive -u -b;
#X msg 206 152 listen 5000;
#X obj 207 197 oscparse;
#X obj 206 236 list trim;
#X floatatom 201 343 5 0 0 0 - - -;
#X obj 199 263 unpack s f f f;
#X obj 200 318 int;
#X floatatom 260 343 5 0 0 0 - - -;
#X obj 259 323 int;
#X floatatom 319 340 5 0 0 0 - - -;
#X obj 318 320 int;
#X text 170 375 x;
#X text 263 374 y;
#X text 349 375 z;
#X obj 201 295 * 127;
#X obj 260 302 * 127;
#X obj 319 300 * 127;
#X obj 207 363 block-tester \$0;
#X obj 131 396 ctlout 113 17;
#X obj 261 394 ctlout 114 17;
#X obj 370 394 ctlout 115 17;
#X obj 135 427 ctlout 113 1;
#X obj 238 426 ctlout 114 1;
#X obj 339 427 ctlout 115 1;
#X floatatom 108 335 10 0 0 0 - - -;
#X obj 112 309 timer;
#X obj 111 279 t b b;
#X obj 276 216 spigot;
#X obj 152 77 t b b;
#X obj 152 99 delay 100;
#X msg 300 153 listen 0;
#X connect 0 0 3 0;
#X connect 1 0 2 0;
#X connect 2 0 31 1;
#X connect 3 0 32 0;
#X connect 4 0 6 0;
#X connect 5 0 4 0;
#X connect 6 0 31 0;
#X connect 7 0 9 0;
#X connect 8 0 21 0;
#X connect 8 0 22 0;
#X connect 8 0 25 0;
#X connect 9 0 30 0;
#X connect 9 1 18 0;
#X connect 9 2 19 0;
#X connect 9 3 20 0;
#X connect 10 0 8 0;
#X connect 11 0 23 0;
#X connect 11 0 26 0;
#X connect 11 0 21 1;
#X connect 12 0 11 0;
#X connect 13 0 24 0;
#X connect 13 0 27 0;
#X connect 13 0 21 2;
#X connect 14 0 13 0;
#X connect 18 0 10 0;
#X connect 19 0 12 0;
#X connect 20 0 14 0;
#X connect 29 0 28 0;
#X connect 30 0 29 0;
#X connect 30 1 29 1;
#X connect 31 0 7 0;
#X connect 32 0 33 0;
#X connect 32 1 34 0;
#X connect 33 0 5 0;
#X connect 34 0 4 0;
#X restore 17 272 pd data_from_imps;
#N canvas 678 400 387 436 imps_to_notes 0;
#X obj 30 40 list trim;
#X obj 30 18 r \$0-input;
#X obj 37 181 unpack f f;
#X obj 151 180 print note;
#X floatatom 102 294 0 0 0 0 - - -;
#X floatatom 205 297 0 0 0 0 - - -;
#X floatatom 37 295 5 0 0 0 - - -;
#X obj 54 230 noteout 1;
#X obj 29 321 bendout 1;
#X obj 102 320 touchout 1;
#X obj 237 58 vsl 15 128 -1024 1024 0 0 empty empty empty 0 -9 0 10
-262144 -1 -1 0 1;
#X obj 34 105 touch_to_notes 24 37;
#X obj 190 321 ctlout 109 1;
#X obj 203 252 * 127;
#X obj 204 275 int;
#X obj 94 347 ctlout 111 1;
#X text 85 382 MDRNN output \, channel 1;
#X obj 30 63 t a b;
#X obj 68 63 s rec_from_imps;
#X connect 0 0 17 0;
#X connect 1 0 0 0;
#X connect 2 0 7 0;
#X connect 2 1 7 1;
#X connect 4 0 9 0;
#X connect 4 0 15 0;
#X connect 5 0 12 0;
#X connect 6 0 8 0;
#X connect 10 0 6 0;
#X connect 11 0 2 0;
#X connect 11 0 3 0;
#X connect 11 1 6 0;
#X connect 11 2 4 0;
#X connect 11 3 13 0;
#X connect 13 0 14 0;
#X connect 14 0 5 0;
#X connect 17 0 11 0;
#X connect 17 1 18 0;
#X restore 15 320 pd imps_to_notes;
#X obj 235 268 bng 15 250 50 0 empty rec_from_imps received_from_IMPS
17 7 0 10 -4032 -1 -1;
#X obj 235 250 bng 15 250 50 0 empty rec_from_block received_from_block
17 7 0 10 -4034 -1 -1;
#X connect 0 0 1 0;
#X connect 0 0 5 0;
#X connect 1 0 3 0;
#X connect 1 0 6 0;
#X connect 1 0 7 0;
#X connect 5 0 7 1;
