#N canvas 3540 54 890 566 10;
#X floatatom 39 79 0 0 0 0 - - -;
#X obj 34 51 ctlin 113 1;
#X floatatom 132 76 0 0 0 0 - - -;
#X obj 127 51 ctlin 114 1;
#X floatatom 220 76 0 0 0 0 - - -;
#X obj 215 50 ctlin 115 1;
#X text 36 31 x;
#X text 129 30 y;
#X text 215 31 z;
#X obj 86 322 netsend -u -b;
#X obj 89 271 list prepend send;
#X obj 89 296 list trim;
#X obj 79 172 list append;
#X obj 66 140 list;
#X obj 84 197 list append;
#X obj 529 13 loadbang;
#X floatatom 296 163 10 0 0 0 - - -, f 10;
#N canvas 0 335 450 300 switch_outputs 0;
#X obj 150 23 inlet;
#X obj 117 209 outlet;
#X obj 208 208 outlet;
#X obj 163 47 t b;
#X obj 165 70 f;
#X obj 207 75 + 1;
#X obj 207 111 % 2;
#X obj 110 127 select 0;
#X obj 316 63 bng 15 250 50 0 empty empty empty 17 7 0 10 -262144 -1
-1;
#X obj 114 161 t b;
#X obj 177 156 t b;
#X obj 302 165 bng 15 250 50 0 empty empty empty 17 7 0 10 -262144
-1 -1;
#X obj 45 177 bng 15 250 50 0 empty empty empty 17 7 0 10 -262144 -1
-1;
#X connect 0 0 3 0;
#X connect 3 0 4 0;
#X connect 4 0 5 0;
#X connect 4 0 7 0;
#X connect 5 0 6 0;
#X connect 6 0 4 1;
#X connect 7 0 9 0;
#X connect 7 1 10 0;
#X connect 8 0 4 0;
#X connect 9 0 1 0;
#X connect 9 0 12 0;
#X connect 10 0 2 0;
#X connect 10 0 11 0;
#X restore 377 56 pd switch_outputs;
#X obj 300 137 timer;
#X obj 88 225 list trim;
#X obj 88 247 oscformat interface;
#X msg 193 297 connect localhost 5001;
#X msg 213 321 disconnect;
#X obj 49 105 / 128;
#X obj 127 110 / 128;
#X obj 217 113 / 128;
#X obj 521 259 netreceive -u -b;
#X msg 522 236 listen 5000;
#X obj 522 283 oscparse;
#X obj 522 307 list trim;
#X floatatom 517 414 5 0 0 0 - - -, f 5;
#X obj 521 330 unpack s f f f;
#X obj 516 389 int;
#X floatatom 576 414 5 0 0 0 - - -, f 5;
#X obj 575 394 int;
#X floatatom 635 411 5 0 0 0 - - -, f 5;
#X obj 634 391 int;
#X text 486 446 x;
#X text 579 445 y;
#X text 665 446 z;
#X obj 517 366 * 127;
#X obj 576 373 * 127;
#X obj 635 371 * 127;
#X obj 523 434 block-tester \$0;
#X obj 447 467 ctlout 113 17;
#X obj 577 465 ctlout 114 17;
#X obj 686 465 ctlout 115 17;
#X obj 451 498 ctlout 113 1;
#X obj 554 497 ctlout 114 1;
#X obj 655 498 ctlout 115 1;
#X obj 299 107 t b b;
#X floatatom 424 406 10 0 0 0 - - -, f 10;
#X obj 428 380 timer;
#X obj 427 350 t b b;
#X obj 529 33 bng 180 250 50 0 empty empty empty 17 7 0 10 -258113
-1 -1;
#X text 18 4 roli lightpad block to MDRNN predictive model - 2019;
#N canvas 2059 816 387 436 mdrnn-output 0;
#X obj 30 40 list trim;
#X obj 30 63 t a a;
#X obj 30 18 r \$0-input;
#X obj 37 181 unpack f f;
#X obj 151 180 print note;
#X floatatom 102 294 0 0 0 0 - - -;
#X floatatom 205 297 0 0 0 0 - - -;
#X floatatom 37 295 5 0 0 0 - - -, f 5;
#X obj 54 230 noteout 1;
#X obj 29 321 bendout 1;
#X obj 102 320 touchout 1;
#X obj 237 58 vsl 15 128 -1024 1024 0 0 empty empty empty 0 -9 0 10
-262144 -1 -1 0 1;
#X obj 34 105 touch_to_notes 24 37;
#X obj 190 321 ctlout 109 1;
#X obj 203 252 * 127;
#X obj 204 275 int;
#X obj 94 347 ctlout 111 1;
#X text 85 382 MDRNN output \, channel 1;
#X connect 0 0 1 0;
#X connect 1 0 12 0;
#X connect 2 0 0 0;
#X connect 3 0 8 0;
#X connect 3 1 8 1;
#X connect 5 0 10 0;
#X connect 5 0 16 0;
#X connect 6 0 13 0;
#X connect 7 0 9 0;
#X connect 11 0 7 0;
#X connect 12 0 3 0;
#X connect 12 0 4 0;
#X connect 12 1 7 0;
#X connect 12 2 5 0;
#X connect 12 3 14 0;
#X connect 14 0 15 0;
#X connect 15 0 6 0;
#X restore 16 477 pd mdrnn-output;
#N canvas 2301 770 450 300 test_block_ui 0;
#X obj 19 25 inlet;
#X msg 93 86 64;
#X obj 130 124 t f f f;
#X text 45 138 x;
#X text 138 137 y;
#X text 224 138 z;
#X obj 43 158 ctlout 113 17;
#X obj 136 158 ctlout 114 17;
#X obj 241 161 ctlout 115 17;
#X obj 94 62 delay 1000;
#X connect 0 0 9 0;
#X connect 1 0 2 0;
#X connect 2 0 6 0;
#X connect 2 1 7 0;
#X connect 2 2 8 0;
#X connect 9 0 1 0;
#X restore 396 267 pd test_block_ui;
#N canvas 2290 357 408 533 block_to_notes 0;
#X obj 61 51 list trim;
#X obj 61 74 t a a;
#X obj 68 192 unpack f f;
#X floatatom 133 305 0 0 0 0 - - -;
#X floatatom 236 308 0 0 0 0 - - -;
#X floatatom 68 306 5 0 0 0 - - -, f 5;
#X obj 268 69 vsl 15 128 -1024 1024 0 0 empty empty empty 0 -9 0 10
-262144 -1 -1 0 1;
#X obj 65 116 touch_to_notes 24 37;
#X obj 234 263 * 127;
#X obj 235 286 int;
#X obj 92 451 block-tester block_direct;
#X obj 61 29 r block_direct-input;
#X obj 41 416 ctlin 113 1;
#X obj 144 415 ctlin 114 1;
#X obj 245 416 ctlin 115 1;
#X obj 85 241 noteout 2;
#X obj 60 332 bendout 2;
#X obj 133 331 touchout 2;
#X obj 221 332 ctlout 109 2;
#X obj 125 358 ctlout 111 2;
#X text 94 389 block output \, channel 2;
#X connect 0 0 1 0;
#X connect 1 0 7 0;
#X connect 2 0 15 0;
#X connect 2 1 15 1;
#X connect 3 0 17 0;
#X connect 3 0 19 0;
#X connect 4 0 18 0;
#X connect 5 0 16 0;
#X connect 6 0 5 0;
#X connect 7 0 2 0;
#X connect 7 1 5 0;
#X connect 7 2 3 0;
#X connect 7 3 8 0;
#X connect 8 0 9 0;
#X connect 9 0 4 0;
#X connect 11 0 0 0;
#X connect 12 0 10 0;
#X connect 13 0 10 1;
#X connect 14 0 10 2;
#X restore 19 451 pd block_to_notes;
#X connect 0 0 23 0;
#X connect 1 0 0 0;
#X connect 2 0 24 0;
#X connect 3 0 2 0;
#X connect 4 0 25 0;
#X connect 4 0 50 0;
#X connect 5 0 4 0;
#X connect 10 0 11 0;
#X connect 11 0 9 0;
#X connect 12 0 14 0;
#X connect 13 0 12 0;
#X connect 14 0 19 0;
#X connect 15 0 54 0;
#X connect 18 0 16 0;
#X connect 19 0 20 0;
#X connect 20 0 10 0;
#X connect 21 0 9 0;
#X connect 22 0 9 0;
#X connect 23 0 13 0;
#X connect 24 0 12 1;
#X connect 25 0 14 1;
#X connect 26 0 28 0;
#X connect 27 0 26 0;
#X connect 28 0 29 0;
#X connect 29 0 31 0;
#X connect 30 0 43 0;
#X connect 30 0 44 0;
#X connect 30 0 47 0;
#X connect 31 0 53 0;
#X connect 31 1 40 0;
#X connect 31 2 41 0;
#X connect 31 3 42 0;
#X connect 32 0 30 0;
#X connect 33 0 45 0;
#X connect 33 0 48 0;
#X connect 33 0 43 1;
#X connect 34 0 33 0;
#X connect 35 0 46 0;
#X connect 35 0 49 0;
#X connect 35 0 43 2;
#X connect 36 0 35 0;
#X connect 40 0 32 0;
#X connect 41 0 34 0;
#X connect 42 0 36 0;
#X connect 50 0 18 0;
#X connect 50 1 18 1;
#X connect 52 0 51 0;
#X connect 53 0 52 0;
#X connect 53 1 52 1;
#X connect 54 0 21 0;
#X connect 54 0 27 0;
#X connect 54 0 57 0;
