#N canvas 194 352 450 300 10;
#X obj 130 203 dac~;
#X obj 129 73 osc~ 440;
#X obj 151 143 minienv;
#X obj 133 97 *~ 0.3;
#X obj 220 84 tgl 15 0 empty empty empty 17 7 0 10 -262144 -1 -1 0
1;
#X obj 248 84 bng 15 250 50 0 empty empty empty 17 7 0 10 -262144 -1
-1;
#X obj 289 40 vsl 15 128 0 1 0 0 empty empty empty 0 -9 0 10 -262144
-1 -1 800 1;
#X connect 1 0 3 0;
#X connect 2 0 0 0;
#X connect 2 0 0 1;
#X connect 3 0 2 0;
#X connect 4 0 2 1;
#X connect 5 0 2 2;
#X connect 6 0 2 3;
