#N canvas 265 229 746 387 10;
#X obj 113 11 inlet;
#X obj 134 41 route /x /y /z /m;
#X floatatom 421 214 5 0 0 0 - - -, f 5;
#X obj 486 170 * 350;
#X obj 486 192 + 50;
#X obj 30 106 s \$0-pitch;
#X obj 414 235 s \$0-vel;
#X obj 486 214 s \$0-dur;
#N canvas 772 362 450 300 delta_x 0;
#X obj 63 33 inlet;
#X obj 224 33 inlet;
#X obj 197 226 outlet;
#X obj 169 162 -;
#X obj 223 63 sel 0;
#X msg 231 184 0;
#X obj 200 90 t b;
#X obj 188 64 t b;
#X obj 36 75 f;
#X text 71 75 input buf;
#X text 195 162 minus saved;
#X obj 168 129 f;
#X floatatom 17 34 5 0 0 0 - - -, f 5;
#X floatatom 39 109 5 0 0 0 - - -, f 5;
#X floatatom 94 173 5 0 0 0 - - -, f 5;
#X connect 0 0 8 1;
#X connect 0 0 11 1;
#X connect 0 0 12 0;
#X connect 1 0 4 0;
#X connect 3 0 2 0;
#X connect 3 0 14 0;
#X connect 4 0 5 0;
#X connect 4 0 7 0;
#X connect 4 1 6 0;
#X connect 5 0 2 0;
#X connect 6 0 11 0;
#X connect 7 0 8 0;
#X connect 8 0 3 1;
#X connect 8 0 13 0;
#X connect 11 0 3 0;
#X restore 136 257 pd delta_x;
#N canvas 611 170 450 300 delta_y 0;
#X obj 63 33 inlet;
#X obj 224 33 inlet;
#X obj 197 226 outlet;
#X obj 170 187 abs;
#X obj 169 162 -;
#X obj 223 63 sel 0;
#X msg 231 184 0;
#X obj 200 90 t b;
#X obj 188 64 t b;
#X obj 36 75 f;
#X text 71 75 input buf;
#X text 195 162 minus saved;
#X obj 168 129 f;
#X connect 0 0 9 1;
#X connect 0 0 12 1;
#X connect 1 0 5 0;
#X connect 3 0 2 0;
#X connect 4 0 3 0;
#X connect 5 0 6 0;
#X connect 5 0 8 0;
#X connect 5 1 7 0;
#X connect 6 0 2 0;
#X connect 7 0 12 0;
#X connect 8 0 9 0;
#X connect 9 0 4 1;
#X connect 12 0 4 0;
#X restore 228 259 pd delta_y;
#X obj 145 285 * 12;
#N canvas 709 204 613 371 note_proc 0;
#X obj 86 311 outlet;
#X obj 94 148 t b b b;
#X obj 95 180 f;
#X obj 125 179 f;
#X obj 156 179 f;
#X obj 103 241 pack 0 0;
#X obj 165 107 r \$0-pitch;
#X obj 165 129 r \$0-vel;
#X obj 165 153 r \$0-dur;
#X obj 175 45 sel 0;
#N canvas 867 256 450 300 delayed_note_off 0;
#X obj 129 19 inlet;
#X obj 128 191 outlet;
#X obj 152 76 delay 300;
#X obj 126 131 f;
#X msg 161 134 0;
#X obj 153 100 t b b;
#X obj 131 156 pack 0 0;
#X obj 127 47 t f b;
#X obj 51 21 inlet;
#X connect 0 0 7 0;
#X connect 2 0 5 0;
#X connect 3 0 6 0;
#X connect 4 0 6 1;
#X connect 5 0 3 0;
#X connect 5 1 4 0;
#X connect 6 0 1 0;
#X connect 7 1 2 0;
#X connect 8 0 3 1;
#X restore 176 239 pd delayed_note_off;
#X obj 175 20 inlet;
#X obj 349 194 spigot;
#X obj 349 216 t b;
#X msg 373 164 0;
#X msg 405 166 1;
#X msg 350 239 0;
#X obj 405 297 t b;
#X obj 234 215 r \$0-pitch;
#X connect 1 0 2 0;
#X connect 1 1 3 0;
#X connect 1 2 4 0;
#X connect 2 0 5 0;
#X connect 2 0 10 0;
#X connect 3 0 5 1;
#X connect 5 0 0 0;
#X connect 6 0 2 1;
#X connect 7 0 3 1;
#X connect 8 0 4 1;
#X connect 9 0 1 0;
#X connect 9 0 14 0;
#X connect 9 1 12 0;
#X connect 10 0 0 0;
#X connect 10 0 17 0;
#X connect 11 0 9 0;
#X connect 12 0 13 0;
#X connect 13 0 16 0;
#X connect 14 0 12 1;
#X connect 15 0 12 1;
#X connect 16 0 9 0;
#X connect 17 0 15 0;
#X connect 18 0 10 1;
#X restore 42 231 pd note_proc;
#X obj 50 324 outlet;
#X obj 145 322 outlet;
#X obj 229 323 outlet;
#X obj 294 320 outlet;
#X floatatom 228 285 5 0 0 0 - - -, f 5;
#X floatatom 179 286 5 0 0 0 - - -, f 5;
#X text 252 7 touch messages;
#X text 29 345 midi notes;
#X text 139 347 bend;
#X text 225 348 delta y;
#X text 295 349 pressure;
#X obj 414 169 * 60;
#X obj 413 191 + 65;
#N canvas 580 22 795 603 location_filter 0;
#X obj 169 106 route /x /y;
#X text 283 69 order is x \, y \, z \, m;
#X obj 80 136 moses 0.5;
#X msg 73 165 left;
#X msg 122 165 right;
#X obj 205 165 moses 0.5;
#X msg 210 193 top;
#X msg 253 194 bottom;
#X obj 177 241 list append;
#X obj 72 350 route top bottom;
#X obj 86 390 route left right;
#X obj 193 390 route left right;
#X obj 95 290 list trim;
#X obj 163 61 inlet;
#X obj 127 540 outlet, f 15;
#X msg 187 453 36;
#X msg 88 448 38;
#X msg 233 452 42;
#X msg 140 457 46;
#X msg 270 453 39;
#X text 320 421 36 BD 38 SD 42 hat 46 open hat 39 clap;
#X connect 0 0 2 0;
#X connect 0 1 5 0;
#X connect 2 0 3 0;
#X connect 2 1 4 0;
#X connect 3 0 8 1;
#X connect 4 0 8 1;
#X connect 5 0 6 0;
#X connect 5 1 7 0;
#X connect 6 0 8 0;
#X connect 7 0 8 0;
#X connect 8 0 12 0;
#X connect 9 0 10 0;
#X connect 9 1 11 0;
#X connect 10 0 16 0;
#X connect 10 1 18 0;
#X connect 11 0 15 0;
#X connect 11 1 17 0;
#X connect 12 0 9 0;
#X connect 13 0 0 0;
#X connect 15 0 14 0;
#X connect 16 0 14 0;
#X connect 17 0 14 0;
#X connect 18 0 14 0;
#X connect 19 0 14 0;
#X restore 30 81 pd location_filter;
#X floatatom 58 51 5 0 0 0 - - -, f 5;
#X obj 176 18 t a a;
#N canvas 1117 152 636 544 delta_xy 0;
#X obj 487 26 inlet;
#X obj 433 180 abs;
#X obj 432 155 -;
#X obj 486 56 sel 0;
#X msg 494 177 0;
#X obj 463 83 t b;
#X obj 451 57 t b;
#X obj 299 68 f;
#X text 334 68 input buf;
#X text 458 155 minus saved;
#X obj 431 122 f;
#X obj 157 180 abs;
#X obj 156 155 -;
#X obj 210 56 sel 0;
#X msg 218 177 0;
#X obj 187 83 t b;
#X obj 175 57 t b;
#X obj 23 68 f;
#X text 58 68 input buf;
#X text 182 155 minus saved;
#X obj 155 122 f;
#X obj 460 219 t a;
#X obj 184 219 t a;
#X obj 50 26 inlet x;
#X obj 327 26 inlet y;
#X obj 321 506 outlet;
#X obj 329 334 sqrt;
#X obj 426 285 pow 2;
#X obj 313 310 +;
#X obj 222 258 pow 2;
#X obj 291 372 / 1.414;
#X obj 311 427 min 1;
#X connect 0 0 3 0;
#X connect 0 0 13 0;
#X connect 1 0 21 0;
#X connect 2 0 1 0;
#X connect 3 0 4 0;
#X connect 3 0 6 0;
#X connect 3 1 5 0;
#X connect 4 0 21 0;
#X connect 5 0 10 0;
#X connect 6 0 7 0;
#X connect 7 0 2 1;
#X connect 10 0 2 0;
#X connect 11 0 22 0;
#X connect 12 0 11 0;
#X connect 13 0 14 0;
#X connect 13 0 16 0;
#X connect 13 1 15 0;
#X connect 14 0 22 0;
#X connect 15 0 20 0;
#X connect 16 0 17 0;
#X connect 17 0 12 1;
#X connect 20 0 12 0;
#X connect 21 0 27 0;
#X connect 22 0 29 0;
#X connect 23 0 17 1;
#X connect 23 0 20 1;
#X connect 24 0 7 1;
#X connect 24 0 10 1;
#X connect 26 0 30 0;
#X connect 27 0 28 1;
#X connect 28 0 26 0;
#X connect 29 0 28 0;
#X connect 30 0 31 0;
#X connect 31 0 25 0;
#X restore 381 93 pd delta_xy;
#X obj 392 320 outlet dxy;
#X obj 395 285 * 12;
#X connect 0 0 27 0;
#X connect 1 0 8 0;
#X connect 1 0 28 0;
#X connect 1 1 3 0;
#X connect 1 1 9 0;
#X connect 1 1 23 0;
#X connect 1 1 28 1;
#X connect 1 2 15 0;
#X connect 1 2 28 2;
#X connect 1 3 8 1;
#X connect 1 3 11 0;
#X connect 1 3 9 1;
#X connect 3 0 4 0;
#X connect 4 0 7 0;
#X connect 8 0 10 0;
#X connect 8 0 17 0;
#X connect 9 0 16 0;
#X connect 9 0 14 0;
#X connect 10 0 13 0;
#X connect 11 0 12 0;
#X connect 23 0 24 0;
#X connect 24 0 2 0;
#X connect 24 0 6 0;
#X connect 25 0 26 0;
#X connect 25 0 5 0;
#X connect 27 0 1 0;
#X connect 27 1 25 0;
#X connect 28 0 30 0;
#X connect 30 0 29 0;
