#N canvas 0 22 326 393 10;
#X obj 31 121 hsl 128 15 0 1 0 0 empty empty empty -2 -8 0 10 -262144
-1 -1 0 1;
#X obj 155 -28 vsl 15 128 1 0 0 0 empty empty empty 0 -9 0 10 -262144
-1 -1 0 1;
#X obj 106 164 f;
#X obj 145 164 f;
#X obj 67 30 bng 15 250 50 0 empty empty empty 17 7 0 10 -262144 -1
-1;
#X msg 36 209 /x \$1;
#X msg 164 219 /y \$1;
#X floatatom 44 258 5 0 0 0 - - -, f 5;
#X floatatom 157 257 5 0 0 0 - - -, f 5;
#X msg 228 212 /m 0;
#X obj 73 62 t b b b;
#X obj 102 295 s \$1-input;
#X connect 0 0 2 1;
#X connect 1 0 3 1;
#X connect 2 0 7 0;
#X connect 2 0 5 0;
#X connect 3 0 8 0;
#X connect 3 0 6 0;
#X connect 4 0 10 0;
#X connect 5 0 11 0;
#X connect 6 0 11 0;
#X connect 9 0 11 0;
#X connect 10 0 9 0;
#X connect 10 1 2 0;
#X connect 10 2 3 0;
