#N canvas 0 23 746 387 10;
#X obj 134 16 inlet;
#X obj 41 120 int;
#X obj 134 41 route /x /y /z /m;
#X floatatom 421 214 5 0 0 0 - - -, f 5;
#X obj 486 170 * 350;
#X obj 486 192 + 50;
#X obj 42 166 s \$0-pitch;
#X obj 414 235 s \$0-vel;
#X obj 486 214 s \$0-dur;
#N canvas 772 362 450 300 delta_x 0;
#X obj 63 33 inlet;
#X obj 224 33 inlet;
#X obj 197 226 outlet;
#X obj 169 162 -;
#X obj 223 63 sel 0;
#X msg 231 184 0;
#X obj 200 90 t b;
#X obj 188 64 t b;
#X obj 36 75 f;
#X text 71 75 input buf;
#X text 195 162 minus saved;
#X obj 168 129 f;
#X floatatom 17 34 5 0 0 0 - - -, f 5;
#X floatatom 39 109 5 0 0 0 - - -, f 5;
#X floatatom 94 173 5 0 0 0 - - -, f 5;
#X connect 0 0 8 1;
#X connect 0 0 11 1;
#X connect 0 0 12 0;
#X connect 1 0 4 0;
#X connect 3 0 2 0;
#X connect 3 0 14 0;
#X connect 4 0 5 0;
#X connect 4 0 7 0;
#X connect 4 1 6 0;
#X connect 5 0 2 0;
#X connect 6 0 11 0;
#X connect 7 0 8 0;
#X connect 8 0 3 1;
#X connect 8 0 13 0;
#X connect 11 0 3 0;
#X restore 136 257 pd delta_x;
#N canvas 772 362 450 300 delta_y 0;
#X obj 63 33 inlet;
#X obj 224 33 inlet;
#X obj 197 226 outlet;
#X obj 170 187 abs;
#X obj 169 162 -;
#X obj 223 63 sel 0;
#X msg 231 184 0;
#X obj 200 90 t b;
#X obj 188 64 t b;
#X obj 36 75 f;
#X text 71 75 input buf;
#X text 195 162 minus saved;
#X obj 168 129 f;
#X connect 0 0 9 1;
#X connect 0 0 12 1;
#X connect 1 0 5 0;
#X connect 3 0 2 0;
#X connect 4 0 3 0;
#X connect 5 0 6 0;
#X connect 5 0 8 0;
#X connect 5 1 7 0;
#X connect 6 0 2 0;
#X connect 7 0 12 0;
#X connect 8 0 9 0;
#X connect 9 0 4 1;
#X connect 12 0 4 0;
#X restore 228 259 pd delta_y;
#N canvas 0 23 613 371 note_proc 1;
#X obj 86 311 outlet;
#X obj 94 148 t b b b;
#X obj 95 180 f;
#X obj 125 179 f;
#X obj 156 179 f;
#X obj 103 241 pack 0 0;
#X obj 165 107 r \$0-pitch;
#X obj 165 129 r \$0-vel;
#X obj 165 153 r \$0-dur;
#X obj 175 45 sel 0;
#N canvas 867 256 450 300 delayed_note_off 0;
#X obj 129 19 inlet;
#X obj 128 191 outlet;
#X obj 126 131 f;
#X msg 161 134 0;
#X obj 153 100 t b b;
#X obj 131 156 pack 0 0;
#X obj 127 47 t f b;
#X obj 51 21 inlet;
#X obj 153 75 delay 25;
#X connect 0 0 6 0;
#X connect 2 0 5 0;
#X connect 3 0 5 1;
#X connect 4 0 2 0;
#X connect 4 1 3 0;
#X connect 5 0 1 0;
#X connect 6 1 8 0;
#X connect 7 0 2 1;
#X connect 8 0 4 0;
#X restore 176 239 pd delayed_note_off;
#X obj 175 20 inlet;
#X obj 349 194 spigot;
#X obj 349 216 t b;
#X msg 373 164 0;
#X msg 405 166 1;
#X msg 350 239 0;
#X obj 405 297 t b;
#X obj 234 215 r \$0-pitch;
#X obj 455 117 makenote;
#X connect 1 0 2 0;
#X connect 1 1 3 0;
#X connect 1 2 4 0;
#X connect 2 0 5 0;
#X connect 2 0 10 0;
#X connect 3 0 5 1;
#X connect 5 0 0 0;
#X connect 6 0 2 1;
#X connect 7 0 3 1;
#X connect 8 0 4 1;
#X connect 9 0 1 0;
#X connect 9 0 14 0;
#X connect 9 1 12 0;
#X connect 10 0 0 0;
#X connect 10 0 17 0;
#X connect 11 0 9 0;
#X connect 12 0 13 0;
#X connect 13 0 16 0;
#X connect 14 0 12 1;
#X connect 15 0 12 1;
#X connect 16 0 9 0;
#X connect 17 0 15 0;
#X connect 18 0 10 1;
#X restore 42 231 pd note_proc;
#X obj 50 324 outlet;
#X obj 145 337 outlet;
#X obj 229 323 outlet;
#X obj 294 320 outlet;
#X floatatom 239 285 5 0 0 0 - - -, f 5;
#X floatatom 179 286 5 0 0 0 - - -, f 5;
#X floatatom 80 143 5 0 0 0 - - -, f 5;
#X text 178 14 touch messages;
#X text 29 345 midi notes;
#X text 139 362 bend;
#X text 225 348 delta y;
#X text 295 349 pressure;
#X obj 42 95 * \$2;
#X obj 42 143 + \$1;
#X obj 414 169 * 80;
#X obj 413 191 + 47;
#X obj 348 266 * 127;
#X obj 112 285 * 1024;
#X connect 0 0 2 0;
#X connect 1 0 25 0;
#X connect 2 0 9 0;
#X connect 2 0 24 0;
#X connect 2 1 4 0;
#X connect 2 1 10 0;
#X connect 2 1 26 0;
#X connect 2 2 15 0;
#X connect 2 3 9 1;
#X connect 2 3 11 0;
#X connect 2 3 10 1;
#X connect 4 0 5 0;
#X connect 5 0 8 0;
#X connect 9 0 17 0;
#X connect 9 0 29 0;
#X connect 10 0 16 0;
#X connect 10 0 28 0;
#X connect 11 0 12 0;
#X connect 24 0 1 0;
#X connect 25 0 6 0;
#X connect 25 0 18 0;
#X connect 26 0 27 0;
#X connect 27 0 3 0;
#X connect 27 0 7 0;
#X connect 28 0 14 0;
#X connect 29 0 13 0;
