#N canvas 2955 293 1400 834 10;
#X obj 105 122 vsl 30 128 0 127 0 0 empty empty empty 0 -9 0 10 -259674
-1 -1 0 1;
#X obj 102 605 t f b;
#X obj 116 675 + 0;
#X obj 154 122 vsl 30 128 0 127 0 0 empty empty empty 0 -9 0 10 -261338
-1 -1 0 1;
#X obj 151 605 t f b;
#X obj 204 121 vsl 30 128 0 127 0 0 empty empty empty 0 -9 0 10 -262106
-1 -1 0 1;
#X obj 202 605 t f b;
#X obj 256 122 vsl 30 128 0 127 0 0 empty empty empty 0 -9 0 10 -212954
-1 -1 0 1;
#X obj 253 605 t f b;
#X obj 307 122 vsl 30 128 0 127 0 0 empty empty empty 0 -9 0 10 -106458
-1 -1 0 1;
#X obj 304 605 t f b;
#X obj 363 122 vsl 30 128 0 127 0 0 empty empty empty 0 -9 0 10 -106484
-1 -1 0 1;
#X obj 360 605 t f b;
#X obj 415 122 vsl 30 128 0 127 0 0 empty empty empty 0 -9 0 10 -106496
-1 -1 0 1;
#X obj 412 605 t f b;
#X obj 470 122 vsl 30 128 0 127 0 0 empty empty empty 0 -9 0 10 -105728
-1 -1 0 1;
#X obj 467 605 t f b;
#X obj 721 203 loadbang;
#X obj 165 675 + 1;
#X obj 217 676 + 2;
#X obj 267 675 + 3;
#X obj 318 675 + 4;
#X obj 374 675 + 5;
#X obj 426 675 + 6;
#X obj 481 674 + 7;
#X obj 791 260 print controls;
#X floatatom 508 237 5 0 0 2 channel #0-chbs -, f 5;
#X obj 802 208 f \$1;
#X obj 116 698 s \$0-ctl;
#X obj 165 698 s \$0-ctl;
#X obj 152 718 s \$0-val;
#X obj 103 718 s \$0-val;
#X obj 216 698 s \$0-ctl;
#X obj 267 698 s \$0-ctl;
#X obj 318 698 s \$0-ctl;
#X obj 374 698 s \$0-ctl;
#X obj 426 698 s \$0-ctl;
#X obj 481 698 s \$0-ctl;
#X obj 203 718 s \$0-val;
#X obj 254 718 s \$0-val;
#X obj 305 718 s \$0-val;
#X obj 361 718 s \$0-val;
#X obj 413 718 s \$0-val;
#X obj 468 718 s \$0-val;
#X obj 1007 100 ctlout 1;
#X obj 927 36 r \$0-val;
#X obj 1038 51 r \$0-ctl;
#X obj 104 66 * 127;
#X obj 104 43 inlet;
#X obj 151 66 * 127;
#X obj 151 43 inlet;
#X obj 199 67 * 127;
#X obj 199 44 inlet;
#X obj 251 67 * 127;
#X obj 251 44 inlet;
#X obj 301 66 * 127;
#X obj 301 43 inlet;
#X obj 356 67 * 127;
#X obj 356 44 inlet;
#X obj 408 67 * 127;
#X obj 408 44 inlet;
#X obj 463 66 * 127;
#X obj 463 43 inlet;
#X obj 255 13 r \$0-all;
#X obj 509 121 bng 30 250 50 0 empty empty empty 17 7 0 10 -104064
-1 -1;
#X obj 579 99 f 0;
#X obj 581 127 s \$0-all;
#X obj 510 162 tgl 30 0 empty empty empty 17 7 0 10 -210560 -1 -1 1
1;
#X msg 646 149 1;
#X obj 100 567 spigot;
#X obj 100 546 r \$0-tap;
#X obj 157 567 spigot;
#X obj 157 546 r \$0-tap;
#X obj 212 567 spigot;
#X obj 212 546 r \$0-tap;
#X obj 258 566 spigot;
#X obj 258 545 r \$0-tap;
#X obj 307 567 spigot;
#X obj 307 546 r \$0-tap;
#X obj 359 568 spigot;
#X obj 359 547 r \$0-tap;
#X obj 408 568 spigot;
#X obj 408 547 r \$0-tap;
#X obj 469 568 spigot;
#X obj 469 547 r \$0-tap;
#X obj 567 204 s \$0-tap;
#X obj 659 232 t b;
#X obj 657 267 s \$0-all;
#X obj 648 208 select 1;
#X obj 702 243 bng 15 250 50 0 empty empty empty 17 7 0 10 -262144
-1 -1;
#X obj 884 166 pack f f;
#X obj 884 189 s \$0-input;
#X obj 600 312 r \$0-input;
#X obj 628 382 + 0;
#X obj 601 412 route;
#X obj 601 438 outlet;
#X floatatom 558 442 5 0 0 0 - - -, f 5;
#X obj 116 652 f \$1;
#X obj 165 652 f \$1;
#X obj 216 652 f \$1;
#X obj 268 653 f \$1;
#X obj 318 652 f \$1;
#X obj 374 653 f \$1;
#X obj 426 652 f \$1;
#X obj 481 652 f \$1;
#X obj 629 360 f \$1;
#X obj 597 335 t a b;
#X obj 825 239 s \$0-chbs;
#X obj 704 310 r \$0-input;
#X obj 705 410 route;
#X obj 705 436 outlet;
#X floatatom 662 440 5 0 0 0 - - -, f 5;
#X obj 733 358 f \$1;
#X obj 701 333 t a b;
#X obj 732 380 + 1;
#X floatatom 844 164 5 0 0 0 - - -, f 5;
#X floatatom 951 169 5 0 0 0 - - -, f 5;
#X obj 901 127 ctlin;
#X obj 811 312 r \$0-input;
#X obj 812 412 route;
#X obj 812 438 outlet;
#X floatatom 769 442 5 0 0 0 - - -, f 5;
#X obj 840 360 f \$1;
#X obj 808 335 t a b;
#X obj 914 316 r \$0-input;
#X obj 915 416 route;
#X obj 915 442 outlet;
#X floatatom 872 446 5 0 0 0 - - -, f 5;
#X obj 943 364 f \$1;
#X obj 911 339 t a b;
#X obj 1015 314 r \$0-input;
#X obj 1016 414 route;
#X obj 1016 440 outlet;
#X floatatom 973 444 5 0 0 0 - - -, f 5;
#X obj 1044 362 f \$1;
#X obj 1012 337 t a b;
#X obj 1110 315 r \$0-input;
#X obj 1111 415 route;
#X obj 1111 441 outlet;
#X floatatom 1068 445 5 0 0 0 - - -, f 5;
#X obj 1139 363 f \$1;
#X obj 1107 338 t a b;
#X obj 1209 312 r \$0-input;
#X obj 1210 412 route;
#X obj 1210 438 outlet;
#X floatatom 1167 442 5 0 0 0 - - -, f 5;
#X obj 1238 360 f \$1;
#X obj 1206 335 t a b;
#X obj 1314 310 r \$0-input;
#X obj 1315 410 route;
#X obj 1315 436 outlet;
#X floatatom 1272 440 5 0 0 0 - - -, f 5;
#X obj 1343 358 f \$1;
#X obj 1311 333 t a b;
#X obj 839 382 + 2;
#X obj 942 386 + 3;
#X obj 1044 385 + 4;
#X obj 1139 385 + 5;
#X obj 1237 382 + 6;
#X obj 1342 380 + 7;
#X floatatom 935 18 5 0 0 0 - - -, f 5;
#X obj 1002 7 / 127;
#X obj 1002 31 * 12;
#X obj 1003 53 + 1;
#X obj 1039 74 + 8;
#X floatatom 1070 73 5 0 0 0 - - -, f 5;
#X floatatom 958 81 5 0 0 0 - - -, f 5;
#X obj 1004 76 int;
#X connect 0 0 69 0;
#X connect 1 0 31 0;
#X connect 1 1 97 0;
#X connect 2 0 28 0;
#X connect 3 0 71 0;
#X connect 4 0 30 0;
#X connect 4 1 98 0;
#X connect 5 0 73 0;
#X connect 6 0 38 0;
#X connect 6 1 99 0;
#X connect 7 0 75 0;
#X connect 8 0 39 0;
#X connect 8 1 100 0;
#X connect 9 0 77 0;
#X connect 10 0 40 0;
#X connect 10 1 101 0;
#X connect 11 0 79 0;
#X connect 12 0 41 0;
#X connect 12 1 102 0;
#X connect 13 0 81 0;
#X connect 14 0 42 0;
#X connect 14 1 103 0;
#X connect 15 0 83 0;
#X connect 16 0 43 0;
#X connect 16 1 104 0;
#X connect 17 0 27 0;
#X connect 17 0 68 0;
#X connect 18 0 29 0;
#X connect 19 0 32 0;
#X connect 20 0 33 0;
#X connect 21 0 34 0;
#X connect 22 0 35 0;
#X connect 23 0 36 0;
#X connect 24 0 37 0;
#X connect 27 0 25 0;
#X connect 27 0 107 0;
#X connect 45 0 160 0;
#X connect 45 0 161 0;
#X connect 46 0 164 0;
#X connect 47 0 0 0;
#X connect 48 0 47 0;
#X connect 49 0 3 0;
#X connect 50 0 49 0;
#X connect 51 0 5 0;
#X connect 52 0 51 0;
#X connect 53 0 7 0;
#X connect 54 0 53 0;
#X connect 55 0 9 0;
#X connect 56 0 55 0;
#X connect 57 0 11 0;
#X connect 58 0 57 0;
#X connect 59 0 13 0;
#X connect 60 0 59 0;
#X connect 61 0 15 0;
#X connect 62 0 61 0;
#X connect 63 0 15 0;
#X connect 63 0 13 0;
#X connect 63 0 11 0;
#X connect 63 0 9 0;
#X connect 63 0 7 0;
#X connect 63 0 5 0;
#X connect 63 0 3 0;
#X connect 63 0 0 0;
#X connect 64 0 65 0;
#X connect 65 0 66 0;
#X connect 67 0 85 0;
#X connect 67 0 88 0;
#X connect 68 0 67 0;
#X connect 69 0 1 0;
#X connect 70 0 69 1;
#X connect 71 0 4 0;
#X connect 72 0 71 1;
#X connect 73 0 6 0;
#X connect 74 0 73 1;
#X connect 75 0 8 0;
#X connect 76 0 75 1;
#X connect 77 0 10 0;
#X connect 78 0 77 1;
#X connect 79 0 12 0;
#X connect 80 0 79 1;
#X connect 81 0 14 0;
#X connect 82 0 81 1;
#X connect 83 0 16 0;
#X connect 84 0 83 1;
#X connect 86 0 87 0;
#X connect 88 0 86 0;
#X connect 88 0 89 0;
#X connect 90 0 91 0;
#X connect 90 0 25 0;
#X connect 92 0 106 0;
#X connect 93 0 94 1;
#X connect 94 0 95 0;
#X connect 94 0 96 0;
#X connect 96 0 0 0;
#X connect 97 0 2 0;
#X connect 98 0 18 0;
#X connect 99 0 19 0;
#X connect 100 0 20 0;
#X connect 101 0 21 0;
#X connect 102 0 22 0;
#X connect 103 0 23 0;
#X connect 104 0 24 0;
#X connect 105 0 93 0;
#X connect 106 0 94 0;
#X connect 106 1 105 0;
#X connect 108 0 113 0;
#X connect 109 0 110 0;
#X connect 109 0 111 0;
#X connect 111 0 3 0;
#X connect 112 0 114 0;
#X connect 113 0 109 0;
#X connect 113 1 112 0;
#X connect 114 0 109 1;
#X connect 117 0 115 0;
#X connect 117 0 90 1;
#X connect 117 1 116 0;
#X connect 117 1 90 0;
#X connect 118 0 123 0;
#X connect 119 0 120 0;
#X connect 119 0 121 0;
#X connect 121 0 5 0;
#X connect 122 0 154 0;
#X connect 123 0 119 0;
#X connect 123 1 122 0;
#X connect 124 0 129 0;
#X connect 125 0 126 0;
#X connect 125 0 127 0;
#X connect 127 0 7 0;
#X connect 128 0 155 0;
#X connect 129 0 125 0;
#X connect 129 1 128 0;
#X connect 130 0 135 0;
#X connect 131 0 132 0;
#X connect 131 0 133 0;
#X connect 133 0 9 0;
#X connect 134 0 156 0;
#X connect 135 0 131 0;
#X connect 135 1 134 0;
#X connect 136 0 141 0;
#X connect 137 0 138 0;
#X connect 137 0 139 0;
#X connect 139 0 11 0;
#X connect 140 0 157 0;
#X connect 141 0 137 0;
#X connect 141 1 140 0;
#X connect 142 0 147 0;
#X connect 143 0 144 0;
#X connect 143 0 145 0;
#X connect 145 0 13 0;
#X connect 146 0 158 0;
#X connect 147 0 143 0;
#X connect 147 1 146 0;
#X connect 148 0 153 0;
#X connect 149 0 150 0;
#X connect 149 0 151 0;
#X connect 151 0 15 0;
#X connect 152 0 159 0;
#X connect 153 0 149 0;
#X connect 153 1 152 0;
#X connect 154 0 119 1;
#X connect 155 0 125 1;
#X connect 156 0 131 1;
#X connect 157 0 137 1;
#X connect 158 0 143 1;
#X connect 159 0 149 1;
#X connect 161 0 162 0;
#X connect 162 0 163 0;
#X connect 163 0 167 0;
#X connect 164 0 165 0;
#X connect 164 0 44 1;
#X connect 167 0 44 0;
#X connect 167 0 166 0;
#X coords 0 -1 1 1 450 160 1 100 100;
