#N canvas 0 23 809 672 10;
#X obj 109 43 x-touch-bank 1;
#N canvas 110 287 850 380 osc_sending 0;
#X obj 58 23 inlet;
#X obj 72 95 f;
#X obj 58 46 t b f;
#X obj 552 75 t b b b b b b b b;
#X obj 551 53 r sosc;
#X obj 57 71 s sosc;
#X obj 125 22 inlet;
#X obj 139 94 f;
#X obj 125 45 t b f;
#X obj 124 70 s sosc;
#X obj 190 24 inlet;
#X obj 204 96 f;
#X obj 190 47 t b f;
#X obj 189 72 s sosc;
#X obj 249 20 inlet;
#X obj 263 92 f;
#X obj 249 43 t b f;
#X obj 248 68 s sosc;
#X obj 307 22 inlet;
#X obj 321 94 f;
#X obj 307 45 t b f;
#X obj 306 70 s sosc;
#X obj 363 23 inlet;
#X obj 377 95 f;
#X obj 363 46 t b f;
#X obj 362 71 s sosc;
#X obj 419 22 inlet;
#X obj 433 94 f;
#X obj 419 45 t b f;
#X obj 418 70 s sosc;
#X obj 476 23 inlet;
#X obj 490 95 f;
#X obj 476 46 t b f;
#X obj 475 71 s sosc;
#X obj 213 135 pack f f f f f f f f;
#X obj 184 268 netsend -u -b;
#X obj 187 217 list prepend send;
#X obj 187 242 list trim;
#X obj 186 171 list trim;
#X obj 186 193 oscformat interface;
#X msg 291 243 connect localhost 5001;
#X msg 311 267 disconnect;
#X obj 757 62 bng 15 250 50 0 empty empty empty 17 7 0 10 -262144 -1
-1;
#X obj 751 29 loadbang;
#X obj 693 21 inlet;
#X connect 0 0 2 0;
#X connect 1 0 34 0;
#X connect 2 0 5 0;
#X connect 2 1 1 1;
#X connect 3 0 1 0;
#X connect 3 1 7 0;
#X connect 3 2 11 0;
#X connect 3 3 15 0;
#X connect 3 4 19 0;
#X connect 3 5 23 0;
#X connect 3 6 27 0;
#X connect 3 7 31 0;
#X connect 4 0 3 0;
#X connect 6 0 8 0;
#X connect 7 0 34 1;
#X connect 8 0 9 0;
#X connect 8 1 7 1;
#X connect 10 0 12 0;
#X connect 11 0 34 2;
#X connect 12 0 13 0;
#X connect 12 1 11 1;
#X connect 14 0 16 0;
#X connect 15 0 34 3;
#X connect 16 0 17 0;
#X connect 16 1 15 1;
#X connect 18 0 20 0;
#X connect 19 0 34 4;
#X connect 20 0 21 0;
#X connect 20 1 19 1;
#X connect 22 0 24 0;
#X connect 23 0 34 5;
#X connect 24 0 25 0;
#X connect 24 1 23 1;
#X connect 26 0 28 0;
#X connect 27 0 34 6;
#X connect 28 0 29 0;
#X connect 28 1 27 1;
#X connect 30 0 32 0;
#X connect 31 0 34 7;
#X connect 32 0 33 0;
#X connect 32 1 31 1;
#X connect 34 0 38 0;
#X connect 36 0 37 0;
#X connect 37 0 35 0;
#X connect 38 0 39 0;
#X connect 39 0 36 0;
#X connect 40 0 35 0;
#X connect 41 0 35 0;
#X connect 42 0 40 0;
#X connect 43 0 42 0;
#X connect 44 0 42 0;
#X restore 323 310 pd osc_sending;
#X obj 439 281 bng 50 250 50 0 empty empty empty 17 7 0 10 -262144
-1 -1;
#X connect 0 0 1 0;
#X connect 0 1 1 1;
#X connect 0 2 1 2;
#X connect 0 3 1 3;
#X connect 0 4 1 4;
#X connect 0 5 1 5;
#X connect 0 6 1 6;
#X connect 0 7 1 7;
#X connect 2 0 1 8;
