#N canvas 300 369 860 622 10;
#X obj 83 96 inlet~;
#X obj 86 412 minienv~;
#X obj 115 324 t b;
#X obj 131 380 r envlev;
#X obj 94 323 bng 15 250 50 0 empty empty empty 17 7 0 10 -262144 -1
-1;
#X obj 132 296 changen;
#X obj 265 150 f;
#X obj 273 124 select 0;
#X floatatom 264 181 5 0 0 0 - - -;
#X obj 237 92 notein 11;
#X obj 265 202 - 8;
#X obj 86 498 outlet~;
#X obj 116 261 select \$1;
#X obj 208 479 makenote;
#X msg 223 444 1;
#X obj 198 409 t f b b;
#X obj 217 513 noteout 1;
#X obj 475 238 f;
#X obj 505 236 + 1;
#X obj 504 256 % 2;
#X obj 475 218 bng 15 250 50 0 empty empty empty 17 7 0 10 -262144
-1 -1;
#X obj 475 259 tgl 15 0 empty empty empty 17 7 0 10 -262144 -1 -1 0
1;
#X obj 474 300 t b f;
#X obj 477 369 noteout 1;
#X obj 130 96 inlet;
#X obj 264 223 s \$0-notoff;
#X obj 116 240 r \$0-notoff;
#X obj 475 175 r \$0-notoff;
#X obj 476 196 select;
#X obj 503 103 loadbang;
#X obj 481 98 bng 15 250 50 0 empty empty empty 17 7 0 10 -262144 -1
-1;
#X obj 504 150 + 8;
#X obj 100 358 r \$0-envbyp;
#X obj 517 300 s \$0-envbyp;
#X obj 498 127 f \$1;
#X obj 198 357 f \$1;
#X obj 474 343 + 8;
#X obj 474 322 f \$1;
#X obj 271 417 f;
#X obj 610 101 loadbang;
#X obj 102 451 s \$0-totalgate;
#X obj 260 381 r \$0-totalgate;
#X msg 609 122 0.1;
#X obj 611 149 s \$0-envlev;
#X obj 200 311 r \$0-envlev;
#X connect 0 0 1 0;
#X connect 1 0 11 0;
#X connect 1 1 40 0;
#X connect 2 0 1 2;
#X connect 2 0 4 0;
#X connect 2 0 35 0;
#X connect 3 0 1 3;
#X connect 5 0 2 0;
#X connect 6 0 8 0;
#X connect 7 0 6 0;
#X connect 8 0 10 0;
#X connect 9 0 6 1;
#X connect 9 1 7 0;
#X connect 10 0 25 0;
#X connect 12 0 2 0;
#X connect 13 0 16 0;
#X connect 13 1 16 1;
#X connect 14 0 13 1;
#X connect 15 0 13 0;
#X connect 15 1 14 0;
#X connect 15 2 38 0;
#X connect 17 0 18 0;
#X connect 17 0 21 0;
#X connect 18 0 19 0;
#X connect 19 0 17 1;
#X connect 20 0 17 0;
#X connect 21 0 22 0;
#X connect 21 0 33 0;
#X connect 22 0 37 0;
#X connect 22 1 23 1;
#X connect 24 0 5 0;
#X connect 26 0 12 0;
#X connect 27 0 28 0;
#X connect 28 0 20 0;
#X connect 29 0 34 0;
#X connect 30 0 34 0;
#X connect 31 0 28 1;
#X connect 32 0 1 1;
#X connect 34 0 31 0;
#X connect 35 0 15 0;
#X connect 36 0 23 0;
#X connect 37 0 36 0;
#X connect 38 0 13 2;
#X connect 39 0 42 0;
#X connect 41 0 38 1;
#X connect 42 0 43 0;
#X connect 44 0 1 3;
