#N canvas 1109 53 666 232 10;
#X obj 7 8 x-touch-bank 1;
#N canvas 834 63 888 381 osc_sending 0;
#X obj 58 23 inlet;
#X obj 61 149 f;
#X obj 58 46 t b f;
#X obj 552 127 t b b b b b b b b;
#X obj 551 105 r sosc;
#X obj 57 71 s sosc;
#X obj 128 148 f;
#X obj 193 150 f;
#X obj 252 146 f;
#X obj 310 148 f;
#X obj 366 149 f;
#X obj 422 148 f;
#X obj 479 149 f;
#X obj 202 189 pack f f f f f f f f;
#X obj 179 341 netsend -u -b;
#X obj 182 290 list prepend send;
#X obj 182 315 list trim;
#X obj 181 244 list trim;
#X obj 181 266 oscformat interface;
#X msg 286 316 connect localhost 5001;
#X msg 306 340 disconnect;
#X obj 757 62 bng 15 250 50 0 empty empty empty 17 7 0 10 -262144 -1
-1;
#X obj 751 29 loadbang;
#X obj 693 21 inlet;
#X obj 35 268 s emg;
#X obj 60 91 / 127;
#X obj 120 23 inlet;
#X obj 120 46 t b f;
#X obj 119 71 s sosc;
#X obj 122 91 / 127;
#X obj 188 21 inlet;
#X obj 188 44 t b f;
#X obj 187 69 s sosc;
#X obj 190 89 / 127;
#X obj 248 25 inlet;
#X obj 248 48 t b f;
#X obj 247 73 s sosc;
#X obj 250 93 / 127;
#X obj 306 26 inlet;
#X obj 306 49 t b f;
#X obj 305 74 s sosc;
#X obj 308 94 / 127;
#X obj 367 23 inlet;
#X obj 367 46 t b f;
#X obj 366 71 s sosc;
#X obj 369 91 / 127;
#X obj 424 24 inlet;
#X obj 424 47 t b f;
#X obj 423 72 s sosc;
#X obj 426 92 / 127;
#X obj 483 24 inlet;
#X obj 483 47 t b f;
#X obj 482 72 s sosc;
#X obj 485 92 / 127;
#X connect 0 0 2 0;
#X connect 1 0 13 0;
#X connect 2 0 5 0;
#X connect 2 1 25 0;
#X connect 3 0 1 0;
#X connect 3 1 6 0;
#X connect 3 2 7 0;
#X connect 3 3 8 0;
#X connect 3 4 9 0;
#X connect 3 5 10 0;
#X connect 3 6 11 0;
#X connect 3 7 12 0;
#X connect 4 0 3 0;
#X connect 6 0 13 1;
#X connect 7 0 13 2;
#X connect 8 0 13 3;
#X connect 9 0 13 4;
#X connect 10 0 13 5;
#X connect 11 0 13 6;
#X connect 12 0 13 7;
#X connect 13 0 17 0;
#X connect 13 0 24 0;
#X connect 15 0 16 0;
#X connect 16 0 14 0;
#X connect 17 0 18 0;
#X connect 18 0 15 0;
#X connect 19 0 14 0;
#X connect 20 0 14 0;
#X connect 21 0 19 0;
#X connect 22 0 21 0;
#X connect 23 0 21 0;
#X connect 25 0 1 1;
#X connect 26 0 27 0;
#X connect 27 0 28 0;
#X connect 27 1 29 0;
#X connect 29 0 6 1;
#X connect 30 0 31 0;
#X connect 31 0 32 0;
#X connect 31 1 33 0;
#X connect 33 0 7 1;
#X connect 34 0 35 0;
#X connect 35 0 36 0;
#X connect 35 1 37 0;
#X connect 37 0 8 1;
#X connect 38 0 39 0;
#X connect 39 0 40 0;
#X connect 39 1 41 0;
#X connect 41 0 9 1;
#X connect 42 0 43 0;
#X connect 43 0 44 0;
#X connect 43 1 45 0;
#X connect 45 0 10 1;
#X connect 46 0 47 0;
#X connect 47 0 48 0;
#X connect 47 1 49 0;
#X connect 49 0 11 1;
#X connect 50 0 51 0;
#X connect 51 0 52 0;
#X connect 51 1 53 0;
#X connect 53 0 12 1;
#X restore 186 192 pd osc_sending;
#X obj 485 10 bng 150 250 50 0 empty empty empty 17 7 0 10 -258113
-1 -1;
#N canvas 572 327 1250 946 synth-module 0;
#X obj 161 246 r emg;
#X obj 196 464 abs;
#X obj 178 509 *~;
#X obj 318 462 abs;
#X obj 300 507 *~;
#X obj 433 461 abs;
#X obj 415 506 *~;
#X obj 549 459 abs;
#X obj 531 504 *~;
#X obj 671 460 abs;
#X obj 653 505 *~;
#X obj 793 458 abs;
#X obj 775 503 *~;
#X obj 908 457 abs;
#X obj 890 502 *~;
#X obj 1024 455 abs;
#X obj 1006 500 *~;
#X obj 160 275 unpack f f f f f f f f;
#X obj 563 887 dac~ 1 2;
#X obj 318 484 lop~ 3;
#X obj 201 486 lop~ 3;
#X obj 433 483 lop~ 3;
#X obj 549 481 lop~ 3;
#X obj 671 482 lop~ 3;
#X obj 793 480 lop~ 3;
#X obj 908 479 lop~ 3;
#X obj 1024 477 lop~ 3;
#X obj 532 196 lop~ 3;
#N canvas 2528 528 1412 598 multipliers 0;
#X obj 243 298 1;
#X floatatom 409 66 5 0 0 0 - - -, f 5;
#X obj 291 298 +;
#X floatatom 242 323 5 0 0 0 - - -, f 5;
#X floatatom 292 324 5 0 0 0 - - -, f 5;
#X obj 338 297 +;
#X floatatom 339 323 5 0 0 0 - - -, f 5;
#X obj 387 296 +;
#X floatatom 387 320 5 0 0 0 - - -, f 5;
#X obj 444 293 +;
#X floatatom 444 319 5 0 0 0 - - -, f 5;
#X obj 500 293 +;
#X floatatom 500 319 5 0 0 0 - - -, f 5;
#X obj 559 292 +;
#X floatatom 559 318 5 0 0 0 - - -, f 5;
#X obj 613 294 +;
#X floatatom 613 320 5 0 0 0 - - -, f 5;
#X obj 410 93 / 1000;
#X obj 109 54 inlet;
#X obj 350 63 * 1000;
#X obj 352 38 + 1.01;
#X text 68 22 input -1 to 1;
#X obj 290 274 + 0.1;
#X obj 387 274 + 0.1;
#X obj 444 273 * 0.98;
#X obj 500 272 + 0.15;
#X obj 560 270 + 0.02;
#X obj 352 120 t b f f f f f f f f;
#X floatatom 292 121 5 0 0 0 - - -, f 5;
#X obj 125 189 * 3.14159;
#X obj 125 213 cos;
#X floatatom 124 234 5 0 0 0 - - -, f 5;
#X obj 122 143 - 1;
#X obj 124 166 * 2;
#X obj 1024 233 * 3.14159;
#X obj 1024 257 cos;
#X floatatom 1023 278 5 0 0 0 - - -, f 5;
#X obj 1021 187 - 1;
#X obj 1023 210 * 2;
#X obj 1283 45 inlet;
#X floatatom 973 76 5 0 0 0 - - -, f 5;
#X obj 974 103 / 1000;
#X obj 914 73 * 1000;
#X obj 916 130 t b f f f f f f f f;
#X floatatom 856 131 5 0 0 0 - - -, f 5;
#X obj 614 270 +;
#X obj 341 274 +;
#X obj 916 48 + 0.51;
#X obj 202 368 lop~ 3;
#X obj 192 405 outlet~;
#X obj 248 405 outlet~;
#X obj 305 405 outlet~;
#X obj 368 405 outlet~;
#X obj 444 402 outlet~;
#X obj 500 402 outlet~;
#X obj 558 401 outlet~;
#X obj 613 400 outlet~;
#X obj 251 367 lop~ 3;
#X obj 302 368 lop~ 3;
#X obj 361 370 lop~ 3;
#X obj 440 369 lop~ 3;
#X obj 497 368 lop~ 3;
#X obj 556 367 lop~ 3;
#X obj 617 367 lop~ 3;
#X connect 0 0 2 0;
#X connect 0 0 3 0;
#X connect 1 0 17 0;
#X connect 2 0 4 0;
#X connect 2 0 5 0;
#X connect 3 0 48 0;
#X connect 4 0 57 0;
#X connect 5 0 6 0;
#X connect 5 0 7 0;
#X connect 6 0 58 0;
#X connect 7 0 8 0;
#X connect 7 0 9 0;
#X connect 8 0 59 0;
#X connect 9 0 10 0;
#X connect 9 0 11 0;
#X connect 10 0 60 0;
#X connect 11 0 12 0;
#X connect 11 0 13 0;
#X connect 12 0 61 0;
#X connect 13 0 14 0;
#X connect 13 0 15 0;
#X connect 14 0 62 0;
#X connect 15 0 16 0;
#X connect 16 0 63 0;
#X connect 17 0 27 0;
#X connect 17 0 28 0;
#X connect 18 0 20 0;
#X connect 19 0 1 0;
#X connect 20 0 19 0;
#X connect 22 0 2 1;
#X connect 23 0 7 1;
#X connect 24 0 9 1;
#X connect 25 0 11 1;
#X connect 26 0 13 1;
#X connect 27 0 0 0;
#X connect 27 1 22 0;
#X connect 27 2 46 0;
#X connect 27 3 23 0;
#X connect 27 4 24 0;
#X connect 27 5 25 0;
#X connect 27 6 26 0;
#X connect 27 7 45 0;
#X connect 29 0 30 0;
#X connect 30 0 31 0;
#X connect 32 0 33 0;
#X connect 33 0 29 0;
#X connect 34 0 35 0;
#X connect 35 0 36 0;
#X connect 37 0 38 0;
#X connect 38 0 34 0;
#X connect 39 0 47 0;
#X connect 40 0 41 0;
#X connect 41 0 43 0;
#X connect 41 0 44 0;
#X connect 42 0 40 0;
#X connect 44 0 45 1;
#X connect 44 0 26 1;
#X connect 44 0 25 1;
#X connect 44 0 24 1;
#X connect 44 0 23 1;
#X connect 44 0 46 1;
#X connect 44 0 22 1;
#X connect 45 0 15 1;
#X connect 46 0 5 1;
#X connect 47 0 42 0;
#X connect 48 0 49 0;
#X connect 57 0 50 0;
#X connect 58 0 51 0;
#X connect 59 0 52 0;
#X connect 60 0 53 0;
#X connect 61 0 54 0;
#X connect 62 0 55 0;
#X connect 63 0 56 0;
#X restore 817 271 pd multipliers;
#X obj 129 437 *~;
#X obj 251 438 *~;
#X obj 366 436 *~;
#X obj 482 436 *~;
#X obj 604 437 *~;
#X obj 726 433 *~;
#X obj 841 432 *~;
#X obj 984 452 *~;
#X obj 129 464 osc~;
#X obj 251 462 osc~;
#X obj 366 461 osc~;
#X obj 482 459 osc~;
#X obj 604 460 osc~;
#X obj 726 458 osc~;
#X obj 841 457 osc~;
#X obj 985 475 osc~;
#N canvas 0 22 1240 788 distortion 0;
#X obj 138 41 inlet~;
#X obj 142 61 *~, f 2;
#X obj 601 160 inlet;
#X obj 713 162 inlet;
#X obj 801 160 inlet;
#X obj 895 162 inlet;
#X obj 99 267 *~;
#X obj 246 271 *~;
#X obj 400 271 *~;
#X text 114 518 metal zone! GET IN THE ZONE.;
#X text 598 135 dist;
#X obj 971 163 inlet;
#X obj 1065 165 inlet;
#X text 714 141 low;
#X text 804 138 mid;
#X text 888 136 high;
#X text 962 139 mid freq;
#X obj 971 192 vsl 15 128 0 1 0 0 empty empty empty 0 -9 0 10 -262144
-1 -1 2540 1;
#X obj 973 350 + 200;
#X obj 973 326 * 5000;
#X floatatom 975 374 5 0 0 0 - - -, f 5;
#X obj 416 231 hip~ 7000;
#X obj 718 384 dbtorms;
#X obj 715 197 vsl 15 128 -1 1 0 0 empty empty empty 0 -9 0 10 -262144
-1 -1 8572 1;
#X obj 715 337 * 15;
#X floatatom 718 406 9 0 0 0 - - -, f 9;
#X floatatom 740 311 5 0 0 0 - - -, f 5;
#X obj 717 360 + 100;
#X obj 805 379 dbtorms;
#X obj 802 192 vsl 15 128 -1 1 0 0 empty empty empty 0 -9 0 10 -262144
-1 -1 6350 1;
#X obj 802 332 * 15;
#X floatatom 805 401 9 0 0 0 - - -, f 9;
#X floatatom 827 306 5 0 0 0 - - -, f 5;
#X obj 804 355 + 100;
#X obj 888 380 dbtorms;
#X obj 885 193 vsl 15 128 -1 1 0 0 empty empty empty 0 -9 0 10 -262144
-1 -1 6985 1;
#X obj 885 333 * 15;
#X floatatom 888 402 9 0 0 0 - - -, f 9;
#X floatatom 910 307 5 0 0 0 - - -, f 5;
#X obj 887 356 + 100;
#X obj 246 234 bp~ 1000 4;
#X obj 237 374 *~;
#X obj 237 421 outlet~;
#X text 1065 141 outlet;
#X obj 1066 193 vsl 15 128 0 1 0 0 empty empty empty 0 -9 0 10 -262144
-1 -1 12700 1;
#X floatatom 1090 310 5 0 0 0 - - -, f 5;
#X obj 599 381 dbtorms;
#X obj 596 199 vsl 15 128 -1 1 0 0 empty empty empty 0 -9 0 10 -262144
-1 -1 12700 1;
#X floatatom 599 403 9 0 0 0 - - -, f 9;
#X floatatom 621 308 5 0 0 0 - - -, f 5;
#X obj 108 228 bp~ 200 3.1;
#X msg 741 48 0;
#X msg 791 47 0.1;
#X floatatom 997 300 5 0 0 0 - - -, f 5;
#X msg 835 46 0.2;
#X obj 715 13 loadbang;
#X msg 896 46 1;
#X msg 667 52 0.35;
#X obj 142 112 clip~ -1 1;
#X obj 598 357 + 120;
#X text 374 77 feedback delay loop;
#X msg 595 54 1;
#X text 242 109 distort stage;
#X text 216 60 gain;
#X obj 145 151 *~ 1;
#X obj 63 87 expr~ tanh($v1);
#X floatatom 558 436 5 0 0 0 - - -, f 5;
#X obj 596 334 * 30;
#X text 529 478 alternatively \, * 20;
#X connect 0 0 1 0;
#X connect 1 0 58 0;
#X connect 1 0 65 0;
#X connect 2 0 47 0;
#X connect 3 0 23 0;
#X connect 4 0 29 0;
#X connect 5 0 35 0;
#X connect 6 0 41 0;
#X connect 7 0 41 0;
#X connect 8 0 41 0;
#X connect 11 0 17 0;
#X connect 12 0 44 0;
#X connect 17 0 19 0;
#X connect 17 0 53 0;
#X connect 18 0 20 0;
#X connect 18 0 40 1;
#X connect 19 0 18 0;
#X connect 21 0 8 0;
#X connect 22 0 25 0;
#X connect 23 0 24 0;
#X connect 23 0 26 0;
#X connect 24 0 27 0;
#X connect 25 0 6 1;
#X connect 27 0 22 0;
#X connect 28 0 31 0;
#X connect 29 0 30 0;
#X connect 29 0 32 0;
#X connect 30 0 33 0;
#X connect 31 0 7 1;
#X connect 33 0 28 0;
#X connect 34 0 37 0;
#X connect 35 0 36 0;
#X connect 35 0 38 0;
#X connect 36 0 39 0;
#X connect 37 0 8 1;
#X connect 39 0 34 0;
#X connect 40 0 7 0;
#X connect 41 0 42 0;
#X connect 44 0 45 0;
#X connect 44 0 41 1;
#X connect 46 0 48 0;
#X connect 47 0 49 0;
#X connect 47 0 67 0;
#X connect 48 0 1 1;
#X connect 50 0 6 0;
#X connect 51 0 29 0;
#X connect 52 0 35 0;
#X connect 54 0 17 0;
#X connect 55 0 57 0;
#X connect 55 0 51 0;
#X connect 55 0 52 0;
#X connect 55 0 54 0;
#X connect 55 0 56 0;
#X connect 55 0 61 0;
#X connect 56 0 44 0;
#X connect 57 0 23 0;
#X connect 59 0 46 0;
#X connect 59 0 66 0;
#X connect 61 0 47 0;
#X connect 64 0 50 0;
#X connect 64 0 40 0;
#X connect 64 0 21 0;
#X connect 65 0 64 0;
#X connect 67 0 59 0;
#X restore 728 656 pd distortion;
#X obj 1042 78 * 3.14159;
#X obj 1042 102 cos;
#X floatatom 1000 125 9 0 0 0 - - -, f 9;
#X obj 1085 104 sin;
#X floatatom 1096 130 9 0 0 0 - - -, f 9;
#X obj 1041 53 * 1;
#N canvas 0 22 1440 856 compress 0;
#X obj 28 16 inlet~;
#X obj 28 769 outlet~;
#X obj 43 62 env~ 256;
#X obj 28 739 *~;
#X obj 43 679 pack f 40;
#X obj 43 709 line~;
#X obj 53 126 r \$0-graph-input;
#X obj 88 84 r \$0-switch;
#X obj 43 104 spigot 1;
#X text 112 679 40 ms attack/release;
#X obj 43 654 min 1;
#X obj 143 459 t b f;
#X obj 88 519 f;
#X obj 88 549 /;
#X obj 88 489 -;
#X obj 43 413 f;
#X obj 103 342 t b f f;
#X obj 88 579 +;
#X obj 103 248 \$1;
#X obj 276 247 \$2;
#X obj 103 270 t f f;
#X obj 103 156 loadbang;
#X obj 103 178 t b b;
#X obj 276 269 t f f;
#X obj 276 217 r \$0-ratio;
#X obj 111 217 r \$0-threshold;
#X obj 43 156 t f f;
#X text 120 549 Gain reduction;
#X obj 43 459 moses 70;
#X obj 103 459 t f f;
#N canvas 639 436 354 265 gainreduc 0;
#X obj 32 94 -;
#X obj 32 114 / 20;
#X obj 32 134 t b f;
#X msg 32 154 10;
#X obj 32 174 pow;
#X obj 32 34 inlet output;
#X obj 47 64 inlet input;
#X obj 32 206 outlet gain-reduction;
#X text 70 172 gr = 20*log10(output - input);
#X obj 141 64 r \$0-switch;
#X obj 141 86 sel 0;
#X msg 141 108 1;
#X text 174 109 If switched off \, no gr;
#X connect 0 0 1 0;
#X connect 1 0 2 0;
#X connect 2 0 3 0;
#X connect 2 1 4 1;
#X connect 3 0 4 0;
#X connect 4 0 7 0;
#X connect 5 0 0 0;
#X connect 6 0 0 1;
#X connect 9 0 10 0;
#X connect 10 0 11 0;
#X connect 11 0 7 0;
#X restore 43 629 pd gainreduc;
#X obj 157 294 print thresh;
#X obj 328 310 print ratio;
#X obj 195 139 bng 15 250 50 0 empty empty empty 17 7 0 10 -262144
-1 -1;
#X obj 268 43 inlet;
#X obj 270 66 unpack f f;
#X connect 0 0 2 0;
#X connect 0 0 3 0;
#X connect 2 0 8 0;
#X connect 3 0 1 0;
#X connect 4 0 5 0;
#X connect 5 0 3 1;
#X connect 6 0 26 0;
#X connect 7 0 8 1;
#X connect 8 0 26 0;
#X connect 10 0 4 0;
#X connect 11 0 12 0;
#X connect 11 1 13 1;
#X connect 12 0 13 0;
#X connect 13 0 17 0;
#X connect 14 0 12 0;
#X connect 15 0 28 0;
#X connect 16 0 15 0;
#X connect 16 1 28 1;
#X connect 16 2 29 0;
#X connect 17 0 30 0;
#X connect 18 0 20 0;
#X connect 19 0 23 0;
#X connect 20 0 16 0;
#X connect 20 1 31 0;
#X connect 21 0 22 0;
#X connect 22 0 18 0;
#X connect 22 1 19 0;
#X connect 23 0 11 0;
#X connect 23 1 32 0;
#X connect 24 0 19 0;
#X connect 25 0 18 0;
#X connect 26 0 15 0;
#X connect 26 1 30 1;
#X connect 28 0 30 0;
#X connect 28 1 14 0;
#X connect 29 0 14 1;
#X connect 29 1 17 1;
#X connect 30 0 10 0;
#X connect 33 0 22 0;
#X connect 34 0 35 0;
#X connect 35 0 18 0;
#X connect 35 1 19 0;
#X restore 579 763 pd compress 67 2;
#X msg 705 790 67 2;
#X obj 704 762 loadbang;
#N canvas 0 470 450 300 clean 0;
#X obj 58 27 inlet~;
#X obj 65 185 outlet~;
#X connect 0 0 1 0;
#X restore 459 666 pd clean;
#X obj 544 688 *~ 2;
#X obj 691 689 *~ 0.6;
#N canvas 0 22 601 428 crossfade 0;
#X obj 17 32 inlet~;
#X obj 81 32 inlet~;
#X obj 27 367 outlet~;
#X obj 37 219 cos~;
#X obj 110 219 cos~;
#X obj 118 130 hsl 100 15 0 0.25 0 0 empty empty empty -2 -8 0 10 -262144
-1 -1 4950 1;
#X floatatom 146 149 5 0 0 0 - - -, f 5;
#X obj 110 188 + 0.75;
#X obj 23 267 *~;
#X obj 96 269 *~;
#X obj 110 77 loadbang;
#X msg 110 101 0.125;
#X obj 186 93 * 0.25;
#X obj 176 31 inlet;
#X obj 348 49 r euler;
#X obj 347 71 unpack f f f;
#X obj 345 101 * 3.14159;
#X obj 345 125 cos;
#X floatatom 385 129 5 0 0 0 - - -, f 5;
#X floatatom 406 182 5 0 0 0 - - -, f 5;
#X obj 346 158 - 1;
#X obj 347 183 * -0.5;
#X floatatom 436 100 5 0 0 0 - - -, f 5;
#X obj 352 314 t f;
#X floatatom 401 351 5 0 0 0 - - -, f 5;
#X obj 330 265 t b;
#X obj 332 287 0;
#X obj 350 241 moses 0.15;
#X obj 407 267 - 0.15;
#X obj 406 290 * 1.17;
#X connect 0 0 8 0;
#X connect 1 0 9 0;
#X connect 3 0 8 1;
#X connect 4 0 9 1;
#X connect 5 0 6 0;
#X connect 5 0 3 0;
#X connect 5 0 7 0;
#X connect 7 0 4 0;
#X connect 8 0 2 0;
#X connect 9 0 2 0;
#X connect 10 0 11 0;
#X connect 11 0 5 0;
#X connect 12 0 5 0;
#X connect 13 0 12 0;
#X connect 14 0 15 0;
#X connect 15 0 16 0;
#X connect 15 0 22 0;
#X connect 16 0 17 0;
#X connect 17 0 18 0;
#X connect 17 0 20 0;
#X connect 20 0 21 0;
#X connect 21 0 19 0;
#X connect 21 0 27 0;
#X connect 23 0 24 0;
#X connect 23 0 12 0;
#X connect 25 0 26 0;
#X connect 26 0 23 0;
#X connect 27 0 25 0;
#X connect 27 1 28 0;
#X connect 28 0 29 0;
#X connect 29 0 23 0;
#X restore 582 726 pd crossfade;
#N canvas 0 255 450 300 ping 0;
#X obj 54 126 osc~ 440;
#X obj 279 13 inlet;
#X obj 68 95 vline~;
#X msg 64 64 1 50 \, 0 350 50;
#X obj 73 197 outlet~;
#X obj 156 139 *~;
#X obj 236 86 random 200;
#X obj 237 108 + 400;
#X obj 294 45 bng 15 250 50 0 empty empty empty 17 7 0 10 -262144 -1
-1;
#X obj 200 63 delay 50;
#X obj 190 18 r test_ping;
#X obj 72 161 *~ 0.7;
#X connect 0 0 5 0;
#X connect 1 0 8 0;
#X connect 2 0 5 1;
#X connect 3 0 2 0;
#X connect 5 0 11 0;
#X connect 6 0 7 0;
#X connect 7 0 0 0;
#X connect 8 0 6 0;
#X connect 8 0 9 0;
#X connect 9 0 3 0;
#X connect 10 0 8 0;
#X connect 11 0 4 0;
#X restore 493 722 pd ping;
#X obj 127 686 vu 30 200 master_snd empty -1 -8 0 10 -66577 -1 1 0
;
#X obj 499 819 env~;
#X floatatom 499 860 5 0 0 0 - - master_snd, f 5;
#X obj 499 839 - 100;
#X obj 1030 778 bng 100 250 50 0 test_ping empty test_ping 17 7 0 10
-260097 -1 -1;
#X obj 1030 757 loadbang;
#X floatatom 527 143 5 0 0 0 - - -, f 5;
#X obj 377 573 *~ 1;
#X obj 824 576 *~ 1;
#X obj 230 221 print;
#N canvas 0 23 471 391 listsum 0;
#X obj 19 131 until;
#X obj 67 61 list append;
#X obj 18 183 list split 1;
#X obj 18 159 list append;
#X obj 115 261 +;
#X obj 144 261 f;
#X obj 130 237 0;
#X obj 87 210 t b b;
#X obj 100 286 f;
#X obj 68 87 t b b l;
#X obj 100 308 outlet;
#X obj 65 17 inlet;
#X obj 66 38 t b l;
#X connect 0 0 3 0;
#X connect 1 0 9 0;
#X connect 2 0 4 0;
#X connect 2 1 3 1;
#X connect 2 2 7 0;
#X connect 3 0 2 0;
#X connect 4 0 5 0;
#X connect 4 0 8 1;
#X connect 5 0 4 1;
#X connect 6 0 4 1;
#X connect 7 0 8 0;
#X connect 7 1 0 1;
#X connect 8 0 10 0;
#X connect 9 0 0 0;
#X connect 9 1 6 0;
#X connect 9 2 3 1;
#X connect 11 0 12 0;
#X connect 12 0 1 0;
#X connect 12 1 1 1;
#X restore 782 92 pd listsum;
#X floatatom 799 125 5 0 0 0 - - -, f 5;
#X obj 1043 28 line;
#X msg 794 157 \$1 30;
#X obj 655 55 r emg;
#X obj 665 101 list split 4;
#N canvas 0 23 471 391 listsum 0;
#X obj 19 131 until;
#X obj 67 61 list append;
#X obj 18 183 list split 1;
#X obj 18 159 list append;
#X obj 115 261 +;
#X obj 144 261 f;
#X obj 130 237 0;
#X obj 87 210 t b b;
#X obj 100 286 f;
#X obj 68 87 t b b l;
#X obj 100 308 outlet;
#X obj 65 17 inlet;
#X obj 66 38 t b l;
#X connect 0 0 3 0;
#X connect 1 0 9 0;
#X connect 2 0 4 0;
#X connect 2 1 3 1;
#X connect 2 2 7 0;
#X connect 3 0 2 0;
#X connect 4 0 5 0;
#X connect 4 0 8 1;
#X connect 5 0 4 1;
#X connect 6 0 4 1;
#X connect 7 0 8 0;
#X connect 7 1 0 1;
#X connect 8 0 10 0;
#X connect 9 0 0 0;
#X connect 9 1 6 0;
#X connect 9 2 3 1;
#X connect 11 0 12 0;
#X connect 12 0 1 0;
#X connect 12 1 1 1;
#X restore 646 135 pd listsum;
#X floatatom 654 173 5 0 0 0 - - -, f 5;
#X obj 531 246 +~ 0;
#X obj 893 765 vsl 15 128 0 127 0 0 empty empty empty 0 -9 0 10 -262144
-1 -1 10600 1;
#X obj 889 738 ctlin 9;
#X obj 822 837 dbtorms;
#X obj 824 792 / 127;
#X obj 822 814 * 110;
#X floatatom 822 865 5 0 0 0 - - -, f 5;
#X obj 809 882 lop~ 3;
#X obj 579 787 *~;
#X obj 822 737 loadbang;
#X msg 840 760 64;
#X floatatom 963 731 5 0 0 0 - - -, f 5;
#X obj 1021 706 notein 11;
#X obj 1027 733 select 15;
#X floatatom 561 227 5 0 0 0 - - -, f 5;
#X obj 532 171 * 75;
#X connect 0 0 17 0;
#X connect 0 0 69 0;
#X connect 1 0 20 0;
#X connect 2 0 67 0;
#X connect 3 0 19 0;
#X connect 4 0 67 0;
#X connect 5 0 21 0;
#X connect 6 0 67 0;
#X connect 7 0 22 0;
#X connect 8 0 67 0;
#X connect 9 0 23 0;
#X connect 10 0 68 0;
#X connect 11 0 24 0;
#X connect 12 0 68 0;
#X connect 13 0 25 0;
#X connect 14 0 68 0;
#X connect 15 0 26 0;
#X connect 16 0 68 0;
#X connect 17 0 1 0;
#X connect 17 1 3 0;
#X connect 17 2 5 0;
#X connect 17 3 7 0;
#X connect 17 4 9 0;
#X connect 17 5 11 0;
#X connect 17 6 13 0;
#X connect 17 7 15 0;
#X connect 19 0 4 1;
#X connect 20 0 2 1;
#X connect 21 0 6 1;
#X connect 22 0 8 1;
#X connect 23 0 10 1;
#X connect 24 0 12 1;
#X connect 25 0 14 1;
#X connect 26 0 16 1;
#X connect 27 0 78 0;
#X connect 28 0 29 1;
#X connect 28 1 30 1;
#X connect 28 2 31 1;
#X connect 28 3 32 1;
#X connect 28 4 33 1;
#X connect 28 5 34 1;
#X connect 28 6 35 1;
#X connect 28 7 36 1;
#X connect 29 0 37 0;
#X connect 30 0 38 0;
#X connect 31 0 39 0;
#X connect 32 0 40 0;
#X connect 33 0 41 0;
#X connect 34 0 42 0;
#X connect 35 0 43 0;
#X connect 36 0 44 0;
#X connect 37 0 2 0;
#X connect 38 0 4 0;
#X connect 39 0 6 0;
#X connect 40 0 8 0;
#X connect 41 0 10 0;
#X connect 42 0 12 0;
#X connect 43 0 14 0;
#X connect 44 0 16 0;
#X connect 45 0 57 0;
#X connect 46 0 47 0;
#X connect 46 0 49 0;
#X connect 47 0 48 0;
#X connect 48 0 28 0;
#X connect 49 0 50 0;
#X connect 50 0 28 1;
#X connect 51 0 46 0;
#X connect 52 0 86 0;
#X connect 53 0 52 1;
#X connect 54 0 53 0;
#X connect 55 0 56 0;
#X connect 56 0 58 0;
#X connect 57 0 58 1;
#X connect 58 0 52 0;
#X connect 59 0 86 0;
#X connect 61 0 63 0;
#X connect 63 0 62 0;
#X connect 65 0 64 0;
#X connect 66 0 93 0;
#X connect 67 0 45 0;
#X connect 67 0 55 0;
#X connect 68 0 45 0;
#X connect 68 0 55 0;
#X connect 70 0 71 0;
#X connect 70 0 73 0;
#X connect 72 0 51 0;
#X connect 73 0 72 0;
#X connect 74 0 75 0;
#X connect 75 0 76 0;
#X connect 75 1 70 0;
#X connect 76 0 66 0;
#X connect 76 0 77 0;
#X connect 78 0 29 0;
#X connect 78 0 30 0;
#X connect 78 0 31 0;
#X connect 78 0 32 0;
#X connect 78 0 33 0;
#X connect 78 0 34 0;
#X connect 78 0 35 0;
#X connect 78 0 36 0;
#X connect 79 0 82 0;
#X connect 80 0 79 0;
#X connect 81 0 84 0;
#X connect 81 0 85 0;
#X connect 82 0 83 0;
#X connect 83 0 81 0;
#X connect 85 0 86 1;
#X connect 86 0 18 0;
#X connect 86 0 18 1;
#X connect 86 0 61 0;
#X connect 87 0 88 0;
#X connect 88 0 79 0;
#X connect 90 0 89 0;
#X connect 90 0 91 0;
#X connect 91 0 64 0;
#X connect 93 0 27 0;
#X connect 93 0 92 0;
#X restore 18 191 pd synth-module;
#N canvas 813 630 812 370 osc_receiving 0;
#X obj 132 58 netreceive -u -b;
#X msg 132 34 listen 5000;
#X obj 133 82 oscparse;
#X obj 133 106 list trim;
#X floatatom 7 158 10 0 0 0 - - -, f 10;
#X obj 11 132 timer;
#X obj 10 102 t b b;
#X obj 133 14 bng 15 250 50 0 empty empty empty 17 7 0 10 -262144 -1
-1;
#X obj 160 11 inlet;
#X obj 132 129 unpack s f f f f f f f f;
#X obj 271 68 list split 1;
#X obj 310 88 s emg;
#X text 372 75 send to sound;
#X obj 91 283 ctlout 1;
#X obj 86 214 * 12;
#X obj 87 236 + 1;
#X obj 121 257 + 8;
#X floatatom 127 306 5 0 0 0 - - -, f 5;
#X floatatom 88 306 5 0 0 0 - - -, f 5;
#X obj 88 259 int;
#X obj 87 191 t f b;
#X msg 124 233 1;
#X obj 174 282 ctlout 1;
#X obj 169 213 * 12;
#X obj 170 235 + 1;
#X obj 204 256 + 8;
#X floatatom 210 305 5 0 0 0 - - -, f 5;
#X floatatom 171 305 5 0 0 0 - - -, f 5;
#X obj 171 258 int;
#X obj 170 190 t f b;
#X obj 256 281 ctlout 1;
#X obj 251 212 * 12;
#X obj 252 234 + 1;
#X obj 286 255 + 8;
#X floatatom 292 304 5 0 0 0 - - -, f 5;
#X floatatom 253 304 5 0 0 0 - - -, f 5;
#X obj 253 257 int;
#X obj 252 189 t f b;
#X obj 336 281 ctlout 1;
#X obj 331 212 * 12;
#X obj 332 234 + 1;
#X obj 366 255 + 8;
#X floatatom 372 304 5 0 0 0 - - -, f 5;
#X floatatom 333 304 5 0 0 0 - - -, f 5;
#X obj 333 257 int;
#X obj 332 189 t f b;
#X obj 419 281 ctlout 1;
#X obj 414 212 * 12;
#X obj 415 234 + 1;
#X obj 449 255 + 8;
#X floatatom 455 304 5 0 0 0 - - -, f 5;
#X floatatom 416 304 5 0 0 0 - - -, f 5;
#X obj 416 257 int;
#X obj 415 189 t f b;
#X obj 499 279 ctlout 1;
#X obj 494 210 * 12;
#X obj 495 232 + 1;
#X obj 529 253 + 8;
#X floatatom 535 302 5 0 0 0 - - -, f 5;
#X floatatom 496 302 5 0 0 0 - - -, f 5;
#X obj 496 255 int;
#X obj 495 187 t f b;
#X obj 580 279 ctlout 1;
#X obj 575 210 * 12;
#X obj 576 232 + 1;
#X obj 610 253 + 8;
#X floatatom 616 302 5 0 0 0 - - -, f 5;
#X floatatom 577 302 5 0 0 0 - - -, f 5;
#X obj 577 255 int;
#X obj 576 187 t f b;
#X obj 661 279 ctlout 1;
#X obj 656 210 * 12;
#X obj 657 232 + 1;
#X obj 691 253 + 8;
#X floatatom 697 302 5 0 0 0 - - -, f 5;
#X floatatom 658 302 5 0 0 0 - - -, f 5;
#X obj 658 255 int;
#X obj 657 187 t f b;
#X msg 207 232 2;
#X msg 289 231 3;
#X msg 369 231 4;
#X msg 452 231 5;
#X msg 532 229 6;
#X msg 613 229 7;
#X msg 694 229 8;
#X connect 0 0 2 0;
#X connect 1 0 0 0;
#X connect 2 0 3 0;
#X connect 3 0 9 0;
#X connect 3 0 10 0;
#X connect 5 0 4 0;
#X connect 6 0 5 0;
#X connect 6 1 5 1;
#X connect 7 0 1 0;
#X connect 8 0 7 0;
#X connect 9 0 6 0;
#X connect 9 1 20 0;
#X connect 9 2 29 0;
#X connect 9 3 37 0;
#X connect 9 4 45 0;
#X connect 9 5 53 0;
#X connect 9 6 61 0;
#X connect 9 7 69 0;
#X connect 9 8 77 0;
#X connect 10 1 11 0;
#X connect 14 0 15 0;
#X connect 15 0 19 0;
#X connect 16 0 17 0;
#X connect 16 0 13 1;
#X connect 19 0 13 0;
#X connect 19 0 18 0;
#X connect 20 0 14 0;
#X connect 20 1 21 0;
#X connect 21 0 16 0;
#X connect 23 0 24 0;
#X connect 24 0 28 0;
#X connect 25 0 26 0;
#X connect 25 0 22 1;
#X connect 28 0 22 0;
#X connect 28 0 27 0;
#X connect 29 0 23 0;
#X connect 29 1 78 0;
#X connect 31 0 32 0;
#X connect 32 0 36 0;
#X connect 33 0 34 0;
#X connect 33 0 30 1;
#X connect 36 0 30 0;
#X connect 36 0 35 0;
#X connect 37 0 31 0;
#X connect 37 1 79 0;
#X connect 39 0 40 0;
#X connect 40 0 44 0;
#X connect 41 0 42 0;
#X connect 41 0 38 1;
#X connect 44 0 38 0;
#X connect 44 0 43 0;
#X connect 45 0 39 0;
#X connect 45 1 80 0;
#X connect 47 0 48 0;
#X connect 48 0 52 0;
#X connect 49 0 50 0;
#X connect 49 0 46 1;
#X connect 52 0 46 0;
#X connect 52 0 51 0;
#X connect 53 0 47 0;
#X connect 53 1 81 0;
#X connect 55 0 56 0;
#X connect 56 0 60 0;
#X connect 57 0 58 0;
#X connect 57 0 54 1;
#X connect 60 0 54 0;
#X connect 60 0 59 0;
#X connect 61 0 55 0;
#X connect 61 1 82 0;
#X connect 63 0 64 0;
#X connect 64 0 68 0;
#X connect 65 0 66 0;
#X connect 65 0 62 1;
#X connect 68 0 62 0;
#X connect 68 0 67 0;
#X connect 69 0 63 0;
#X connect 69 1 83 0;
#X connect 71 0 72 0;
#X connect 72 0 76 0;
#X connect 73 0 74 0;
#X connect 73 0 70 1;
#X connect 76 0 70 0;
#X connect 76 0 75 0;
#X connect 77 0 71 0;
#X connect 77 1 84 0;
#X connect 78 0 25 0;
#X connect 79 0 33 0;
#X connect 80 0 41 0;
#X connect 81 0 49 0;
#X connect 82 0 57 0;
#X connect 83 0 65 0;
#X connect 84 0 73 0;
#X restore 483 189 pd osc_receiving;
#N canvas 917 136 1161 407 blinkenlights 0;
#X obj 181 89 bng 15 250 50 0 empty empty empty 17 7 0 10 -262144 -1
-1;
#X obj 147 318 noteout 1;
#X obj 248 319 noteout 17;
#X msg 221 256 1;
#X obj 168 228 t f b;
#X obj 310 227 t f b;
#X msg 363 255 0;
#X obj 166 165 until;
#X obj 167 192 f;
#X obj 178 116 t b b;
#X msg 210 139 0;
#X msg 171 141 16;
#X obj 200 192 + 1;
#X floatatom 220 221 5 0 0 0 - - -, f 5;
#X obj 305 163 until;
#X obj 306 190 f;
#X obj 317 114 t b b;
#X msg 349 137 0;
#X msg 310 139 16;
#X obj 344 190 + 1;
#X floatatom 359 219 5 0 0 0 - - -, f 5;
#X obj 313 87 bng 15 250 50 0 empty empty empty 17 7 0 10 -262144 -1
-1;
#X obj 204 40 inlet;
#X obj 315 46 inlet;
#X obj 508 164 until;
#X obj 508 192 f;
#X obj 531 111 t b b;
#X obj 543 193 + 1;
#X floatatom 554 219 5 0 0 0 - - -, f 5;
#X obj 543 80 bng 15 250 50 0 empty empty empty 17 7 0 10 -262144 -1
-1;
#X obj 545 48 inlet;
#X obj 499 220 t b f;
#X msg 499 258 2;
#X msg 533 138 8;
#X obj 512 295 ctlout 1;
#X msg 578 138 1;
#X connect 0 0 9 0;
#X connect 3 0 2 1;
#X connect 3 0 1 1;
#X connect 4 0 1 0;
#X connect 4 0 2 0;
#X connect 4 1 3 0;
#X connect 5 0 1 0;
#X connect 5 0 2 0;
#X connect 5 1 6 0;
#X connect 6 0 1 1;
#X connect 6 0 2 1;
#X connect 7 0 8 0;
#X connect 8 0 12 0;
#X connect 8 0 4 0;
#X connect 8 0 13 0;
#X connect 9 0 11 0;
#X connect 9 1 10 0;
#X connect 10 0 8 1;
#X connect 11 0 7 0;
#X connect 12 0 8 1;
#X connect 14 0 15 0;
#X connect 15 0 19 0;
#X connect 15 0 20 0;
#X connect 15 0 5 0;
#X connect 16 0 18 0;
#X connect 16 1 17 0;
#X connect 17 0 15 1;
#X connect 18 0 14 0;
#X connect 19 0 15 1;
#X connect 21 0 16 0;
#X connect 22 0 0 0;
#X connect 23 0 21 0;
#X connect 24 0 25 0;
#X connect 25 0 27 0;
#X connect 25 0 28 0;
#X connect 25 0 31 0;
#X connect 26 0 33 0;
#X connect 26 1 35 0;
#X connect 27 0 25 1;
#X connect 29 0 26 0;
#X connect 30 0 29 0;
#X connect 31 0 32 0;
#X connect 31 1 34 1;
#X connect 32 0 34 0;
#X connect 33 0 24 0;
#X connect 35 0 25 1;
#X restore 335 193 pd blinkenlights;
#X connect 0 0 1 0;
#X connect 0 1 1 1;
#X connect 0 2 1 2;
#X connect 0 3 1 3;
#X connect 0 4 1 4;
#X connect 0 5 1 5;
#X connect 0 6 1 6;
#X connect 0 7 1 7;
#X connect 2 0 1 8;
#X connect 2 0 4 0;
#X connect 2 0 5 0;
#X connect 2 0 5 2;
