#N canvas 952 307 511 553 10;
#X obj 31 32 inlet pitch;
#X obj 241 32 inlet decay;
#X obj 333 31 inlet cutoff;
#X obj 99 210 noise~;
#X obj 64 238 *~;
#X obj 63 184 vline~;
#X msg 33 153 1 1;
#X msg 77 154 0 1;
#X obj 158 504 outlet~;
#X obj 218 313 delread~ \$0-delay 12;
#X obj 33 86 t b b a;
#X obj 176 114 mtof;
#X msg 46 53 60;
#X obj 207 193 /;
#X msg 186 170 1000;
#X floatatom 86 57 5 0 0 0 - - -;
#X obj 222 397 *~ 0.999;
#X obj 188 145 t b f;
#X obj 76 115 del 5;
#X obj 222 370 lop~ 3800;
#X obj 438 32 block~ 1;
#X obj 54 315 delwrite~ \$0-delay 200;
#X connect 0 0 10 0;
#X connect 1 0 16 1;
#X connect 2 0 19 1;
#X connect 3 0 4 1;
#X connect 4 0 21 0;
#X connect 5 0 4 0;
#X connect 6 0 5 0;
#X connect 7 0 5 0;
#X connect 9 0 19 0;
#X connect 10 0 6 0;
#X connect 10 1 18 0;
#X connect 10 2 11 0;
#X connect 11 0 17 0;
#X connect 12 0 10 0;
#X connect 13 0 9 0;
#X connect 13 0 18 1;
#X connect 14 0 13 0;
#X connect 15 0 10 0;
#X connect 16 0 8 0;
#X connect 16 0 21 0;
#X connect 17 0 14 0;
#X connect 17 1 13 1;
#X connect 18 0 7 0;
#X connect 19 0 16 0;
