#N canvas 769 84 302 504 10;
#X obj 28 35 inlet~;
#X obj 35 446 outlet~;
#X obj 84 249 * 1;
#X obj 84 189 * 1;
#X obj 84 309 * 1;
#X obj 203 197 t f f f f;
#X obj 96 27 inlet;
#X obj 200 29 inlet;
#X text 198 7 q;
#X text 92 8 cutoff freq;
#X obj 38 219 lop~ \$1;
#X obj 38 280 lop~ \$1;
#X obj 39 339 lop~ \$1;
#X obj 38 162 vcf~ \$2;
#X obj 57 123 sig~ \$1;
#X connect 0 0 13 0;
#X connect 2 0 11 1;
#X connect 3 0 10 1;
#X connect 4 0 12 1;
#X connect 5 0 14 0;
#X connect 5 1 3 0;
#X connect 5 2 2 0;
#X connect 5 3 4 0;
#X connect 6 0 5 0;
#X connect 7 0 13 2;
#X connect 10 0 11 0;
#X connect 11 0 12 0;
#X connect 12 0 1 0;
#X connect 13 0 10 0;
#X connect 14 0 13 1;
