#N canvas -986 -148 831 380 10;
#X msg 204 228 /y \$1;
#X floatatom 65 124 5 0 0 0 - - -, f 5;
#X obj 44 159 hsl 128 15 0 127 0 0 empty empty empty -2 -8 0 10 -262144
-1 -1 2300 1;
#X floatatom 213 116 5 0 0 0 - - -, f 5;
#X obj 192 151 hsl 128 15 0 127 0 0 empty empty empty -2 -8 0 10 -262144
-1 -1 4700 1;
#X obj 203 192 / 127;
#X obj 68 197 / 127;
#X msg 69 233 /x \$1;
#X floatatom 354 114 5 0 0 0 - - -, f 5;
#X obj 333 149 hsl 128 15 0 127 0 0 empty empty empty -2 -8 0 10 -262144
-1 -1 4000 1;
#X obj 344 190 / 127;
#X msg 345 226 /z \$1;
#X text 85 7 use XYZ pad program;
#X obj 464 189 t b;
#X msg 468 256 /m \$1;
#X floatatom 454 288 5 0 0 0 - - -, f 5;
#X obj 465 221 f;
#X msg 511 186 0;
#X msg 553 186 1;
#X obj 524 115 t b b;
#X obj 292 280 t a;
#X obj 292 307 s \$1-input;
#X floatatom 123 290 5 0 0 0 - - -, f 5;
#X obj 281 190 * -1;
#X obj 264 214 + 1;
#X obj 32 36 inlet;
#X obj 204 36 inlet;
#X obj 353 41 inlet;
#X obj 511 160 delay 50;
#X obj 497 312 sel 0;
#X obj 504 346 bng 15 250 50 0 empty empty empty 17 7 0 10 -262144
-1 -1;
#X connect 0 0 20 0;
#X connect 1 0 2 0;
#X connect 1 0 6 0;
#X connect 3 0 5 0;
#X connect 3 0 4 0;
#X connect 5 0 23 0;
#X connect 6 0 7 0;
#X connect 7 0 20 0;
#X connect 8 0 10 0;
#X connect 8 0 9 0;
#X connect 10 0 11 0;
#X connect 11 0 13 0;
#X connect 11 0 20 0;
#X connect 13 0 16 0;
#X connect 14 0 19 0;
#X connect 14 0 20 0;
#X connect 15 0 29 0;
#X connect 16 0 14 0;
#X connect 16 0 15 0;
#X connect 17 0 16 1;
#X connect 18 0 16 1;
#X connect 19 0 28 0;
#X connect 19 1 18 0;
#X connect 20 0 21 0;
#X connect 23 0 24 0;
#X connect 24 0 0 0;
#X connect 24 0 22 0;
#X connect 25 0 1 0;
#X connect 26 0 3 0;
#X connect 27 0 8 0;
#X connect 28 0 17 0;
#X connect 29 0 30 0;
