#N canvas 238 337 450 300 10;
#X obj 152 24 inlet;
#X obj 98 108 f;
#X obj 117 162 abs;
#X obj 215 121 f;
#X obj 150 76 t b f f;
#X obj 117 140 -;
#X obj 118 240 outlet;
#X obj 115 212 t b b;
#X obj 185 202 select 1;
#X obj 115 186 > 0.02;
#X connect 0 0 4 0;
#X connect 1 0 5 0;
#X connect 2 0 9 0;
#X connect 3 0 1 1;
#X connect 4 0 1 0;
#X connect 4 1 5 1;
#X connect 4 2 3 1;
#X connect 5 0 2 0;
#X connect 7 0 6 0;
#X connect 7 1 3 0;
#X connect 8 0 7 0;
#X connect 9 0 8 0;
