#N canvas 830 487 733 727 12;
#X obj 83 139 vsl 15 128 0 127 0 0 empty empty frequency 0 -9 0 10
-262144 -1 -1 306 1;
#X floatatom 103 256 5 0 0 0 - - -;
#X obj 120 334 phasor~;
#X floatatom 138 287 4 0 0 0 - - -;
#X obj 120 353 *~;
#X obj 194 253 * 441;
#X obj 120 374 +~;
#X obj 68 370 -~ 0.5;
#X obj 69 411 cos~;
#X obj 69 390 *~ 0.5;
#X obj 94 437 *~;
#X obj 105 236 / 25;
#X obj 167 133 vsl 15 128 0 127 0 0 empty empty chunk_size 0 -9 0 10
-262144 -1 -1 6300 1;
#X floatatom 194 232 5 0 0 0 - - -;
#X obj 196 212 / 1;
#X obj 266 136 vsl 15 128 0 1 0 0 empty empty starting_point 0 -9 0
10 -262144 -1 -1 0 1;
#X obj 292 208 *;
#X obj 310 233 / 44100;
#X floatatom 310 252 5 0 0 0 - - -;
#X obj 112 494 outlet~;
#X obj 511 89 inlet;
#X obj 117 28 inlet;
#X obj 120 410 tabread4~ \$1;
#X obj 328 181 r num_samples;
#X obj 510 230 abs;
#X obj 510 252 lop~ 3;
#X obj 92 457 *~;
#X obj 108 74 * 127;
#X obj 293 27 inlet;
#X obj 176 57 loadbang;
#X msg 180 88 63;
#X obj 238 306 abs;
#X obj 238 328 lop~ 3;
#X obj 192 277 abs;
#X obj 192 299 lop~ 3;
#X obj 59 279 abs;
#X obj 59 301 lop~ 3;
#X connect 0 0 11 0;
#X connect 1 0 3 0;
#X connect 1 0 35 0;
#X connect 2 0 4 0;
#X connect 2 0 7 0;
#X connect 4 0 6 0;
#X connect 5 0 33 0;
#X connect 6 0 22 0;
#X connect 7 0 9 0;
#X connect 8 0 10 0;
#X connect 9 0 8 0;
#X connect 10 0 26 0;
#X connect 11 0 1 0;
#X connect 12 0 14 0;
#X connect 13 0 5 0;
#X connect 14 0 13 0;
#X connect 15 0 16 0;
#X connect 16 0 17 0;
#X connect 16 0 31 0;
#X connect 17 0 18 0;
#X connect 20 0 24 0;
#X connect 21 0 27 0;
#X connect 22 0 10 1;
#X connect 23 0 16 1;
#X connect 24 0 25 0;
#X connect 25 0 26 1;
#X connect 26 0 19 0;
#X connect 27 0 0 0;
#X connect 28 0 15 0;
#X connect 29 0 30 0;
#X connect 30 0 12 0;
#X connect 31 0 32 0;
#X connect 32 0 6 1;
#X connect 33 0 34 0;
#X connect 34 0 4 1;
#X connect 35 0 36 0;
#X connect 36 0 2 0;
