#N canvas 199 194 828 420 10;
#X obj 8 30 vsl 15 128 0 127 0 0 empty empty empty 0 -9 0 10 -262144
-1 -1 1500 1;
#X obj 8 166 s korg-knob-1;
#X obj 95 30 vsl 15 128 0 127 0 0 empty empty empty 0 -9 0 10 -262144
-1 -1 0 1;
#X obj 182 30 vsl 15 128 0 127 0 0 empty empty empty 0 -9 0 10 -262144
-1 -1 0 1;
#X obj 269 30 vsl 15 128 0 127 0 0 empty empty empty 0 -9 0 10 -262144
-1 -1 0 1;
#X obj 358 29 vsl 15 128 0 127 0 0 empty empty empty 0 -9 0 10 -262144
-1 -1 0 1;
#X obj 447 29 vsl 15 128 0 127 0 0 empty empty empty 0 -9 0 10 -262144
-1 -1 0 1;
#X obj 534 29 vsl 15 128 0 127 0 0 empty empty empty 0 -9 0 10 -262144
-1 -1 0 1;
#X obj 621 29 vsl 15 128 0 127 0 0 empty empty empty 0 -9 0 10 -262144
-1 -1 0 1;
#X obj 710 28 vsl 15 128 0 127 0 0 empty empty empty 0 -9 0 10 -262144
-1 -1 0 1;
#X obj 710 164 s korg-knob-9;
#X obj 621 165 s korg-knob-8;
#X obj 534 165 s korg-knob-7;
#X obj 447 164 s korg-knob-6;
#X obj 358 164 s korg-knob-5;
#X obj 269 166 s korg-knob-4;
#X obj 181 167 s korg-knob-3;
#X obj 95 166 s korg-knob-2;
#X obj 11 225 vsl 15 128 0 127 0 0 empty empty empty 0 -9 0 10 -262144
-1 -1 0 1;
#X obj 98 225 vsl 15 128 0 127 0 0 empty empty empty 0 -9 0 10 -262144
-1 -1 0 1;
#X obj 185 225 vsl 15 128 0 127 0 0 empty empty empty 0 -9 0 10 -262144
-1 -1 0 1;
#X obj 272 225 vsl 15 128 0 127 0 0 empty empty empty 0 -9 0 10 -262144
-1 -1 0 1;
#X obj 361 224 vsl 15 128 0 127 0 0 empty empty empty 0 -9 0 10 -262144
-1 -1 0 1;
#X obj 450 224 vsl 15 128 0 127 0 0 empty empty empty 0 -9 0 10 -262144
-1 -1 0 1;
#X obj 537 224 vsl 15 128 0 127 0 0 empty empty empty 0 -9 0 10 -262144
-1 -1 0 1;
#X obj 624 224 vsl 15 128 0 127 0 0 empty empty empty 0 -9 0 10 -262144
-1 -1 0 1;
#X obj 713 223 vsl 15 128 0 127 0 0 empty empty empty 0 -9 0 10 -262144
-1 -1 0 1;
#X obj 11 361 s korg-fad-1;
#X obj 98 361 s korg-fad-2;
#X obj 184 362 s korg-fad-3;
#X obj 272 361 s korg-fad-4;
#X obj 361 359 s korg-fad-5;
#X obj 450 359 s korg-fad-6;
#X obj 537 360 s korg-fad-7;
#X obj 624 360 s korg-fad-8;
#X obj 713 359 s korg-fad-9;
#X text 7 384 use scene 4 for channel 4;
#X obj 8 7 ctlin 1;
#X obj 95 7 ctlin 2;
#X obj 182 7 ctlin 3;
#X obj 269 7 ctlin 4;
#X obj 358 6 ctlin 5;
#X obj 11 202 ctlin 10;
#X obj 98 202 ctlin 11;
#X obj 185 202 ctlin 12;
#X obj 272 202 ctlin 13;
#X obj 361 202 ctlin 14;
#X obj 451 201 ctlin 15;
#X obj 537 201 ctlin 16;
#X obj 624 200 ctlin 17;
#X obj 713 199 ctlin 18;
#X obj 448 5 ctlin 6;
#X obj 533 6 ctlin 7;
#X obj 621 6 ctlin 8;
#X obj 710 5 ctlin 9;
#X connect 0 0 1 0;
#X connect 2 0 17 0;
#X connect 3 0 16 0;
#X connect 4 0 15 0;
#X connect 5 0 14 0;
#X connect 6 0 13 0;
#X connect 7 0 12 0;
#X connect 8 0 11 0;
#X connect 9 0 10 0;
#X connect 18 0 27 0;
#X connect 19 0 28 0;
#X connect 20 0 29 0;
#X connect 21 0 30 0;
#X connect 22 0 31 0;
#X connect 23 0 32 0;
#X connect 24 0 33 0;
#X connect 25 0 34 0;
#X connect 26 0 35 0;
#X connect 37 0 0 0;
#X connect 38 0 2 0;
#X connect 39 0 3 0;
#X connect 40 0 4 0;
#X connect 41 0 5 0;
#X connect 42 0 18 0;
#X connect 43 0 19 0;
#X connect 44 0 20 0;
#X connect 45 0 21 0;
#X connect 46 0 22 0;
#X connect 47 0 23 0;
#X connect 48 0 24 0;
#X connect 49 0 25 0;
#X connect 50 0 26 0;
#X connect 51 0 6 0;
#X connect 52 0 7 0;
#X connect 53 0 8 0;
#X connect 54 0 9 0;
