#N canvas 635 60 532 626 10;
#X obj 208 192 netreceive -u -b;
#X msg 208 164 listen 5000;
#X obj 208 215 oscparse;
#X msg 13 112 list /x 0.2 /y 0.88 /z 23.8648;
#X obj 208 236 list trim;
#X obj 205 287 list;
#N canvas 1126 381 450 300 serialisePairs 0;
#X obj 164 29 inlet;
#X obj 174 243 outlet;
#X obj 169 105 until;
#X obj 187 71 t b l;
#X obj 167 133 list append;
#X obj 187 166 list split 2;
#X obj 303 167 bang;
#X connect 0 0 3 0;
#X connect 2 0 4 0;
#X connect 3 0 2 0;
#X connect 3 1 4 1;
#X connect 4 0 5 0;
#X connect 5 0 1 0;
#X connect 5 1 4 1;
#X connect 5 2 6 0;
#X connect 6 0 2 1;
#X restore 207 327 pd serialisePairs;
#X obj 13 134 oscformat touch;
#X obj 206 263 route touch inst;
#X obj 207 371 list prepend;
#X obj 210 473 print NoMatchingInstrument;
#X obj 206 394 list trim;
#X msg 13 244 list chirp;
#X obj 56 267 oscformat inst;
#X msg 12 220 list drums;
#X msg 12 192 list keys;
#X msg 12 166 list strings;
#X obj 332 264 print Instrument;
#X obj 54 430 route chirp drums keys strings;
#X obj 208 140 loadbang;
#X obj 337 291 print Touch;
#X text 8 8 parses OSC messages to play in basic touchscreen synths.
touch messages have the address "touch" and instrument selection has
the address "inst". This version is simplified so only the "chirp"
sound works.;
#N canvas 48 480 553 663 chirpsound 0;
#X obj 160 475 dac~;
#X obj 120 37 list trim;
#X obj 120 99 route /x /y /z;
#X obj 148 335 osc~;
#X obj 162 429 *~ 0.5;
#X obj 76 238 + 85;
#X obj 76 213 * 2500;
#X obj 148 357 *~;
#X obj 200 333 line~;
#X msg 240 302 1 10;
#X obj 213 250 t b b;
#X msg 197 301 0 200;
#X obj 206 275 delay 50;
#X obj 68 290 line~;
#X msg 74 261 \$1 2;
#X msg 309 152 /x \$1;
#X obj 309 108 random 1000;
#X obj 309 129 / 1000;
#X obj 310 85 bng 15 250 50 0 empty empty test 17 7 0 10 -262144 -1
-1;
#X obj 120 78 t a a;
#X obj 76 187 t f;
#X obj 120 15 r \$0-input;
#X obj 73 15 inlet;
#X connect 1 0 19 0;
#X connect 2 0 20 0;
#X connect 3 0 7 0;
#X connect 4 0 0 0;
#X connect 4 0 0 1;
#X connect 5 0 14 0;
#X connect 6 0 5 0;
#X connect 7 0 4 0;
#X connect 8 0 7 1;
#X connect 9 0 8 0;
#X connect 10 0 12 0;
#X connect 10 1 9 0;
#X connect 11 0 8 0;
#X connect 12 0 11 0;
#X connect 13 0 3 0;
#X connect 14 0 13 0;
#X connect 15 0 19 0;
#X connect 16 0 17 0;
#X connect 17 0 15 0;
#X connect 18 0 16 0;
#X connect 19 0 2 0;
#X connect 19 1 10 0;
#X connect 20 0 6 0;
#X connect 21 0 1 0;
#X connect 22 0 1 0;
#X restore 65 470 pd chirpsound;
#X connect 0 0 2 0;
#X connect 1 0 0 0;
#X connect 2 0 4 0;
#X connect 3 0 7 0;
#X connect 4 0 8 0;
#X connect 5 0 6 0;
#X connect 6 0 9 0;
#X connect 7 0 2 0;
#X connect 8 0 5 0;
#X connect 8 0 20 0;
#X connect 8 1 9 1;
#X connect 8 1 17 0;
#X connect 9 0 11 0;
#X connect 11 0 18 0;
#X connect 12 0 13 0;
#X connect 13 0 2 0;
#X connect 14 0 13 0;
#X connect 15 0 13 0;
#X connect 16 0 13 0;
#X connect 18 0 22 0;
#X connect 18 1 22 0;
#X connect 18 2 22 0;
#X connect 18 3 22 0;
#X connect 18 4 10 0;
#X connect 19 0 1 0;
