#N canvas 366 57 668 704 10;
#X declare .;
#X obj 7 29 x-touch-bank 1;
#N canvas 241 227 1196 395 osc_sending 0;
#X obj 58 23 inlet;
#X obj 61 149 f;
#X obj 58 46 t b f;
#X obj 552 127 t b b b b b b b b;
#X obj 551 105 r sosc;
#X obj 57 71 s sosc;
#X obj 128 148 f;
#X obj 193 150 f;
#X obj 252 146 f;
#X obj 310 148 f;
#X obj 366 149 f;
#X obj 422 148 f;
#X obj 479 149 f;
#X obj 202 189 pack f f f f f f f f;
#X obj 179 341 netsend -u -b;
#X obj 182 290 list prepend send;
#X obj 182 315 list trim;
#X obj 181 244 list trim;
#X obj 181 266 oscformat interface;
#X msg 286 316 connect localhost 5001;
#X msg 306 340 disconnect;
#X obj 757 62 bng 15 250 50 0 empty empty empty 17 7 0 10 #fcfcfc #000000 #000000;
#X obj 751 29 loadbang;
#X obj 693 21 inlet;
#X obj 35 268 s emg;
#X obj 60 91 / 127;
#X obj 120 23 inlet;
#X obj 120 46 t b f;
#X obj 119 71 s sosc;
#X obj 122 91 / 127;
#X obj 188 21 inlet;
#X obj 188 44 t b f;
#X obj 187 69 s sosc;
#X obj 190 89 / 127;
#X obj 248 25 inlet;
#X obj 248 48 t b f;
#X obj 247 73 s sosc;
#X obj 250 93 / 127;
#X obj 306 26 inlet;
#X obj 306 49 t b f;
#X obj 305 74 s sosc;
#X obj 308 94 / 127;
#X obj 367 23 inlet;
#X obj 367 46 t b f;
#X obj 366 71 s sosc;
#X obj 369 91 / 127;
#X obj 424 24 inlet;
#X obj 424 47 t b f;
#X obj 423 72 s sosc;
#X obj 426 92 / 127;
#X obj 483 24 inlet;
#X obj 483 47 t b f;
#X obj 482 72 s sosc;
#X obj 485 92 / 127;
#X obj 624 204 r sig_temp;
#X obj 703 204 r pi_temp;
#X obj 779 204 r timescale;
#X obj 779 274 + 0.01;
#X obj 779 231 / 127;
#X obj 779 252 * 10;
#X floatatom 779 293 5 0 0 0 - - - 0;
#X obj 704 273 + 0.01;
#X obj 704 230 / 127;
#X obj 704 251 * 10;
#X floatatom 704 292 5 0 0 0 - - - 0;
#X obj 625 270 + 0.01;
#X obj 625 227 / 127;
#X obj 625 248 * 10;
#X floatatom 625 289 5 0 0 0 - - - 0;
#X obj 644 319 pack f f;
#X obj 633 358 oscformat temperature;
#X obj 778 336 oscformat timescale;
#X obj 638 340 list trim;
#X obj 778 315 list trim;
#X connect 0 0 2 0;
#X connect 1 0 13 0;
#X connect 2 0 5 0;
#X connect 2 1 25 0;
#X connect 3 0 1 0;
#X connect 3 1 6 0;
#X connect 3 2 7 0;
#X connect 3 3 8 0;
#X connect 3 4 9 0;
#X connect 3 5 10 0;
#X connect 3 6 11 0;
#X connect 3 7 12 0;
#X connect 4 0 3 0;
#X connect 6 0 13 1;
#X connect 7 0 13 2;
#X connect 8 0 13 3;
#X connect 9 0 13 4;
#X connect 10 0 13 5;
#X connect 11 0 13 6;
#X connect 12 0 13 7;
#X connect 13 0 17 0;
#X connect 13 0 24 0;
#X connect 15 0 16 0;
#X connect 16 0 14 0;
#X connect 17 0 18 0;
#X connect 18 0 15 0;
#X connect 19 0 14 0;
#X connect 20 0 14 0;
#X connect 21 0 19 0;
#X connect 22 0 21 0;
#X connect 23 0 21 0;
#X connect 25 0 1 1;
#X connect 26 0 27 0;
#X connect 27 0 28 0;
#X connect 27 1 29 0;
#X connect 29 0 6 1;
#X connect 30 0 31 0;
#X connect 31 0 32 0;
#X connect 31 1 33 0;
#X connect 33 0 7 1;
#X connect 34 0 35 0;
#X connect 35 0 36 0;
#X connect 35 1 37 0;
#X connect 37 0 8 1;
#X connect 38 0 39 0;
#X connect 39 0 40 0;
#X connect 39 1 41 0;
#X connect 41 0 9 1;
#X connect 42 0 43 0;
#X connect 43 0 44 0;
#X connect 43 1 45 0;
#X connect 45 0 10 1;
#X connect 46 0 47 0;
#X connect 47 0 48 0;
#X connect 47 1 49 0;
#X connect 49 0 11 1;
#X connect 50 0 51 0;
#X connect 51 0 52 0;
#X connect 51 1 53 0;
#X connect 53 0 12 1;
#X connect 54 0 66 0;
#X connect 55 0 62 0;
#X connect 56 0 58 0;
#X connect 57 0 60 0;
#X connect 58 0 59 0;
#X connect 59 0 57 0;
#X connect 60 0 73 0;
#X connect 61 0 64 0;
#X connect 62 0 63 0;
#X connect 63 0 61 0;
#X connect 64 0 69 1;
#X connect 65 0 68 0;
#X connect 66 0 67 0;
#X connect 67 0 65 0;
#X connect 68 0 69 0;
#X connect 69 0 72 0;
#X connect 70 0 15 0;
#X connect 71 0 15 0;
#X connect 72 0 70 0;
#X connect 73 0 71 0;
#X restore 186 213 pd osc_sending;
#X obj 485 31 bng 150 250 50 0 empty empty empty 17 7 0 10 #fc0400 #000000 #000000;
#N canvas 292 125 1440 795 synth-module 0;
#X obj 629 137 r emg;
#X obj 84 181 lop~ 3;
#N canvas 28 166 1412 598 multipliers 0;
#X obj 243 298 1;
#X floatatom 409 66 5 0 0 0 - - - 0;
#X obj 291 298 +;
#X floatatom 242 323 5 0 0 0 - - - 0;
#X floatatom 292 324 5 0 0 0 - - - 0;
#X obj 338 297 +;
#X floatatom 339 323 5 0 0 0 - - - 0;
#X obj 387 296 +;
#X floatatom 387 320 5 0 0 0 - - - 0;
#X obj 444 293 +;
#X floatatom 444 319 5 0 0 0 - - - 0;
#X obj 500 293 +;
#X floatatom 500 319 5 0 0 0 - - - 0;
#X obj 559 292 +;
#X floatatom 559 318 5 0 0 0 - - - 0;
#X obj 613 294 +;
#X floatatom 613 320 5 0 0 0 - - - 0;
#X obj 410 93 / 1000;
#X obj 109 54 inlet;
#X obj 350 63 * 1000;
#X obj 352 38 + 1.01;
#X text 68 22 input -1 to 1;
#X obj 290 274 + 0.1;
#X obj 387 274 + 0.1;
#X obj 444 273 * 0.98;
#X obj 500 272 + 0.15;
#X obj 560 270 + 0.02;
#X obj 352 120 t b f f f f f f f f;
#X floatatom 292 121 5 0 0 0 - - - 0;
#X obj 125 189 * 3.14159;
#X obj 125 213 cos;
#X floatatom 124 234 5 0 0 0 - - - 0;
#X obj 122 143 - 1;
#X obj 124 166 * 2;
#X obj 1024 233 * 3.14159;
#X obj 1024 257 cos;
#X floatatom 1023 278 5 0 0 0 - - - 0;
#X obj 1021 187 - 1;
#X obj 1023 210 * 2;
#X obj 1283 45 inlet;
#X floatatom 973 76 5 0 0 0 - - - 0;
#X obj 974 103 / 1000;
#X obj 914 73 * 1000;
#X obj 916 130 t b f f f f f f f f;
#X floatatom 856 131 5 0 0 0 - - - 0;
#X obj 614 270 +;
#X obj 341 274 +;
#X obj 916 48 + 0.51;
#X obj 202 368 lop~ 3;
#X obj 192 405 outlet~;
#X obj 248 405 outlet~;
#X obj 305 405 outlet~;
#X obj 368 405 outlet~;
#X obj 444 402 outlet~;
#X obj 500 402 outlet~;
#X obj 558 401 outlet~;
#X obj 613 400 outlet~;
#X obj 251 367 lop~ 3;
#X obj 302 368 lop~ 3;
#X obj 361 370 lop~ 3;
#X obj 440 369 lop~ 3;
#X obj 497 368 lop~ 3;
#X obj 556 367 lop~ 3;
#X obj 617 367 lop~ 3;
#X connect 0 0 2 0;
#X connect 0 0 3 0;
#X connect 1 0 17 0;
#X connect 2 0 4 0;
#X connect 2 0 5 0;
#X connect 3 0 48 0;
#X connect 4 0 57 0;
#X connect 5 0 6 0;
#X connect 5 0 7 0;
#X connect 6 0 58 0;
#X connect 7 0 8 0;
#X connect 7 0 9 0;
#X connect 8 0 59 0;
#X connect 9 0 10 0;
#X connect 9 0 11 0;
#X connect 10 0 60 0;
#X connect 11 0 12 0;
#X connect 11 0 13 0;
#X connect 12 0 61 0;
#X connect 13 0 14 0;
#X connect 13 0 15 0;
#X connect 14 0 62 0;
#X connect 15 0 16 0;
#X connect 16 0 63 0;
#X connect 17 0 27 0;
#X connect 17 0 28 0;
#X connect 18 0 20 0;
#X connect 19 0 1 0;
#X connect 20 0 19 0;
#X connect 22 0 2 1;
#X connect 23 0 7 1;
#X connect 24 0 9 1;
#X connect 25 0 11 1;
#X connect 26 0 13 1;
#X connect 27 0 0 0;
#X connect 27 1 22 0;
#X connect 27 2 46 0;
#X connect 27 3 23 0;
#X connect 27 4 24 0;
#X connect 27 5 25 0;
#X connect 27 6 26 0;
#X connect 27 7 45 0;
#X connect 29 0 30 0;
#X connect 30 0 31 0;
#X connect 32 0 33 0;
#X connect 33 0 29 0;
#X connect 34 0 35 0;
#X connect 35 0 36 0;
#X connect 37 0 38 0;
#X connect 38 0 34 0;
#X connect 39 0 47 0;
#X connect 40 0 41 0;
#X connect 41 0 43 0;
#X connect 41 0 44 0;
#X connect 42 0 40 0;
#X connect 44 0 45 1;
#X connect 44 0 26 1;
#X connect 44 0 25 1;
#X connect 44 0 24 1;
#X connect 44 0 23 1;
#X connect 44 0 46 1;
#X connect 44 0 22 1;
#X connect 45 0 15 1;
#X connect 46 0 5 1;
#X connect 47 0 42 0;
#X connect 48 0 49 0;
#X connect 57 0 50 0;
#X connect 58 0 51 0;
#X connect 59 0 52 0;
#X connect 60 0 53 0;
#X connect 61 0 54 0;
#X connect 62 0 55 0;
#X connect 63 0 56 0;
#X restore 290 189 pd multipliers;
#N canvas 0 23 1282 583 distortion 0;
#X obj 138 41 inlet~;
#X obj 142 61 *~, f 2;
#X obj 601 160 inlet;
#X obj 713 162 inlet;
#X obj 801 160 inlet;
#X obj 895 162 inlet;
#X obj 99 267 *~;
#X obj 246 271 *~;
#X obj 400 271 *~;
#X text 114 518 metal zone! GET IN THE ZONE.;
#X text 598 135 dist;
#X obj 971 163 inlet;
#X obj 1065 165 inlet;
#X text 714 141 low;
#X text 804 138 mid;
#X text 888 136 high;
#X text 962 139 mid freq;
#X obj 971 192 vsl 15 128 0 1 0 0 empty empty empty 0 -9 0 10 #fcfcfc #000000 #000000 0 1;
#X obj 973 350 + 200;
#X obj 973 326 * 5000;
#X floatatom 975 374 5 0 0 0 - - - 0;
#X obj 416 231 hip~ 7000;
#X obj 718 384 dbtorms;
#X obj 715 197 vsl 15 128 -1 1 0 0 empty empty empty 0 -9 0 10 #fcfcfc #000000 #000000 0 1;
#X obj 715 337 * 15;
#X floatatom 718 406 9 0 0 0 - - - 0;
#X floatatom 740 311 5 0 0 0 - - - 0;
#X obj 717 360 + 100;
#X obj 805 379 dbtorms;
#X obj 802 192 vsl 15 128 -1 1 0 0 empty empty empty 0 -9 0 10 #fcfcfc #000000 #000000 0 1;
#X obj 802 332 * 15;
#X floatatom 805 401 9 0 0 0 - - - 0;
#X floatatom 827 306 5 0 0 0 - - - 0;
#X obj 804 355 + 100;
#X obj 888 380 dbtorms;
#X obj 885 193 vsl 15 128 -1 1 0 0 empty empty empty 0 -9 0 10 #fcfcfc #000000 #000000 0 1;
#X obj 885 333 * 15;
#X floatatom 888 402 9 0 0 0 - - - 0;
#X floatatom 910 307 5 0 0 0 - - - 0;
#X obj 887 356 + 100;
#X obj 246 234 bp~ 1000 4;
#X obj 237 374 *~;
#X obj 237 421 outlet~;
#X text 1065 141 outlet;
#X obj 1066 193 vsl 15 128 0 1 0 0 empty empty empty 0 -9 0 10 #fcfcfc #000000 #000000 0 1;
#X floatatom 1090 310 5 0 0 0 - - - 0;
#X obj 599 381 dbtorms;
#X obj 596 199 vsl 15 128 -1 1 0 0 empty empty empty 0 -9 0 10 #fcfcfc #000000 #000000 0 1;
#X floatatom 599 403 9 0 0 0 - - - 0;
#X floatatom 621 308 5 0 0 0 - - - 0;
#X obj 108 228 bp~ 200 3.1;
#X msg 741 48 0;
#X msg 791 47 0.1;
#X floatatom 997 300 5 0 0 0 - - - 0;
#X msg 835 46 0.2;
#X obj 715 13 loadbang;
#X msg 896 46 1;
#X msg 667 52 0.35;
#X obj 142 112 clip~ -1 1;
#X obj 598 357 + 120;
#X text 374 77 feedback delay loop;
#X msg 595 54 1;
#X text 242 109 distort stage;
#X text 216 60 gain;
#X obj 145 151 *~ 1;
#X obj 63 87 expr~ tanh($v1);
#X floatatom 558 436 5 0 0 0 - - - 0;
#X obj 596 334 * 30;
#X text 529 478 alternatively \, * 20;
#X connect 0 0 1 0;
#X connect 1 0 58 0;
#X connect 1 0 65 0;
#X connect 2 0 47 0;
#X connect 3 0 23 0;
#X connect 4 0 29 0;
#X connect 5 0 35 0;
#X connect 6 0 41 0;
#X connect 7 0 41 0;
#X connect 8 0 41 0;
#X connect 11 0 17 0;
#X connect 12 0 44 0;
#X connect 17 0 19 0;
#X connect 17 0 53 0;
#X connect 18 0 20 0;
#X connect 18 0 40 1;
#X connect 19 0 18 0;
#X connect 21 0 8 0;
#X connect 22 0 25 0;
#X connect 23 0 24 0;
#X connect 23 0 26 0;
#X connect 24 0 27 0;
#X connect 25 0 6 1;
#X connect 27 0 22 0;
#X connect 28 0 31 0;
#X connect 29 0 30 0;
#X connect 29 0 32 0;
#X connect 30 0 33 0;
#X connect 31 0 7 1;
#X connect 33 0 28 0;
#X connect 34 0 37 0;
#X connect 35 0 36 0;
#X connect 35 0 38 0;
#X connect 36 0 39 0;
#X connect 37 0 8 1;
#X connect 39 0 34 0;
#X connect 40 0 7 0;
#X connect 41 0 42 0;
#X connect 44 0 45 0;
#X connect 44 0 41 1;
#X connect 46 0 48 0;
#X connect 47 0 49 0;
#X connect 47 0 67 0;
#X connect 48 0 1 1;
#X connect 50 0 6 0;
#X connect 51 0 29 0;
#X connect 52 0 35 0;
#X connect 54 0 17 0;
#X connect 55 0 57 0;
#X connect 55 0 51 0;
#X connect 55 0 52 0;
#X connect 55 0 54 0;
#X connect 55 0 56 0;
#X connect 55 0 61 0;
#X connect 56 0 44 0;
#X connect 57 0 23 0;
#X connect 59 0 46 0;
#X connect 59 0 66 0;
#X connect 61 0 47 0;
#X connect 64 0 50 0;
#X connect 64 0 40 0;
#X connect 64 0 21 0;
#X connect 65 0 64 0;
#X connect 67 0 59 0;
#X restore 603 391 pd distortion;
#X obj 319 108 * 3.14159;
#X obj 319 132 cos;
#X floatatom 277 155 9 0 0 0 - - - 0;
#X obj 362 134 sin;
#X floatatom 373 160 9 0 0 0 - - - 0;
#X obj 318 83 * 1;
#N canvas 0 23 1440 856 compress 0;
#X obj 28 16 inlet~;
#X obj 28 769 outlet~;
#X obj 43 62 env~ 256;
#X obj 28 739 *~;
#X obj 43 679 pack f 40;
#X obj 43 709 line~;
#X obj 53 126 r \$0-graph-input;
#X obj 88 84 r \$0-switch;
#X obj 43 104 spigot 1;
#X text 112 679 40 ms attack/release;
#X obj 43 654 min 1;
#X obj 143 459 t b f;
#X obj 88 519 f;
#X obj 88 549 /;
#X obj 88 489 -;
#X obj 43 413 f;
#X obj 103 342 t b f f;
#X obj 88 579 +;
#X obj 103 248 \$1;
#X obj 276 247 \$2;
#X obj 103 270 t f f;
#X obj 103 156 loadbang;
#X obj 103 178 t b b;
#X obj 276 269 t f f;
#X obj 276 217 r \$0-ratio;
#X obj 111 217 r \$0-threshold;
#X obj 43 156 t f f;
#X text 120 549 Gain reduction;
#X obj 43 459 moses 70;
#X obj 103 459 t f f;
#N canvas 639 436 354 265 gainreduc 0;
#X obj 32 94 -;
#X obj 32 114 / 20;
#X obj 32 134 t b f;
#X msg 32 154 10;
#X obj 32 174 pow;
#X obj 32 34 inlet output;
#X obj 47 64 inlet input;
#X obj 32 206 outlet gain-reduction;
#X text 70 172 gr = 20*log10(output - input);
#X obj 141 64 r \$0-switch;
#X obj 141 86 sel 0;
#X msg 141 108 1;
#X text 174 109 If switched off \, no gr;
#X connect 0 0 1 0;
#X connect 1 0 2 0;
#X connect 2 0 3 0;
#X connect 2 1 4 1;
#X connect 3 0 4 0;
#X connect 4 0 7 0;
#X connect 5 0 0 0;
#X connect 6 0 0 1;
#X connect 9 0 10 0;
#X connect 10 0 11 0;
#X connect 11 0 7 0;
#X restore 43 629 pd gainreduc;
#X obj 157 294 print thresh;
#X obj 328 310 print ratio;
#X obj 195 139 bng 15 250 50 0 empty empty empty 17 7 0 10 #fcfcfc #000000 #000000;
#X obj 268 43 inlet;
#X obj 270 66 unpack f f;
#X connect 0 0 2 0;
#X connect 0 0 3 0;
#X connect 2 0 8 0;
#X connect 3 0 1 0;
#X connect 4 0 5 0;
#X connect 5 0 3 1;
#X connect 6 0 26 0;
#X connect 7 0 8 1;
#X connect 8 0 26 0;
#X connect 10 0 4 0;
#X connect 11 0 12 0;
#X connect 11 1 13 1;
#X connect 12 0 13 0;
#X connect 13 0 17 0;
#X connect 14 0 12 0;
#X connect 15 0 28 0;
#X connect 16 0 15 0;
#X connect 16 1 28 1;
#X connect 16 2 29 0;
#X connect 17 0 30 0;
#X connect 18 0 20 0;
#X connect 19 0 23 0;
#X connect 20 0 16 0;
#X connect 20 1 31 0;
#X connect 21 0 22 0;
#X connect 22 0 18 0;
#X connect 22 1 19 0;
#X connect 23 0 11 0;
#X connect 23 1 32 0;
#X connect 24 0 19 0;
#X connect 25 0 18 0;
#X connect 26 0 15 0;
#X connect 26 1 30 1;
#X connect 28 0 30 0;
#X connect 28 1 14 0;
#X connect 29 0 14 1;
#X connect 29 1 17 1;
#X connect 30 0 10 0;
#X connect 33 0 22 0;
#X connect 34 0 35 0;
#X connect 35 0 18 0;
#X connect 35 1 19 0;
#X restore 519 509 pd compress 67 2;
#X msg 669 505 67 2;
#X obj 668 477 loadbang;
#N canvas 0 470 450 300 clean 0;
#X obj 58 27 inlet~;
#X obj 65 185 outlet~;
#X connect 0 0 1 0;
#X restore 531 390 pd clean;
#X obj 531 412 *~ 2;
#X obj 603 414 *~ 0.6;
#N canvas 0 23 601 428 crossfade 0;
#X obj 17 32 inlet~;
#X obj 81 32 inlet~;
#X obj 27 367 outlet~;
#X obj 37 219 cos~;
#X obj 110 219 cos~;
#X obj 118 130 hsl 100 15 0 0.25 0 0 empty empty empty -2 -8 0 10 #fcfcfc #000000 #000000 0 1;
#X floatatom 146 149 5 0 0 0 - - - 0;
#X obj 110 188 + 0.75;
#X obj 23 267 *~;
#X obj 96 269 *~;
#X obj 110 77 loadbang;
#X msg 110 101 0.125;
#X obj 186 93 * 0.25;
#X obj 176 31 inlet;
#X obj 348 49 r euler;
#X obj 347 71 unpack f f f;
#X obj 345 101 * 3.14159;
#X obj 345 125 cos;
#X floatatom 385 129 5 0 0 0 - - - 0;
#X floatatom 406 182 5 0 0 0 - - - 0;
#X obj 346 158 - 1;
#X obj 347 183 * -0.5;
#X floatatom 436 100 5 0 0 0 - - - 0;
#X obj 352 314 t f;
#X floatatom 401 351 5 0 0 0 - - - 0;
#X obj 330 265 t b;
#X obj 332 287 0;
#X obj 350 241 moses 0.15;
#X obj 407 267 - 0.15;
#X obj 406 290 * 1.17;
#X connect 0 0 8 0;
#X connect 1 0 9 0;
#X connect 3 0 8 1;
#X connect 4 0 9 1;
#X connect 5 0 6 0;
#X connect 5 0 3 0;
#X connect 5 0 7 0;
#X connect 7 0 4 0;
#X connect 8 0 2 0;
#X connect 9 0 2 0;
#X connect 10 0 11 0;
#X connect 11 0 5 0;
#X connect 12 0 5 0;
#X connect 13 0 12 0;
#X connect 14 0 15 0;
#X connect 15 0 16 0;
#X connect 15 0 22 0;
#X connect 16 0 17 0;
#X connect 17 0 18 0;
#X connect 17 0 20 0;
#X connect 20 0 21 0;
#X connect 21 0 19 0;
#X connect 21 0 27 0;
#X connect 23 0 24 0;
#X connect 23 0 12 0;
#X connect 25 0 26 0;
#X connect 26 0 23 0;
#X connect 27 0 25 0;
#X connect 27 1 28 0;
#X connect 28 0 29 0;
#X connect 29 0 23 0;
#X restore 543 451 pd crossfade;
#X obj 337 666 env~;
#X floatatom 337 707 5 0 0 0 - - master_snd_l 0;
#X obj 337 686 - 100;
#X floatatom 84 138 5 0 0 0 - - - 0;
#X obj 534 369 *~ 1;
#X obj 604 370 *~ 1;
#X obj 629 162 print;
#N canvas 0 23 471 391 listsum 0;
#X obj 19 131 until;
#X obj 67 61 list append;
#X obj 18 183 list split 1;
#X obj 18 159 list append;
#X obj 115 261 +;
#X obj 144 261 f;
#X obj 130 237 0;
#X obj 87 210 t b b;
#X obj 100 286 f;
#X obj 68 87 t b b l;
#X obj 100 308 outlet;
#X obj 65 17 inlet;
#X obj 66 38 t b l;
#X connect 0 0 3 0;
#X connect 1 0 9 0;
#X connect 2 0 4 0;
#X connect 2 1 3 1;
#X connect 2 2 7 0;
#X connect 3 0 2 0;
#X connect 4 0 5 0;
#X connect 4 0 8 1;
#X connect 5 0 4 1;
#X connect 6 0 4 1;
#X connect 7 0 8 0;
#X connect 7 1 0 1;
#X connect 8 0 10 0;
#X connect 9 0 0 0;
#X connect 9 1 6 0;
#X connect 9 2 3 1;
#X connect 11 0 12 0;
#X connect 12 0 1 0;
#X connect 12 1 1 1;
#X restore 183 111 pd listsum;
#X floatatom 184 133 5 0 0 0 - - - 0;
#X obj 320 58 line;
#X msg 320 37 \$1 30;
#X obj 122 67 r emg;
#X obj 122 89 list split 4;
#N canvas 0 23 471 391 listsum 0;
#X obj 19 131 until;
#X obj 67 61 list append;
#X obj 18 183 list split 1;
#X obj 18 159 list append;
#X obj 115 261 +;
#X obj 144 261 f;
#X obj 130 237 0;
#X obj 87 210 t b b;
#X obj 100 286 f;
#X obj 68 87 t b b l;
#X obj 100 308 outlet;
#X obj 65 17 inlet;
#X obj 66 38 t b l;
#X connect 0 0 3 0;
#X connect 1 0 9 0;
#X connect 2 0 4 0;
#X connect 2 1 3 1;
#X connect 2 2 7 0;
#X connect 3 0 2 0;
#X connect 4 0 5 0;
#X connect 4 0 8 1;
#X connect 5 0 4 1;
#X connect 6 0 4 1;
#X connect 7 0 8 0;
#X connect 7 1 0 1;
#X connect 8 0 10 0;
#X connect 9 0 0 0;
#X connect 9 1 6 0;
#X connect 9 2 3 1;
#X connect 11 0 12 0;
#X connect 12 0 1 0;
#X connect 12 1 1 1;
#X restore 101 110 pd listsum;
#X obj 84 220 +~ 0;
#X obj 780 472 dbtorms;
#X obj 782 427 / 127;
#X obj 780 449 * 110;
#X floatatom 780 500 5 0 0 0 - - - 0;
#X obj 767 517 lop~ 3;
#X obj 366 646 *~;
#X obj 782 387 loadbang;
#X msg 782 406 64;
#X floatatom 91 203 5 0 0 0 - - - 0;
#X obj 84 156 * 75;
#N canvas 344 344 833 198 envelope_bank 0;
#X obj 23 91 inlet~;
#X obj 272 10 r emg;
#X obj 258 33 unpack f f f f f f f f;
#X obj 23 123 xtouch_env 0;
#X obj 108 92 inlet~;
#X obj 192 92 inlet~;
#X obj 274 93 inlet~;
#X obj 356 91 inlet~;
#X obj 438 92 inlet~;
#X obj 519 92 inlet~;
#X obj 603 92 inlet~;
#X obj 78 166 outlet~;
#X obj 570 158 outlet~;
#X obj 108 124 xtouch_env 1;
#X obj 192 124 xtouch_env 2;
#X obj 274 125 xtouch_env 3;
#X obj 356 123 xtouch_env 4;
#X obj 438 124 xtouch_env 5;
#X obj 519 124 xtouch_env 6;
#X obj 603 124 xtouch_env 7;
#X obj 232 157 outlet~;
#X obj 398 158 outlet~;
#X obj 715 154 outlet~;
#X connect 0 0 3 0;
#X connect 1 0 2 0;
#X connect 2 0 3 1;
#X connect 2 1 13 1;
#X connect 2 2 14 1;
#X connect 2 3 15 1;
#X connect 2 4 16 1;
#X connect 2 5 17 1;
#X connect 2 6 18 1;
#X connect 2 7 19 1;
#X connect 3 0 11 0;
#X connect 3 0 22 0;
#X connect 4 0 13 0;
#X connect 5 0 14 0;
#X connect 6 0 15 0;
#X connect 7 0 16 0;
#X connect 8 0 17 0;
#X connect 9 0 18 0;
#X connect 10 0 19 0;
#X connect 13 0 11 0;
#X connect 13 0 22 0;
#X connect 14 0 20 0;
#X connect 14 0 22 0;
#X connect 15 0 20 0;
#X connect 15 0 22 0;
#X connect 16 0 21 0;
#X connect 16 0 22 0;
#X connect 17 0 21 0;
#X connect 17 0 22 0;
#X connect 18 0 12 0;
#X connect 18 0 22 0;
#X connect 19 0 12 0;
#X connect 19 0 22 0;
#X restore 318 321 pd envelope_bank;
#X obj 397 647 *~;
#X obj 427 672 env~;
#X floatatom 427 713 5 0 0 0 - - master_snd_r 0;
#X obj 427 692 - 100;
#X obj 782 367 r master_fader;
#N canvas 0 23 1282 583 distortion 0;
#X obj 138 41 inlet~;
#X obj 142 61 *~, f 2;
#X obj 601 160 inlet;
#X obj 713 162 inlet;
#X obj 801 160 inlet;
#X obj 895 162 inlet;
#X obj 99 267 *~;
#X obj 246 271 *~;
#X obj 400 271 *~;
#X text 114 518 metal zone! GET IN THE ZONE.;
#X text 598 135 dist;
#X obj 971 163 inlet;
#X obj 1065 165 inlet;
#X text 714 141 low;
#X text 804 138 mid;
#X text 888 136 high;
#X text 962 139 mid freq;
#X obj 971 192 vsl 15 128 0 1 0 0 empty empty empty 0 -9 0 10 #fcfcfc #000000 #000000 0 1;
#X obj 973 350 + 200;
#X obj 973 326 * 5000;
#X floatatom 975 374 5 0 0 0 - - - 0;
#X obj 416 231 hip~ 7000;
#X obj 718 384 dbtorms;
#X obj 715 197 vsl 15 128 -1 1 0 0 empty empty empty 0 -9 0 10 #fcfcfc #000000 #000000 0 1;
#X obj 715 337 * 15;
#X floatatom 718 406 9 0 0 0 - - - 0;
#X floatatom 740 311 5 0 0 0 - - - 0;
#X obj 717 360 + 100;
#X obj 805 379 dbtorms;
#X obj 802 192 vsl 15 128 -1 1 0 0 empty empty empty 0 -9 0 10 #fcfcfc #000000 #000000 0 1;
#X obj 802 332 * 15;
#X floatatom 805 401 9 0 0 0 - - - 0;
#X floatatom 827 306 5 0 0 0 - - - 0;
#X obj 804 355 + 100;
#X obj 888 380 dbtorms;
#X obj 885 193 vsl 15 128 -1 1 0 0 empty empty empty 0 -9 0 10 #fcfcfc #000000 #000000 0 1;
#X obj 885 333 * 15;
#X floatatom 888 402 9 0 0 0 - - - 0;
#X floatatom 910 307 5 0 0 0 - - - 0;
#X obj 887 356 + 100;
#X obj 246 234 bp~ 1000 4;
#X obj 237 374 *~;
#X obj 237 421 outlet~;
#X text 1065 141 outlet;
#X obj 1066 193 vsl 15 128 0 1 0 0 empty empty empty 0 -9 0 10 #fcfcfc #000000 #000000 0 1;
#X floatatom 1090 310 5 0 0 0 - - - 0;
#X obj 599 381 dbtorms;
#X obj 596 199 vsl 15 128 -1 1 0 0 empty empty empty 0 -9 0 10 #fcfcfc #000000 #000000 0 1;
#X floatatom 599 403 9 0 0 0 - - - 0;
#X floatatom 621 308 5 0 0 0 - - - 0;
#X obj 108 228 bp~ 200 3.1;
#X msg 741 48 0;
#X msg 791 47 0.1;
#X floatatom 997 300 5 0 0 0 - - - 0;
#X msg 835 46 0.2;
#X obj 715 13 loadbang;
#X msg 896 46 1;
#X msg 667 52 0.35;
#X obj 142 112 clip~ -1 1;
#X obj 598 357 + 120;
#X text 374 77 feedback delay loop;
#X msg 595 54 1;
#X text 242 109 distort stage;
#X text 216 60 gain;
#X obj 145 151 *~ 1;
#X obj 63 87 expr~ tanh($v1);
#X floatatom 558 436 5 0 0 0 - - - 0;
#X obj 596 334 * 30;
#X text 529 478 alternatively \, * 20;
#X connect 0 0 1 0;
#X connect 1 0 58 0;
#X connect 1 0 65 0;
#X connect 2 0 47 0;
#X connect 3 0 23 0;
#X connect 4 0 29 0;
#X connect 5 0 35 0;
#X connect 6 0 41 0;
#X connect 7 0 41 0;
#X connect 8 0 41 0;
#X connect 11 0 17 0;
#X connect 12 0 44 0;
#X connect 17 0 19 0;
#X connect 17 0 53 0;
#X connect 18 0 20 0;
#X connect 18 0 40 1;
#X connect 19 0 18 0;
#X connect 21 0 8 0;
#X connect 22 0 25 0;
#X connect 23 0 24 0;
#X connect 23 0 26 0;
#X connect 24 0 27 0;
#X connect 25 0 6 1;
#X connect 27 0 22 0;
#X connect 28 0 31 0;
#X connect 29 0 30 0;
#X connect 29 0 32 0;
#X connect 30 0 33 0;
#X connect 31 0 7 1;
#X connect 33 0 28 0;
#X connect 34 0 37 0;
#X connect 35 0 36 0;
#X connect 35 0 38 0;
#X connect 36 0 39 0;
#X connect 37 0 8 1;
#X connect 39 0 34 0;
#X connect 40 0 7 0;
#X connect 41 0 42 0;
#X connect 44 0 45 0;
#X connect 44 0 41 1;
#X connect 46 0 48 0;
#X connect 47 0 49 0;
#X connect 47 0 67 0;
#X connect 48 0 1 1;
#X connect 50 0 6 0;
#X connect 51 0 29 0;
#X connect 52 0 35 0;
#X connect 54 0 17 0;
#X connect 55 0 57 0;
#X connect 55 0 51 0;
#X connect 55 0 52 0;
#X connect 55 0 54 0;
#X connect 55 0 56 0;
#X connect 55 0 61 0;
#X connect 56 0 44 0;
#X connect 57 0 23 0;
#X connect 59 0 46 0;
#X connect 59 0 66 0;
#X connect 61 0 47 0;
#X connect 64 0 50 0;
#X connect 64 0 40 0;
#X connect 64 0 21 0;
#X connect 65 0 64 0;
#X connect 67 0 59 0;
#X restore 435 391 pd distortion;
#N canvas 0 470 450 300 clean 0;
#X obj 58 27 inlet~;
#X obj 65 185 outlet~;
#X connect 0 0 1 0;
#X restore 363 390 pd clean;
#N canvas 0 23 279 427 crossfade 0;
#X obj 17 32 inlet~;
#X obj 81 32 inlet~;
#X obj 27 367 outlet~;
#X obj 37 219 cos~;
#X obj 110 219 cos~;
#X obj 118 130 hsl 100 15 0 0.25 0 0 empty empty empty -2 -8 0 10 #fcfcfc #000000 #000000 0 1;
#X floatatom 146 149 5 0 0 0 - - - 0;
#X obj 110 188 + 0.75;
#X obj 23 267 *~;
#X obj 96 269 *~;
#X obj 110 77 loadbang;
#X msg 110 101 0.125;
#X obj 186 93 * 0.25;
#X obj 176 31 inlet;
#X connect 0 0 8 0;
#X connect 1 0 9 0;
#X connect 3 0 8 1;
#X connect 4 0 9 1;
#X connect 5 0 6 0;
#X connect 5 0 3 0;
#X connect 5 0 7 0;
#X connect 7 0 4 0;
#X connect 8 0 2 0;
#X connect 9 0 2 0;
#X connect 10 0 11 0;
#X connect 11 0 5 0;
#X connect 12 0 5 0;
#X connect 13 0 12 0;
#X restore 356 460 pd crossfade;
#X obj 365 369 *~ 1;
#X obj 438 370 *~ 1;
#N canvas 0 23 1282 583 distortion 0;
#X obj 138 41 inlet~;
#X obj 142 61 *~, f 2;
#X obj 601 160 inlet;
#X obj 713 162 inlet;
#X obj 801 160 inlet;
#X obj 895 162 inlet;
#X obj 99 267 *~;
#X obj 246 271 *~;
#X obj 400 271 *~;
#X text 114 518 metal zone! GET IN THE ZONE.;
#X text 598 135 dist;
#X obj 971 163 inlet;
#X obj 1065 165 inlet;
#X text 714 141 low;
#X text 804 138 mid;
#X text 888 136 high;
#X text 962 139 mid freq;
#X obj 971 192 vsl 15 128 0 1 0 0 empty empty empty 0 -9 0 10 #fcfcfc #000000 #000000 0 1;
#X obj 973 350 + 200;
#X obj 973 326 * 5000;
#X floatatom 975 374 5 0 0 0 - - - 0;
#X obj 416 231 hip~ 7000;
#X obj 718 384 dbtorms;
#X obj 715 197 vsl 15 128 -1 1 0 0 empty empty empty 0 -9 0 10 #fcfcfc #000000 #000000 0 1;
#X obj 715 337 * 15;
#X floatatom 718 406 9 0 0 0 - - - 0;
#X floatatom 740 311 5 0 0 0 - - - 0;
#X obj 717 360 + 100;
#X obj 805 379 dbtorms;
#X obj 802 192 vsl 15 128 -1 1 0 0 empty empty empty 0 -9 0 10 #fcfcfc #000000 #000000 0 1;
#X obj 802 332 * 15;
#X floatatom 805 401 9 0 0 0 - - - 0;
#X floatatom 827 306 5 0 0 0 - - - 0;
#X obj 804 355 + 100;
#X obj 888 380 dbtorms;
#X obj 885 193 vsl 15 128 -1 1 0 0 empty empty empty 0 -9 0 10 #fcfcfc #000000 #000000 0 1;
#X obj 885 333 * 15;
#X floatatom 888 402 9 0 0 0 - - - 0;
#X floatatom 910 307 5 0 0 0 - - - 0;
#X obj 887 356 + 100;
#X obj 246 234 bp~ 1000 4;
#X obj 237 374 *~;
#X obj 237 421 outlet~;
#X text 1065 141 outlet;
#X obj 1066 193 vsl 15 128 0 1 0 0 empty empty empty 0 -9 0 10 #fcfcfc #000000 #000000 0 1;
#X floatatom 1090 310 5 0 0 0 - - - 0;
#X obj 599 381 dbtorms;
#X obj 596 199 vsl 15 128 -1 1 0 0 empty empty empty 0 -9 0 10 #fcfcfc #000000 #000000 0 1;
#X floatatom 599 403 9 0 0 0 - - - 0;
#X floatatom 621 308 5 0 0 0 - - - 0;
#X obj 108 228 bp~ 200 3.1;
#X msg 741 48 0;
#X msg 791 47 0.1;
#X floatatom 997 300 5 0 0 0 - - - 0;
#X msg 835 46 0.2;
#X obj 715 13 loadbang;
#X msg 896 46 1;
#X msg 667 52 0.35;
#X obj 142 112 clip~ -1 1;
#X obj 598 357 + 120;
#X text 374 77 feedback delay loop;
#X msg 595 54 1;
#X text 242 109 distort stage;
#X text 216 60 gain;
#X obj 145 151 *~ 1;
#X obj 63 87 expr~ tanh($v1);
#X floatatom 558 436 5 0 0 0 - - - 0;
#X obj 596 334 * 30;
#X text 529 478 alternatively \, * 20;
#X connect 0 0 1 0;
#X connect 1 0 58 0;
#X connect 1 0 65 0;
#X connect 2 0 47 0;
#X connect 3 0 23 0;
#X connect 4 0 29 0;
#X connect 5 0 35 0;
#X connect 6 0 41 0;
#X connect 7 0 41 0;
#X connect 8 0 41 0;
#X connect 11 0 17 0;
#X connect 12 0 44 0;
#X connect 17 0 19 0;
#X connect 17 0 53 0;
#X connect 18 0 20 0;
#X connect 18 0 40 1;
#X connect 19 0 18 0;
#X connect 21 0 8 0;
#X connect 22 0 25 0;
#X connect 23 0 24 0;
#X connect 23 0 26 0;
#X connect 24 0 27 0;
#X connect 25 0 6 1;
#X connect 27 0 22 0;
#X connect 28 0 31 0;
#X connect 29 0 30 0;
#X connect 29 0 32 0;
#X connect 30 0 33 0;
#X connect 31 0 7 1;
#X connect 33 0 28 0;
#X connect 34 0 37 0;
#X connect 35 0 36 0;
#X connect 35 0 38 0;
#X connect 36 0 39 0;
#X connect 37 0 8 1;
#X connect 39 0 34 0;
#X connect 40 0 7 0;
#X connect 41 0 42 0;
#X connect 44 0 45 0;
#X connect 44 0 41 1;
#X connect 46 0 48 0;
#X connect 47 0 49 0;
#X connect 47 0 67 0;
#X connect 48 0 1 1;
#X connect 50 0 6 0;
#X connect 51 0 29 0;
#X connect 52 0 35 0;
#X connect 54 0 17 0;
#X connect 55 0 57 0;
#X connect 55 0 51 0;
#X connect 55 0 52 0;
#X connect 55 0 54 0;
#X connect 55 0 56 0;
#X connect 55 0 61 0;
#X connect 56 0 44 0;
#X connect 57 0 23 0;
#X connect 59 0 46 0;
#X connect 59 0 66 0;
#X connect 61 0 47 0;
#X connect 64 0 50 0;
#X connect 64 0 40 0;
#X connect 64 0 21 0;
#X connect 65 0 64 0;
#X connect 67 0 59 0;
#X restore 857 451 pd distortion;
#X obj 882 92 vsl 30 150 0 127 0 0 revlev empty rev 0 -9 0 10 #fcfcfc #000000 #000000 0 1;
#X obj 521 531 r revlev;
#X obj 930 93 vsl 30 150 0 127 0 0 distlev empty dist 0 -9 0 10 #fcfcfc #000000 #000000 0 1;
#X obj 869 407 r distlev;
#X obj 825 95 vsl 30 150 0 127 0 0 balance empty balance 0 -9 0 10 #fc8000 #000000 #000000 0 1;
#X obj 441 432 r balance;
#X obj 854 487 *~ 0.05;
#X obj 869 428 / 127;
#X obj 460 450 / 127;
#X obj 527 432 r balance;
#X obj 590 432 / 127;
#N canvas 235 390 450 300 xtosc 0;
#X obj 216 94 abs;
#X obj 198 139 *~;
#X obj 216 116 lop~ 3;
#X obj 176 91 *~;
#X obj 177 114 osc~;
#X obj 173 39 inlet~;
#X obj 225 40 inlet;
#X obj 198 169 outlet~;
#X obj 91 39 r~ base_freq;
#X connect 0 0 2 0;
#X connect 1 0 7 0;
#X connect 2 0 1 1;
#X connect 3 0 4 0;
#X connect 4 0 1 0;
#X connect 5 0 3 1;
#X connect 6 0 0 0;
#X connect 8 0 3 0;
#X restore 241 241 pd xtosc;
#X obj 85 240 s~ base_freq;
#N canvas 235 390 450 300 xtosc 0;
#X obj 216 94 abs;
#X obj 198 139 *~;
#X obj 216 116 lop~ 3;
#X obj 176 91 *~;
#X obj 177 114 osc~;
#X obj 173 39 inlet~;
#X obj 225 40 inlet;
#X obj 198 169 outlet~;
#X obj 91 39 r~ base_freq;
#X connect 0 0 2 0;
#X connect 1 0 7 0;
#X connect 2 0 1 1;
#X connect 3 0 4 0;
#X connect 4 0 1 0;
#X connect 5 0 3 1;
#X connect 6 0 0 0;
#X connect 8 0 3 0;
#X restore 304 240 pd xtosc;
#N canvas 235 390 450 300 xtosc 0;
#X obj 216 94 abs;
#X obj 198 139 *~;
#X obj 216 116 lop~ 3;
#X obj 176 91 *~;
#X obj 177 114 osc~;
#X obj 173 39 inlet~;
#X obj 225 40 inlet;
#X obj 198 169 outlet~;
#X obj 91 39 r~ base_freq;
#X connect 0 0 2 0;
#X connect 1 0 7 0;
#X connect 2 0 1 1;
#X connect 3 0 4 0;
#X connect 4 0 1 0;
#X connect 5 0 3 1;
#X connect 6 0 0 0;
#X connect 8 0 3 0;
#X restore 360 241 pd xtosc;
#N canvas 235 390 450 300 xtosc 0;
#X obj 216 94 abs;
#X obj 198 139 *~;
#X obj 216 116 lop~ 3;
#X obj 176 91 *~;
#X obj 177 114 osc~;
#X obj 173 39 inlet~;
#X obj 225 40 inlet;
#X obj 198 169 outlet~;
#X obj 91 39 r~ base_freq;
#X connect 0 0 2 0;
#X connect 1 0 7 0;
#X connect 2 0 1 1;
#X connect 3 0 4 0;
#X connect 4 0 1 0;
#X connect 5 0 3 1;
#X connect 6 0 0 0;
#X connect 8 0 3 0;
#X restore 419 241 pd xtosc;
#N canvas 235 390 450 300 xtosc 0;
#X obj 216 94 abs;
#X obj 198 139 *~;
#X obj 216 116 lop~ 3;
#X obj 176 91 *~;
#X obj 177 114 osc~;
#X obj 173 39 inlet~;
#X obj 225 40 inlet;
#X obj 198 169 outlet~;
#X obj 91 39 r~ base_freq;
#X connect 0 0 2 0;
#X connect 1 0 7 0;
#X connect 2 0 1 1;
#X connect 3 0 4 0;
#X connect 4 0 1 0;
#X connect 5 0 3 1;
#X connect 6 0 0 0;
#X connect 8 0 3 0;
#X restore 480 242 pd xtosc;
#N canvas 235 390 450 300 xtosc 0;
#X obj 216 94 abs;
#X obj 198 139 *~;
#X obj 216 116 lop~ 3;
#X obj 176 91 *~;
#X obj 177 114 osc~;
#X obj 173 39 inlet~;
#X obj 225 40 inlet;
#X obj 198 169 outlet~;
#X obj 91 39 r~ base_freq;
#X connect 0 0 2 0;
#X connect 1 0 7 0;
#X connect 2 0 1 1;
#X connect 3 0 4 0;
#X connect 4 0 1 0;
#X connect 5 0 3 1;
#X connect 6 0 0 0;
#X connect 8 0 3 0;
#X restore 541 242 pd xtosc;
#N canvas 235 390 450 300 xtosc 0;
#X obj 216 94 abs;
#X obj 198 139 *~;
#X obj 216 116 lop~ 3;
#X obj 176 91 *~;
#X obj 177 114 osc~;
#X obj 173 39 inlet~;
#X obj 225 40 inlet;
#X obj 198 169 outlet~;
#X obj 91 39 r~ base_freq;
#X connect 0 0 2 0;
#X connect 1 0 7 0;
#X connect 2 0 1 1;
#X connect 3 0 4 0;
#X connect 4 0 1 0;
#X connect 5 0 3 1;
#X connect 6 0 0 0;
#X connect 8 0 3 0;
#X restore 602 241 pd xtosc;
#N canvas 235 390 450 300 xtosc 0;
#X obj 216 94 abs;
#X obj 198 139 *~;
#X obj 216 116 lop~ 3;
#X obj 176 91 *~;
#X obj 177 114 osc~;
#X obj 173 39 inlet~;
#X obj 225 40 inlet;
#X obj 198 169 outlet~;
#X obj 91 39 r~ base_freq;
#X connect 0 0 2 0;
#X connect 1 0 7 0;
#X connect 2 0 1 1;
#X connect 3 0 4 0;
#X connect 4 0 1 0;
#X connect 5 0 3 1;
#X connect 6 0 0 0;
#X connect 8 0 3 0;
#X restore 661 240 pd xtosc;
#X obj 654 335 r distlev;
#X obj 654 356 / 127;
#X obj 479 347 r distlev;
#X obj 479 368 / 127;
#X obj 380 697 dac~;
#X obj 363 412 *~ 1;
#X obj 435 413 *~ 1;
#N canvas 0 23 279 427 crossfade 0;
#X obj 17 32 inlet~;
#X obj 81 32 inlet~;
#X obj 27 367 outlet~;
#X obj 37 219 cos~;
#X obj 110 219 cos~;
#X obj 118 130 hsl 100 15 0 0.25 0 0 empty empty empty -2 -8 0 10 #fcfcfc #000000 #000000 0 1;
#X floatatom 146 149 5 0 0 0 - - - 0;
#X obj 110 188 + 0.75;
#X obj 23 267 *~;
#X obj 96 269 *~;
#X obj 110 77 loadbang;
#X msg 110 101 0.125;
#X obj 186 93 * 0.25;
#X obj 176 31 inlet;
#X connect 0 0 8 0;
#X connect 1 0 9 0;
#X connect 3 0 8 1;
#X connect 4 0 9 1;
#X connect 5 0 6 0;
#X connect 5 0 3 0;
#X connect 5 0 7 0;
#X connect 7 0 4 0;
#X connect 8 0 2 0;
#X connect 9 0 2 0;
#X connect 10 0 11 0;
#X connect 11 0 5 0;
#X connect 12 0 5 0;
#X connect 13 0 12 0;
#X restore 406 582 pd crossfade;
#N canvas 0 23 279 427 crossfade 0;
#X obj 17 32 inlet~;
#X obj 81 32 inlet~;
#X obj 27 367 outlet~;
#X obj 37 219 cos~;
#X obj 110 219 cos~;
#X obj 118 130 hsl 100 15 0 0.25 0 0 empty empty empty -2 -8 0 10 #fcfcfc #000000 #000000 0 1;
#X floatatom 146 149 5 0 0 0 - - - 0;
#X obj 110 188 + 0.75;
#X obj 23 267 *~;
#X obj 96 269 *~;
#X obj 110 77 loadbang;
#X msg 110 101 0.125;
#X obj 186 93 * 0.25;
#X obj 176 31 inlet;
#X connect 0 0 8 0;
#X connect 1 0 9 0;
#X connect 3 0 8 1;
#X connect 4 0 9 1;
#X connect 5 0 6 0;
#X connect 5 0 3 0;
#X connect 5 0 7 0;
#X connect 7 0 4 0;
#X connect 8 0 2 0;
#X connect 9 0 2 0;
#X connect 10 0 11 0;
#X connect 11 0 5 0;
#X connect 12 0 5 0;
#X connect 13 0 12 0;
#X restore 328 581 pd crossfade;
#X obj 522 551 / 127;
#X obj 391 521 rev2~ 100 85 3000 50;
#X obj 388 491 expr~ tanh($v1);
#X obj 170 490 dbtorms;
#X obj 172 445 / 127;
#X obj 170 467 * 110;
#X floatatom 170 518 5 0 0 0 - - - 0;
#X obj 157 535 lop~ 3;
#X obj 172 405 loadbang;
#X msg 172 424 64;
#X obj 311 484 *~;
#X obj 172 385 r rev_in;
#X obj 1143 195 fieldgrain field-table;
#X obj 1486 452 loadbang;
#X obj 1486 532 soundfiler;
#X msg 1486 505 read -resize ./fieldrecording-30s.wav field-table;
#N canvas 0 22 450 278 (subpatch) 0;
#X array field-table 1.323e+06 float 2;
#X coords 0 1 1.323e+06 -1 200 140 1;
#X restore 1483 619 graph;
#X obj 1608 478 declare .;
#X obj 1499 567 s num_samples;
#X obj 1565 460 bng 15 250 50 0 empty empty empty 17 7 0 10 #fcfcfc #000000 #000000;
#N canvas 1001 310 882 264 envelope_bank 0;
#X obj 23 91 inlet~;
#X obj 272 10 r emg;
#X obj 258 33 unpack f f f f f f f f;
#X obj 23 123 xtouch_env 0;
#X obj 108 92 inlet~;
#X obj 192 92 inlet~;
#X obj 274 93 inlet~;
#X obj 356 91 inlet~;
#X obj 438 92 inlet~;
#X obj 519 92 inlet~;
#X obj 603 92 inlet~;
#X obj 78 166 outlet~;
#X obj 570 158 outlet~;
#X obj 108 124 xtouch_env 1;
#X obj 192 124 xtouch_env 2;
#X obj 274 125 xtouch_env 3;
#X obj 356 123 xtouch_env 4;
#X obj 438 124 xtouch_env 5;
#X obj 519 124 xtouch_env 6;
#X obj 603 124 xtouch_env 7;
#X obj 232 157 outlet~;
#X obj 398 158 outlet~;
#X obj 747 157 outlet~;
#X connect 0 0 3 0;
#X connect 1 0 2 0;
#X connect 2 0 3 1;
#X connect 2 1 13 1;
#X connect 2 2 14 1;
#X connect 2 3 15 1;
#X connect 2 4 16 1;
#X connect 2 5 17 1;
#X connect 2 6 18 1;
#X connect 2 7 19 1;
#X connect 3 0 11 0;
#X connect 3 0 22 0;
#X connect 4 0 13 0;
#X connect 5 0 14 0;
#X connect 6 0 15 0;
#X connect 7 0 16 0;
#X connect 8 0 17 0;
#X connect 9 0 18 0;
#X connect 10 0 19 0;
#X connect 13 0 11 0;
#X connect 13 0 22 0;
#X connect 14 0 20 0;
#X connect 14 0 22 0;
#X connect 15 0 20 0;
#X connect 15 0 22 0;
#X connect 16 0 21 0;
#X connect 16 0 22 0;
#X connect 17 0 21 0;
#X connect 17 0 22 0;
#X connect 18 0 12 0;
#X connect 18 0 22 0;
#X connect 19 0 12 0;
#X connect 19 0 22 0;
#X restore 1187 308 pd envelope_bank;
#X obj 1184 215 fieldgrain field-table;
#X obj 1211 234 fieldgrain field-table;
#X obj 1230 252 fieldgrain field-table;
#X obj 1350 193 fieldgrain field-table;
#X obj 1391 213 fieldgrain field-table;
#X obj 1418 232 fieldgrain field-table;
#X obj 1437 250 fieldgrain field-table;
#X obj 1238 54 r emg;
#X obj 1222 84 unpack f f f f f f f f;
#X obj 1433 121 tgl 15 0 empty empty empty 17 7 0 10 #fcfcfc #000000 #000000 0 1;
#X obj 428 111 tgl 15 0 empty empty empty 17 7 0 10 #fcfcfc #000000 #000000 0 1;
#X obj 429 135 eight_toggles 1;
#X obj 1434 145 eight_toggles 0;
#X connect 0 0 23 0;
#X connect 1 0 31 0;
#X connect 2 0 65 0;
#X connect 2 1 67 0;
#X connect 2 2 68 0;
#X connect 2 3 69 0;
#X connect 2 4 70 0;
#X connect 2 5 71 0;
#X connect 2 6 72 0;
#X connect 2 7 73 0;
#X connect 3 0 15 0;
#X connect 4 0 5 0;
#X connect 4 0 7 0;
#X connect 5 0 6 0;
#X connect 6 0 2 0;
#X connect 7 0 8 0;
#X connect 8 0 2 1;
#X connect 9 0 4 0;
#X connect 11 0 10 1;
#X connect 12 0 11 0;
#X connect 13 0 14 0;
#X connect 14 0 16 0;
#X connect 15 0 16 1;
#X connect 16 0 10 0;
#X connect 17 0 19 0;
#X connect 19 0 18 0;
#X connect 20 0 41 0;
#X connect 21 0 3 0;
#X connect 21 0 13 0;
#X connect 22 0 3 0;
#X connect 22 0 13 0;
#X connect 24 0 25 0;
#X connect 24 0 27 0;
#X connect 26 0 9 0;
#X connect 27 0 26 0;
#X connect 28 0 29 0;
#X connect 29 0 30 0;
#X connect 29 1 24 0;
#X connect 30 0 20 0;
#X connect 31 0 66 0;
#X connect 32 0 35 0;
#X connect 32 0 36 0;
#X connect 33 0 34 0;
#X connect 34 0 32 0;
#X connect 36 0 37 1;
#X connect 36 0 43 1;
#X connect 37 0 17 0;
#X connect 37 0 78 0;
#X connect 38 0 39 0;
#X connect 39 0 33 0;
#X connect 41 0 1 0;
#X connect 41 0 40 0;
#X connect 42 4 52 0;
#X connect 42 4 51 0;
#X connect 43 0 44 0;
#X connect 43 0 78 1;
#X connect 44 0 46 0;
#X connect 46 0 45 0;
#X connect 47 0 33 0;
#X connect 48 0 80 0;
#X connect 49 0 79 0;
#X connect 50 0 82 0;
#X connect 50 0 81 0;
#X connect 50 0 93 0;
#X connect 51 0 48 0;
#X connect 51 0 49 0;
#X connect 52 0 48 0;
#X connect 52 0 49 0;
#X connect 53 0 60 0;
#X connect 55 0 83 0;
#X connect 57 0 61 0;
#X connect 59 0 62 0;
#X connect 61 0 53 6;
#X connect 62 0 50 2;
#X connect 63 0 64 0;
#X connect 64 0 16 2;
#X connect 65 0 42 0;
#X connect 67 0 42 1;
#X connect 68 0 42 2;
#X connect 69 0 42 3;
#X connect 70 0 42 4;
#X connect 71 0 42 5;
#X connect 72 0 42 6;
#X connect 73 0 42 7;
#X connect 74 0 75 0;
#X connect 75 0 3 1;
#X connect 76 0 77 0;
#X connect 77 0 48 1;
#X connect 79 0 50 0;
#X connect 80 0 50 1;
#X connect 81 0 43 0;
#X connect 82 0 37 0;
#X connect 83 0 82 2;
#X connect 83 0 81 2;
#X connect 84 0 82 1;
#X connect 84 1 81 1;
#X connect 85 0 84 0;
#X connect 86 0 89 0;
#X connect 86 0 90 0;
#X connect 87 0 88 0;
#X connect 88 0 86 0;
#X connect 90 0 93 1;
#X connect 91 0 92 0;
#X connect 92 0 87 0;
#X connect 93 0 85 0;
#X connect 94 0 87 0;
#X connect 95 0 103 0;
#X connect 96 0 98 0;
#X connect 97 0 101 0;
#X connect 98 0 97 0;
#X connect 102 0 98 0;
#X connect 103 4 51 0;
#X connect 103 4 52 0;
#X connect 104 0 103 1;
#X connect 105 0 103 2;
#X connect 106 0 103 3;
#X connect 107 0 103 4;
#X connect 108 0 103 5;
#X connect 109 0 103 6;
#X connect 110 0 103 7;
#X connect 111 0 112 0;
#X connect 112 0 95 0;
#X connect 112 0 110 1;
#X connect 112 1 104 0;
#X connect 112 1 109 1;
#X connect 112 2 105 0;
#X connect 112 2 108 1;
#X connect 112 3 106 0;
#X connect 112 3 107 1;
#X connect 112 4 107 0;
#X connect 112 4 106 1;
#X connect 112 5 108 0;
#X connect 112 5 105 1;
#X connect 112 6 109 0;
#X connect 112 6 104 1;
#X connect 112 7 95 1;
#X connect 112 7 110 0;
#X connect 113 0 116 0;
#X connect 114 0 115 0;
#X connect 115 0 65 1;
#X connect 115 1 67 1;
#X connect 115 2 68 1;
#X connect 115 3 69 1;
#X connect 115 4 70 1;
#X connect 115 5 71 1;
#X connect 115 6 72 1;
#X connect 115 7 73 1;
#X connect 116 0 95 2;
#X connect 116 1 104 2;
#X connect 116 2 105 2;
#X connect 116 3 106 2;
#X connect 116 4 107 2;
#X connect 116 5 108 2;
#X connect 116 6 109 2;
#X connect 116 7 110 2;
#X restore 18 212 pd synth-module;
#N canvas 761 458 812 370 osc_receiving 0;
#X obj 132 58 netreceive -u -b;
#X msg 132 34 listen 5000;
#X obj 133 82 oscparse;
#X obj 133 106 list trim;
#X floatatom 7 158 10 0 0 0 - - - 0;
#X obj 11 132 timer;
#X obj 10 102 t b b;
#X obj 133 14 bng 15 250 50 0 empty empty empty 17 7 0 10 #fcfcfc #000000 #000000;
#X obj 160 11 inlet;
#X obj 132 129 unpack s f f f f f f f f;
#X obj 271 68 list split 1;
#X obj 321 106 s emg;
#X text 372 75 send to sound;
#X obj 91 283 ctlout 1;
#X obj 86 214 * 12;
#X obj 87 236 + 1;
#X obj 121 257 + 8;
#X floatatom 127 306 5 0 0 0 - - - 0;
#X floatatom 88 306 5 0 0 0 - - - 0;
#X obj 88 259 int;
#X obj 87 191 t f b;
#X msg 124 233 1;
#X obj 174 282 ctlout 1;
#X obj 169 213 * 12;
#X obj 170 235 + 1;
#X obj 204 256 + 8;
#X floatatom 210 305 5 0 0 0 - - - 0;
#X floatatom 171 305 5 0 0 0 - - - 0;
#X obj 171 258 int;
#X obj 170 190 t f b;
#X obj 256 281 ctlout 1;
#X obj 251 212 * 12;
#X obj 252 234 + 1;
#X obj 286 255 + 8;
#X floatatom 292 304 5 0 0 0 - - - 0;
#X floatatom 253 304 5 0 0 0 - - - 0;
#X obj 253 257 int;
#X obj 252 189 t f b;
#X obj 336 281 ctlout 1;
#X obj 331 212 * 12;
#X obj 332 234 + 1;
#X obj 366 255 + 8;
#X floatatom 372 304 5 0 0 0 - - - 0;
#X floatatom 333 304 5 0 0 0 - - - 0;
#X obj 333 257 int;
#X obj 332 189 t f b;
#X obj 419 281 ctlout 1;
#X obj 414 212 * 12;
#X obj 415 234 + 1;
#X obj 449 255 + 8;
#X floatatom 455 304 5 0 0 0 - - - 0;
#X floatatom 416 304 5 0 0 0 - - - 0;
#X obj 416 257 int;
#X obj 415 189 t f b;
#X obj 499 279 ctlout 1;
#X obj 494 210 * 12;
#X obj 495 232 + 1;
#X obj 529 253 + 8;
#X floatatom 535 302 5 0 0 0 - - - 0;
#X floatatom 496 302 5 0 0 0 - - - 0;
#X obj 496 255 int;
#X obj 495 187 t f b;
#X obj 580 279 ctlout 1;
#X obj 575 210 * 12;
#X obj 576 232 + 1;
#X obj 610 253 + 8;
#X floatatom 616 302 5 0 0 0 - - - 0;
#X floatatom 577 302 5 0 0 0 - - - 0;
#X obj 577 255 int;
#X obj 576 187 t f b;
#X obj 661 279 ctlout 1;
#X obj 656 210 * 12;
#X obj 657 232 + 1;
#X obj 691 253 + 8;
#X floatatom 697 302 5 0 0 0 - - - 0;
#X floatatom 658 302 5 0 0 0 - - - 0;
#X obj 658 255 int;
#X obj 657 187 t f b;
#X msg 207 232 2;
#X msg 289 231 3;
#X msg 369 231 4;
#X msg 452 231 5;
#X msg 532 229 6;
#X msg 613 229 7;
#X msg 694 229 8;
#X obj 365 106 s neural_net_only;
#X connect 0 0 2 0;
#X connect 1 0 0 0;
#X connect 2 0 3 0;
#X connect 3 0 9 0;
#X connect 3 0 10 0;
#X connect 5 0 4 0;
#X connect 6 0 5 0;
#X connect 6 1 5 1;
#X connect 7 0 1 0;
#X connect 8 0 7 0;
#X connect 9 0 6 0;
#X connect 9 1 20 0;
#X connect 9 2 29 0;
#X connect 9 3 37 0;
#X connect 9 4 45 0;
#X connect 9 5 53 0;
#X connect 9 6 61 0;
#X connect 9 7 69 0;
#X connect 9 8 77 0;
#X connect 10 1 11 0;
#X connect 10 1 85 0;
#X connect 14 0 15 0;
#X connect 15 0 19 0;
#X connect 16 0 17 0;
#X connect 16 0 13 1;
#X connect 19 0 13 0;
#X connect 19 0 18 0;
#X connect 20 0 14 0;
#X connect 20 1 21 0;
#X connect 21 0 16 0;
#X connect 23 0 24 0;
#X connect 24 0 28 0;
#X connect 25 0 26 0;
#X connect 25 0 22 1;
#X connect 28 0 22 0;
#X connect 28 0 27 0;
#X connect 29 0 23 0;
#X connect 29 1 78 0;
#X connect 31 0 32 0;
#X connect 32 0 36 0;
#X connect 33 0 34 0;
#X connect 33 0 30 1;
#X connect 36 0 30 0;
#X connect 36 0 35 0;
#X connect 37 0 31 0;
#X connect 37 1 79 0;
#X connect 39 0 40 0;
#X connect 40 0 44 0;
#X connect 41 0 42 0;
#X connect 41 0 38 1;
#X connect 44 0 38 0;
#X connect 44 0 43 0;
#X connect 45 0 39 0;
#X connect 45 1 80 0;
#X connect 47 0 48 0;
#X connect 48 0 52 0;
#X connect 49 0 50 0;
#X connect 49 0 46 1;
#X connect 52 0 46 0;
#X connect 52 0 51 0;
#X connect 53 0 47 0;
#X connect 53 1 81 0;
#X connect 55 0 56 0;
#X connect 56 0 60 0;
#X connect 57 0 58 0;
#X connect 57 0 54 1;
#X connect 60 0 54 0;
#X connect 60 0 59 0;
#X connect 61 0 55 0;
#X connect 61 1 82 0;
#X connect 63 0 64 0;
#X connect 64 0 68 0;
#X connect 65 0 66 0;
#X connect 65 0 62 1;
#X connect 68 0 62 0;
#X connect 68 0 67 0;
#X connect 69 0 63 0;
#X connect 69 1 83 0;
#X connect 71 0 72 0;
#X connect 72 0 76 0;
#X connect 73 0 74 0;
#X connect 73 0 70 1;
#X connect 76 0 70 0;
#X connect 76 0 75 0;
#X connect 77 0 71 0;
#X connect 77 1 84 0;
#X connect 78 0 25 0;
#X connect 79 0 33 0;
#X connect 80 0 41 0;
#X connect 81 0 49 0;
#X connect 82 0 57 0;
#X connect 83 0 65 0;
#X connect 84 0 73 0;
#X restore 483 210 pd osc_receiving;
#N canvas 761 28 1161 407 blinkenlights 0;
#X obj 181 89 bng 15 250 50 0 empty empty empty 17 7 0 10 #fcfcfc #000000 #000000;
#X obj 147 318 noteout 1;
#X obj 248 319 noteout 17;
#X msg 221 256 1;
#X obj 168 228 t f b;
#X obj 310 227 t f b;
#X msg 363 255 0;
#X obj 166 165 until;
#X obj 167 192 f;
#X obj 178 116 t b b;
#X msg 210 139 0;
#X obj 200 192 + 1;
#X floatatom 220 221 5 0 0 0 - - - 0;
#X obj 305 163 until;
#X obj 306 190 f;
#X obj 317 114 t b b;
#X msg 349 137 0;
#X msg 310 139 16;
#X obj 344 190 + 1;
#X floatatom 359 219 5 0 0 0 - - - 0;
#X obj 313 87 bng 15 250 50 0 empty empty empty 17 7 0 10 #fcfcfc #000000 #000000;
#X obj 204 40 inlet;
#X obj 315 46 inlet;
#X obj 508 164 until;
#X obj 508 192 f;
#X obj 531 111 t b b;
#X obj 543 193 + 1;
#X floatatom 554 219 5 0 0 0 - - - 0;
#X obj 543 80 bng 15 250 50 0 empty empty empty 17 7 0 10 #fcfcfc #000000 #000000;
#X obj 545 48 inlet;
#X obj 499 220 t b f;
#X msg 499 258 2;
#X msg 533 138 8;
#X obj 512 295 ctlout 1;
#X msg 578 138 1;
#X obj 725 70 r butOn;
#X obj 727 146 noteout 1;
#X obj 731 232 bng 15 250 50 0 empty empty empty 17 7 0 10 #fcfcfc #000000 #000000;
#X floatatom 745 260 5 0 0 0 - - - 0;
#X obj 731 294 f;
#X obj 725 104 t f b;
#X msg 764 120 1;
#X obj 810 143 noteout 1;
#X obj 808 101 t f b;
#X obj 808 67 r butOff;
#X msg 847 117 0;
#X obj 908 344 makenote;
#X msg 923 309 1;
#X obj 898 274 t f b b;
#X obj 917 378 noteout 1;
#X obj 732 319 s butBl;
#X obj 895 229 r butBl;
#X msg 964 308 100;
#X obj 952 94 f;
#X obj 974 67 select 0;
#X floatatom 965 123 5 0 0 0 - - - 0;
#X obj 957 35 notein 11;
#X obj 966 144 - 8;
#X obj 970 168 s envTrig;
#X obj 33 129 s envlev;
#X obj 32 102 f 0.1;
#X msg 171 141 8;
#X connect 0 0 9 0;
#X connect 3 0 2 1;
#X connect 3 0 1 1;
#X connect 4 0 1 0;
#X connect 4 0 2 0;
#X connect 4 1 3 0;
#X connect 5 0 1 0;
#X connect 5 0 2 0;
#X connect 5 1 6 0;
#X connect 6 0 1 1;
#X connect 6 0 2 1;
#X connect 7 0 8 0;
#X connect 8 0 11 0;
#X connect 8 0 4 0;
#X connect 8 0 12 0;
#X connect 9 0 61 0;
#X connect 9 1 10 0;
#X connect 10 0 8 1;
#X connect 11 0 8 1;
#X connect 13 0 14 0;
#X connect 14 0 18 0;
#X connect 14 0 19 0;
#X connect 14 0 5 0;
#X connect 15 0 17 0;
#X connect 15 1 16 0;
#X connect 16 0 14 1;
#X connect 17 0 13 0;
#X connect 18 0 14 1;
#X connect 20 0 15 0;
#X connect 21 0 0 0;
#X connect 21 0 60 0;
#X connect 22 0 20 0;
#X connect 23 0 24 0;
#X connect 24 0 26 0;
#X connect 24 0 27 0;
#X connect 24 0 30 0;
#X connect 25 0 32 0;
#X connect 25 1 34 0;
#X connect 26 0 24 1;
#X connect 28 0 25 0;
#X connect 29 0 28 0;
#X connect 30 0 31 0;
#X connect 30 1 33 1;
#X connect 31 0 33 0;
#X connect 32 0 23 0;
#X connect 34 0 24 1;
#X connect 35 0 40 0;
#X connect 37 0 39 0;
#X connect 38 0 39 1;
#X connect 39 0 50 0;
#X connect 40 0 36 0;
#X connect 40 1 41 0;
#X connect 41 0 36 1;
#X connect 43 0 42 0;
#X connect 43 1 45 0;
#X connect 44 0 43 0;
#X connect 45 0 42 1;
#X connect 46 0 49 0;
#X connect 46 1 49 1;
#X connect 47 0 46 1;
#X connect 48 0 46 0;
#X connect 48 1 47 0;
#X connect 48 2 52 0;
#X connect 51 0 48 0;
#X connect 52 0 46 2;
#X connect 53 0 55 0;
#X connect 54 0 53 0;
#X connect 55 0 57 0;
#X connect 56 0 53 1;
#X connect 56 1 54 0;
#X connect 57 0 58 0;
#X connect 60 0 59 0;
#X connect 61 0 7 0;
#X restore 335 214 pd blinkenlights;
#X obj 211 476 vsl 40 200 0 127 0 0 envlev korg-fad-2 envlev 0 -9 0 10 #fc8008 #000000 #000000 0 1;
#X obj 19 474 vu 30 200 master_snd_l empty -1 -8 0 10 #404040 #000000 1 0;
#X obj 87 474 vu 30 200 master_snd_r empty -1 -8 0 10 #404040 #000000 1 0;
#X obj 159 476 vsl 40 200 0 127 0 0 master_fader empty master 0 -9 0 10 #f80004 #000000 #000000 0 1;
#X obj 163 444 ctlin 9;
#X obj 17 232 korg-nanokontrol-input;
#X obj 326 472 vsl 40 200 0 127 0 0 revlev korg-fad-4 rev 0 -9 0 10 #7cfc04 #000000 #000000 0 1;
#X obj 382 472 vsl 40 200 0 127 0 0 distlev korg-fad-5 dist 0 -9 0 10 #20fc04 #000000 #000000 0 1;
#X obj 266 473 vsl 40 200 0 127 0 0 balance korg-fad-3 balance 0 -9 0 10 #fcfc08 #000000 #000000 0 1;
#X obj 436 473 vsl 40 200 0 127 0 0 rev_in korg-fad-6 rev_in 0 -9 0 10 #20fc80 #000000 #000000 0 1;
#X obj 488 472 vsl 40 200 1.27 127 1 0 sig_temp korg-fad-7 sig_temp 0 -9 0 10 #20fcfc #000000 #000000 0 1;
#X obj 547 471 vsl 40 200 1.27 127 1 0 pi_temp korg-fad-8 pi_temp 0 -9 0 10 #0c7cfc #000000 #000000 0 1;
#X obj 602 471 vsl 40 200 1.27 127 1 0 timescale korg-fad-9 timescale 0 -9 0 10 #0000fc #000000 #000000 0 1;
#X obj 212 443 ctlin 10;
#X obj 19 277 neural-bank;
#X connect 0 0 1 0;
#X connect 0 1 1 1;
#X connect 0 2 1 2;
#X connect 0 3 1 3;
#X connect 0 4 1 4;
#X connect 0 5 1 5;
#X connect 0 6 1 6;
#X connect 0 7 1 7;
#X connect 2 0 1 8;
#X connect 2 0 4 0;
#X connect 2 0 5 0;
#X connect 2 0 5 2;
#X connect 10 0 9 0;
#X connect 19 0 9 0;
