#N canvas 1009 132 649 563 10;
#X declare -path metaPdLibs/control;
#X declare -path metaPdLibs/fx;
#X declare -path metaPdLibs/instrument;
#X declare -path metaPdLibs/scales;
#X declare -path control;
#X declare -path fx;
#X declare -path instrument;
#X declare -path scales;
#X obj 33 12 loadMetaPdLibs;
#X obj 183 287 adc~;
#X obj 245 449 dac~;
#X obj 157 388 graindelay~;
#X obj 552 7 loadbang;
#X msg 561 74 \; pd dsp 1;
#X obj 539 132 print;
#X msg 539 108 turned dsp on.;
#X obj 180 -17 receive fromGUI;
#X obj 180 5 list trim;
#X obj 126 248 vsl 15 128 0 106 0 0 empty empty empty 0 -9 0 10 -262144
-1 -1 11958 1;
#X obj 156 333 monovol;
#X obj 237 253 vsl 15 128 0 106 0 0 empty empty empty 0 -9 0 10 -262144
-1 -1 9058 1;
#X obj 270 330 monovol;
#X obj 338 258 vsl 15 128 0 106 0 0 empty empty empty 0 -9 0 10 -262144
-1 -1 11794 1;
#X obj 371 335 monovol;
#N canvas 0 22 450 300 reverb 0;
#X obj 54 106 rev2~ 100 98 3000 50;
#X obj 54 36 inlet~;
#X obj 48 244 outlet~;
#X obj 132 246 outlet~;
#X connect 0 0 2 0;
#X connect 0 1 3 0;
#X connect 1 0 0 0;
#X restore 270 384 pd reverb;
#X obj 371 384 feedbackdelay 2000;
#X obj 27 244 vsl 15 128 0 106 0 0 empty empty empty 0 -9 0 10 -262144
-1 -1 11899 1;
#X obj 58 329 monovol;
#X obj 85 105 route /slider/1 /slider/2 /slider/3 /slider/4 /slider/5
;
#X obj 47 153 * 100;
#X obj 203 144 * 100;
#X obj 137 154 * 100;
#X obj 299 154 * 100;
#X obj 380 157 * 100;
#X obj 493 258 vsl 15 128 0 106 0 0 empty empty empty 0 -9 0 10 -262144
-1 -1 8849 1;
#X obj 526 335 monovol;
#X connect 1 0 11 0;
#X connect 1 0 13 0;
#X connect 1 0 15 0;
#X connect 1 0 19 0;
#X connect 3 0 2 0;
#X connect 3 0 2 1;
#X connect 3 0 27 0;
#X connect 4 0 5 0;
#X connect 4 0 7 0;
#X connect 7 0 6 0;
#X connect 8 0 9 0;
#X connect 9 0 20 0;
#X connect 10 0 11 1;
#X connect 11 0 3 0;
#X connect 12 0 13 1;
#X connect 13 0 16 0;
#X connect 14 0 15 1;
#X connect 15 0 17 0;
#X connect 16 0 2 0;
#X connect 16 1 2 1;
#X connect 17 0 2 0;
#X connect 17 0 2 1;
#X connect 17 0 27 0;
#X connect 18 0 19 1;
#X connect 19 0 2 0;
#X connect 19 0 2 1;
#X connect 20 0 21 0;
#X connect 20 1 23 0;
#X connect 20 2 22 0;
#X connect 20 3 24 0;
#X connect 20 4 25 0;
#X connect 21 0 18 0;
#X connect 22 0 12 0;
#X connect 23 0 10 0;
#X connect 24 0 14 0;
#X connect 25 0 26 0;
#X connect 26 0 27 1;
#X connect 27 0 16 0;
