#N canvas 2545 159 546 681 10;
#X obj 146 563 dac~;
#X obj 120 37 list trim;
#X obj 120 99 route /x /y /z;
#X obj 148 335 osc~;
#X obj 162 429 *~ 0.5;
#X obj 76 238 + 85;
#X obj 76 213 * 2500;
#X obj 148 357 *~;
#X obj 200 333 line~;
#X msg 240 302 1 10;
#X obj 213 250 t b b;
#X msg 197 301 0 200;
#X obj 206 275 delay 50;
#X obj 68 290 line~;
#X msg 74 261 \$1 2;
#X msg 309 152 /x \$1;
#X obj 309 108 random 1000;
#X obj 309 129 / 1000;
#X obj 307 53 tgl 15 0 empty empty empty 17 7 0 10 -262144 -1 -1 0
1;
#X obj 309 178 s input;
#X obj 406 119 bng 15 250 50 0 empty empty empty 17 7 0 10 -262144
-1 -1;
#X obj 120 78 t a a;
#X obj 308 83 metro 330;
#X obj 76 187 t f;
#X obj 120 15 r \$0-input;
#X obj 73 15 inlet;
#X obj 221 428 *~ 0.2;
#X obj 221 458 rev2~ 100 85 14400 60;
#X connect 1 0 21 0;
#X connect 2 0 23 0;
#X connect 3 0 7 0;
#X connect 4 0 0 0;
#X connect 4 0 0 1;
#X connect 5 0 14 0;
#X connect 6 0 5 0;
#X connect 7 0 4 0;
#X connect 7 0 26 0;
#X connect 8 0 7 1;
#X connect 9 0 8 0;
#X connect 10 0 12 0;
#X connect 10 1 9 0;
#X connect 11 0 8 0;
#X connect 12 0 11 0;
#X connect 13 0 3 0;
#X connect 14 0 13 0;
#X connect 15 0 19 0;
#X connect 16 0 17 0;
#X connect 17 0 15 0;
#X connect 18 0 22 0;
#X connect 20 0 16 0;
#X connect 21 0 2 0;
#X connect 21 1 10 0;
#X connect 22 0 16 0;
#X connect 23 0 6 0;
#X connect 24 0 1 0;
#X connect 25 0 1 0;
#X connect 26 0 27 0;
#X connect 27 0 0 0;
#X connect 27 1 0 1;
