#N canvas 756 142 546 681 10;
#X declare -path metaPdLibs;
#X obj 146 563 dac~;
#X obj 120 37 list trim;
#X obj 120 99 route /x /y /z;
#X obj 148 335 osc~;
#X obj 162 429 *~ 0.5;
#X obj 338 12 declare -path metaPdLibs;
#X obj 361 44 loadMetaPdLibs;
#X obj 76 238 + 85;
#X obj 76 213 * 2500;
#X obj 148 357 *~;
#X obj 200 333 line~;
#X msg 240 302 1 10;
#X obj 213 250 t b b;
#X msg 197 301 0 200;
#X obj 206 275 delay 50;
#X obj 68 290 line~;
#X msg 74 261 \$1 2;
#X msg 309 152 /x \$1;
#X obj 309 108 random 1000;
#X obj 309 129 / 1000;
#X obj 307 53 tgl 15 0 empty empty empty 17 7 0 10 -262144 -1 -1 0
1;
#X obj 309 178 s input;
#N canvas 634 202 889 476 crystal 0;
#X obj 80 16 loadbang;
#X obj 33 16 inlet~;
#X obj 36 327 outlet~;
#X obj 279 30 inlet;
#X obj 312 116 line~;
#X obj 279 52 t b f;
#X msg 279 94 0 500;
#X obj 336 73 list append 50;
#X obj 279 74 delay 50;
#X obj 34 42 *~;
#X obj 430 29 vsl 15 128 0 1 0 0 empty empty empty 0 -9 0 10 -262144
-1 -1 0 1;
#X obj 81 92 f 12;
#X obj 36 298 *~ 0.5;
#X obj 60 115 pitchshift~;
#X obj 35 232 rlop~ 4720 1;
#X text 277 5 control inlet!;
#X obj 93 146 loadbang;
#X obj 54 264 rev2~ 100 95 14400 60;
#X obj 35 65 *~ 0.8;
#X obj 491 157 vline~;
#X obj 509 179 noise~;
#X obj 490 201 *~;
#X obj 491 94 bng 24 250 50 0 empty empty empty 17 7 0 10 -4034 -1
-1;
#X msg 491 121 0.8 10 \, 0 20 10;
#X msg 93 169 500;
#X msg 126 169 0.3;
#X obj 60 191 feedbackdelay 500;
#X obj 522 31 inlet;
#X obj 523 53 list append 50;
#X connect 0 0 11 0;
#X connect 1 0 9 0;
#X connect 3 0 5 0;
#X connect 4 0 9 1;
#X connect 5 0 8 0;
#X connect 5 1 7 0;
#X connect 6 0 4 0;
#X connect 7 0 4 0;
#X connect 8 0 6 0;
#X connect 9 0 18 0;
#X connect 10 0 7 0;
#X connect 11 0 13 1;
#X connect 12 0 2 0;
#X connect 13 0 26 0;
#X connect 14 0 12 0;
#X connect 14 0 17 0;
#X connect 16 0 24 0;
#X connect 16 0 25 0;
#X connect 17 0 12 0;
#X connect 18 0 13 0;
#X connect 18 0 14 0;
#X connect 19 0 21 0;
#X connect 20 0 21 1;
#X connect 21 0 18 0;
#X connect 22 0 23 0;
#X connect 23 0 19 0;
#X connect 24 0 26 1;
#X connect 25 0 26 2;
#X connect 26 0 14 0;
#X connect 27 0 28 0;
#X connect 28 0 4 0;
#X restore 231 459 pd crystal;
#X obj 316 396 vsl 15 128 0 1 0 0 empty empty empty 0 -9 0 10 -262144
-1 -1 8890 1;
#X obj 339 395 loadbang;
#X obj 406 119 bng 15 250 50 0 empty empty empty 17 7 0 10 -262144
-1 -1;
#X obj 120 78 t a a;
#X obj 308 83 metro 330;
#X msg 341 418 0.7;
#X obj 76 187 t f;
#X obj 120 15 r \$0-input;
#X obj 73 15 inlet;
#X connect 1 0 26 0;
#X connect 2 0 29 0;
#X connect 3 0 9 0;
#X connect 4 0 0 0;
#X connect 4 0 0 1;
#X connect 4 0 22 0;
#X connect 7 0 16 0;
#X connect 8 0 7 0;
#X connect 9 0 4 0;
#X connect 10 0 9 1;
#X connect 11 0 10 0;
#X connect 12 0 14 0;
#X connect 12 1 11 0;
#X connect 13 0 10 0;
#X connect 14 0 13 0;
#X connect 15 0 3 0;
#X connect 16 0 15 0;
#X connect 17 0 21 0;
#X connect 18 0 19 0;
#X connect 19 0 17 0;
#X connect 20 0 27 0;
#X connect 22 0 0 0;
#X connect 22 0 0 1;
#X connect 23 0 22 2;
#X connect 24 0 28 0;
#X connect 25 0 18 0;
#X connect 26 0 2 0;
#X connect 26 1 12 0;
#X connect 27 0 18 0;
#X connect 28 0 23 0;
#X connect 29 0 8 0;
#X connect 30 0 1 0;
#X connect 31 0 1 0;
