#N canvas 1095 387 1166 705 10;
#X declare -path metaPdLibs;
#X obj 72 643 dac~;
#X obj 34 13 r \$0-input;
#X obj 34 35 list trim;
#X obj 33 80 route /x /y /z;
#X obj 74 568 *~ 0.5;
#X obj 338 12 declare -path metaPdLibs;
#X obj 242 13 loadMetaPdLibs;
#N canvas 634 202 889 476 crystal 0;
#X obj 80 16 loadbang;
#X obj 33 16 inlet~;
#X obj 36 327 outlet~;
#X obj 279 30 inlet;
#X obj 312 116 line~;
#X obj 279 52 t b f;
#X msg 279 94 0 500;
#X obj 336 73 list append 50;
#X obj 279 74 delay 50;
#X obj 34 42 *~;
#X obj 430 29 vsl 15 128 0 1 0 0 empty empty empty 0 -9 0 10 -262144
-1 -1 0 1;
#X obj 81 92 f 12;
#X obj 36 298 *~ 0.5;
#X obj 60 115 pitchshift~;
#X obj 35 232 rlop~ 4720 1;
#X text 277 5 control inlet!;
#X obj 93 146 loadbang;
#X obj 54 264 rev2~ 100 95 14400 60;
#X obj 35 65 *~ 0.8;
#X obj 491 157 vline~;
#X obj 509 179 noise~;
#X obj 490 201 *~;
#X obj 491 94 bng 24 250 50 0 empty empty empty 17 7 0 10 -4034 -1
-1;
#X msg 491 121 0.8 10 \, 0 20 10;
#X msg 93 169 500;
#X msg 126 169 0.3;
#X obj 60 191 feedbackdelay 500;
#X obj 522 31 inlet;
#X obj 523 53 list append 50;
#X connect 0 0 11 0;
#X connect 1 0 9 0;
#X connect 3 0 5 0;
#X connect 4 0 9 1;
#X connect 5 0 8 0;
#X connect 5 1 7 0;
#X connect 6 0 4 0;
#X connect 7 0 4 0;
#X connect 8 0 6 0;
#X connect 9 0 18 0;
#X connect 10 0 7 0;
#X connect 11 0 13 1;
#X connect 12 0 2 0;
#X connect 13 0 26 0;
#X connect 14 0 12 0;
#X connect 14 0 17 0;
#X connect 16 0 24 0;
#X connect 16 0 25 0;
#X connect 17 0 12 0;
#X connect 18 0 13 0;
#X connect 18 0 14 0;
#X connect 19 0 21 0;
#X connect 20 0 21 1;
#X connect 21 0 18 0;
#X connect 22 0 23 0;
#X connect 23 0 19 0;
#X connect 24 0 26 1;
#X connect 25 0 26 2;
#X connect 26 0 14 0;
#X connect 27 0 28 0;
#X connect 28 0 4 0;
#X restore 143 598 pd crystal;
#X obj 228 535 vsl 15 128 0 1 0 0 empty empty empty 0 -9 0 10 -262144
-1 -1 3810 1;
#X obj 251 534 loadbang;
#X obj 79 538 s_drumelectro;
#X msg 253 557 0.3;
#X msg 948 115 /x \$1;
#X obj 948 71 random 1000;
#X obj 948 92 / 1000;
#X obj 946 16 tgl 15 0 empty empty empty 17 7 0 10 -262144 -1 -1 0
1;
#X obj 948 141 s input;
#X obj 1045 82 bng 15 250 50 0 empty empty empty 17 7 0 10 -262144
-1 -1;
#X obj 947 46 metro 2000;
#X obj 1076 81 random 1000;
#X obj 1076 102 / 1000;
#X msg 1076 125 /y \$1;
#X obj 293 154 moses 0.5;
#X obj 379 153 moses 0.5;
#X obj 72 504 r \$0-drums;
#X obj 149 247 s \$0-drums;
#X msg 250 214 sn;
#X msg 287 214 sn;
#X msg 410 218 hh;
#X msg 493 225 oh;
#N canvas 0 22 450 300 rand 0;
#X obj 94 158 outlet;
#X obj 94 22 inlet;
#X obj 94 47 t b a;
#X obj 94 123 list prepend;
#X obj 94 99 + 500;
#X obj 94 73 random 1500;
#X connect 1 0 2 0;
#X connect 2 0 5 0;
#X connect 2 1 3 1;
#X connect 3 0 0 0;
#X connect 4 0 3 0;
#X connect 5 0 4 0;
#X restore 493 252 pd rand;
#X msg 582 219 cp;
#N canvas 0 22 450 300 rand 0;
#X obj 94 158 outlet;
#X obj 94 22 inlet;
#X obj 94 47 t b a;
#X obj 94 123 list prepend;
#X obj 94 100 + 80;
#X obj 94 73 random 20;
#X floatatom 134 101 5 0 0 0 - - -, f 5;
#X connect 1 0 2 0;
#X connect 2 0 5 0;
#X connect 2 1 3 1;
#X connect 3 0 0 0;
#X connect 4 0 3 0;
#X connect 5 0 4 0;
#X connect 6 0 4 1;
#X restore 582 252 pd rand;
#N canvas 0 22 450 300 rand 0;
#X obj 94 158 outlet;
#X obj 94 22 inlet;
#X obj 94 47 t b a;
#X obj 94 123 list prepend;
#X obj 94 100 + 50;
#X obj 94 73 random 100;
#X connect 1 0 2 0;
#X connect 2 0 5 0;
#X connect 2 1 3 1;
#X connect 3 0 0 0;
#X connect 4 0 3 0;
#X connect 5 0 4 0;
#X restore 410 251 pd rand;
#N canvas 0 22 450 300 rand 0;
#X obj 94 100 + 100;
#X obj 94 158 outlet;
#X obj 94 22 inlet;
#X obj 94 47 t b a;
#X obj 94 123 list prepend;
#X obj 94 73 random 200;
#X connect 0 0 4 0;
#X connect 2 0 3 0;
#X connect 3 0 5 0;
#X connect 3 1 4 1;
#X connect 4 0 1 0;
#X connect 5 0 0 0;
#X restore 287 238 pd rand;
#N canvas 0 22 755 571 pass 0;
#X obj 67 88 random 100;
#X obj 67 158 sel 1;
#X obj 67 202 outlet;
#X obj 67 29 inlet;
#X obj 172 29 inlet;
#X obj 67 111 < 100;
#X obj 67 179 list;
#X obj 67 55 t b a;
#X floatatom 130 114 5 0 100 0 - - -, f 5;
#X connect 0 0 5 0;
#X connect 1 0 6 0;
#X connect 3 0 7 0;
#X connect 4 0 5 1;
#X connect 5 0 1 0;
#X connect 6 0 2 0;
#X connect 7 0 0 0;
#X connect 7 1 6 1;
#X connect 8 0 5 1;
#X coords 0 -1 1 1 85 30 1 100 100;
#X restore 250 288 pd pass;
#X obj 250 322 s \$0-drums;
#N canvas 0 22 755 571 pass 0;
#X obj 67 88 random 100;
#X obj 67 158 sel 1;
#X obj 67 202 outlet;
#X obj 67 29 inlet;
#X obj 172 29 inlet;
#X obj 67 111 < 100;
#X obj 67 179 list;
#X obj 67 55 t b a;
#X floatatom 130 114 5 0 100 0 - - -, f 5;
#X connect 0 0 5 0;
#X connect 1 0 6 0;
#X connect 3 0 7 0;
#X connect 4 0 5 1;
#X connect 5 0 1 0;
#X connect 6 0 2 0;
#X connect 7 0 0 0;
#X connect 7 1 6 1;
#X connect 8 0 5 1;
#X coords 0 -1 1 1 85 30 1 100 100;
#X restore 410 291 pd pass;
#X obj 410 325 s \$0-drums;
#N canvas 0 22 755 571 pass 0;
#X obj 67 88 random 100;
#X obj 67 158 sel 1;
#X obj 67 202 outlet;
#X obj 67 29 inlet;
#X obj 172 29 inlet;
#X obj 67 111 < 100;
#X obj 67 179 list;
#X obj 67 55 t b a;
#X floatatom 130 114 5 0 100 0 - - -, f 5;
#X connect 0 0 5 0;
#X connect 1 0 6 0;
#X connect 3 0 7 0;
#X connect 4 0 5 1;
#X connect 5 0 1 0;
#X connect 6 0 2 0;
#X connect 7 0 0 0;
#X connect 7 1 6 1;
#X connect 8 0 5 1;
#X coords 0 -1 1 1 85 30 1 100 100;
#X restore 582 287 pd pass;
#X obj 582 321 s \$0-drums;
#X msg 149 216 bd 500;
#X obj 548 145 *;
#X obj 542 208 bng 15 250 50 0 empty empty empty 17 7 0 10 -262144
-1 -1;
#X obj 430 179 bng 15 250 50 0 empty empty empty 17 7 0 10 -262144
-1 -1;
#X obj 385 179 bng 15 250 50 0 empty empty empty 17 7 0 10 -262144
-1 -1;
#X obj 345 181 bng 15 250 50 0 empty empty empty 17 7 0 10 -262144
-1 -1;
#X obj 288 184 bng 15 250 50 0 empty empty empty 17 7 0 10 -262144
-1 -1;
#X floatatom 587 141 5 0 0 0 - - -, f 5;
#X obj 570 170 moses 0.5;
#X obj 31 126 s \$0-x;
#X obj 85 126 s \$0-y;
#X obj 132 126 s \$0-z;
#X obj 295 125 r \$0-x;
#X obj 382 128 r \$0-y;
#X obj 530 96 r \$0-x;
#X obj 577 94 r \$0-y;
#X obj 32 104 t f;
#X obj 85 104 t f;
#X obj 132 104 t f;
#X obj 32 55 t a a;
#X msg 198 217 bd 250;
#X obj 104 14 inlet;
#X connect 1 0 2 0;
#X connect 2 0 60 0;
#X connect 3 0 57 0;
#X connect 3 1 58 0;
#X connect 3 2 59 0;
#X connect 4 0 0 0;
#X connect 4 0 0 1;
#X connect 4 0 7 0;
#X connect 7 0 0 0;
#X connect 7 0 0 1;
#X connect 8 0 7 2;
#X connect 9 0 11 0;
#X connect 10 0 4 0;
#X connect 11 0 8 0;
#X connect 12 0 16 0;
#X connect 13 0 14 0;
#X connect 14 0 12 0;
#X connect 15 0 18 0;
#X connect 17 0 13 0;
#X connect 18 0 13 0;
#X connect 18 0 19 0;
#X connect 19 0 20 0;
#X connect 20 0 21 0;
#X connect 21 0 16 0;
#X connect 22 0 47 0;
#X connect 22 1 46 0;
#X connect 23 0 45 0;
#X connect 23 1 44 0;
#X connect 24 0 10 0;
#X connect 26 0 35 0;
#X connect 27 0 34 0;
#X connect 28 0 33 0;
#X connect 29 0 30 0;
#X connect 30 0 37 0;
#X connect 31 0 32 0;
#X connect 32 0 39 0;
#X connect 33 0 37 0;
#X connect 34 0 35 0;
#X connect 35 0 36 0;
#X connect 37 0 38 0;
#X connect 39 0 40 0;
#X connect 41 0 25 0;
#X connect 42 0 48 0;
#X connect 42 0 49 0;
#X connect 43 0 31 0;
#X connect 44 0 29 0;
#X connect 45 0 28 0;
#X connect 46 0 26 0;
#X connect 47 0 61 0;
#X connect 49 1 43 0;
#X connect 53 0 22 0;
#X connect 54 0 23 0;
#X connect 55 0 42 0;
#X connect 56 0 42 1;
#X connect 57 0 50 0;
#X connect 58 0 51 0;
#X connect 59 0 52 0;
#X connect 60 0 3 0;
#X connect 61 0 25 0;
#X connect 62 0 2 0;
