#N canvas 0 145 961 571 10;
#X obj 85 85 inlet~;
#X obj 714 112 block~ 16;
#X obj 295 214 vd~ \$0-del1;
#X obj 402 58 inlet;
#X obj 84 406 outlet~;
#X obj 493 61 inlet;
#X obj 295 287 lop~ 10000;
#X obj 295 264 *~ 0;
#X obj 400 210 clip -1 1;
#X obj 122 174 *~;
#X obj 140 145 line~;
#X msg 140 104 1;
#X obj 141 84 loadbang;
#X msg 140 125 \$1 20;
#X obj 295 240 hip~ 10;
#X text 88 60 signal in;
#X text 302 39 delay time;
#X text 493 38 LPF freq;
#X text 400 36 feedback;
#X floatatom 200 85 5 0 0 0 - - -, f 5;
#X text 196 66 input vol;
#X obj 296 191 sig~;
#X obj 301 59 inlet;
#X obj 298 400 delwrite~ \$0-del1 \$1;
#X obj 303 84 s \$0-time;
#X obj 408 89 s \$0-feedback;
#X obj 494 88 s \$0-lpfreq;
#X obj 403 254 r \$0-lpfreq;
#X obj 399 187 r \$0-feedback;
#X obj 718 218 loadbang;
#X msg 667 256 800;
#X msg 714 255 0.66;
#X msg 768 254 10000;
#X obj 664 294 s \$0-time;
#X obj 714 325 s \$0-feedback;
#X obj 761 292 s \$0-lpfreq;
#X obj 290 159 r \$0-time;
#X connect 0 0 9 0;
#X connect 2 0 14 0;
#X connect 3 0 25 0;
#X connect 5 0 26 0;
#X connect 6 0 23 0;
#X connect 7 0 6 0;
#X connect 7 0 4 0;
#X connect 8 0 7 1;
#X connect 9 0 23 0;
#X connect 10 0 9 1;
#X connect 11 0 13 0;
#X connect 12 0 11 0;
#X connect 13 0 10 0;
#X connect 14 0 7 0;
#X connect 19 0 13 0;
#X connect 21 0 2 0;
#X connect 22 0 24 0;
#X connect 27 0 6 1;
#X connect 28 0 8 0;
#X connect 29 0 30 0;
#X connect 29 0 31 0;
#X connect 29 0 32 0;
#X connect 30 0 33 0;
#X connect 31 0 34 0;
#X connect 32 0 35 0;
#X connect 36 0 21 0;
