#N canvas 633 78 441 555 10;
#X obj -13 41 inlet~;
#X obj 113 392 outlet~;
#X obj -13 65 delwrite~ \$0-gdelay 2000;
#X obj -17 307 delread~ \$0-gdelay;
#X obj -1 130 bng 15 250 50 0 empty empty empty 17 7 0 10 -262144 -1
-1;
#N canvas 0 22 450 300 rand-rhythm 1;
#X obj 210 117 random 100;
#X obj 210 65 tgl 15 0 empty empty empty 17 7 0 10 -262144 -1 -1 1
1;
#X obj 211 183 bng 15 250 50 0 empty empty empty 17 7 0 10 -262144
-1 -1;
#X obj 210 90 metro 100;
#X obj 210 156 moses 5;
#X msg 320 174 18;
#X obj 295 43 random 30;
#X obj 295 67 + 30;
#X msg 286 145 70;
#X obj 172 10 loadbang;
#X obj 212 207 outlet;
#X connect 0 0 4 0;
#X connect 1 0 3 0;
#X connect 2 0 8 0;
#X connect 2 0 10 0;
#X connect 3 0 0 0;
#X connect 3 0 6 0;
#X connect 4 0 2 0;
#X connect 4 1 5 0;
#X connect 5 0 4 1;
#X connect 6 0 7 0;
#X connect 7 0 3 1;
#X connect 8 0 4 1;
#X connect 9 0 1 0;
#X restore -20 95 pd rand-rhythm;
#N canvas 442 288 794 645 envperc 0;
#X obj 102 440 outlet~;
#X obj 15 48 inlet;
#X obj 185 48 inlet;
#X text 183 24 volume (0-1);
#X text 15 23 trigger - start envelope;
#X text 143 387 handle the volume scaling.;
#X obj 102 309 vline~;
#X obj 102 383 *~;
#X obj 293 49 inlet;
#X obj 371 49 inlet;
#X text 291 24 attack;
#X text 372 24 release;
#X text 41 515 percussive envelope generator - cpm 2014;
#X obj 101 239 f;
#X obj 101 214 t b;
#X obj 513 33 loadbang;
#X obj 496 93 s \$0-att;
#X obj 555 92 s \$0-rel;
#X obj 616 92 s \$0-vol;
#X msg 615 64 1;
#X obj 297 76 s \$0-att;
#X obj 356 75 s \$0-rel;
#X obj 186 73 s \$0-vol;
#X text 583 35 defaults;
#X obj 127 214 r \$0-rel;
#X obj 117 353 r \$0-vol;
#X obj 205 212 r \$0-att;
#X text 262 212 doesn't work right now;
#X msg 102 282 1 25 \, 0 \$1 25;
#X msg 556 64 100;
#X msg 496 66 100;
#X connect 1 0 14 0;
#X connect 2 0 22 0;
#X connect 6 0 7 0;
#X connect 7 0 0 0;
#X connect 8 0 20 0;
#X connect 9 0 21 0;
#X connect 13 0 28 0;
#X connect 14 0 13 0;
#X connect 15 0 30 0;
#X connect 15 0 29 0;
#X connect 15 0 19 0;
#X connect 19 0 18 0;
#X connect 24 0 13 1;
#X connect 25 0 7 1;
#X connect 28 0 6 0;
#X connect 29 0 17 0;
#X connect 30 0 16 0;
#X restore 247 313 pd envperc;
#X obj 113 364 *~;
#X floatatom 64 279 5 0 0 0 - - -, f 5;
#X obj -13 267 + 500;
#X obj -14 241 random 1500;
#X obj 111 336 pitchshift~;
#X obj 140 225 random 100;
#X obj 2 166 t b b b;
#X floatatom 170 273 5 0 0 0 - - -, f 5;
#X obj 140 248 * 0.24;
#X obj 140 270 - 12;
#X connect 0 0 2 0;
#X connect 3 0 11 0;
#X connect 4 0 13 0;
#X connect 5 0 4 0;
#X connect 6 0 7 1;
#X connect 7 0 1 0;
#X connect 9 0 3 0;
#X connect 9 0 8 0;
#X connect 10 0 9 0;
#X connect 11 0 7 0;
#X connect 12 0 15 0;
#X connect 13 0 10 0;
#X connect 13 1 12 0;
#X connect 13 2 6 0;
#X connect 15 0 16 0;
#X connect 16 0 14 0;
#X connect 16 0 11 1;
