#N canvas 1555 170 546 681 10;
#X declare -path metaPdLibs;
#X obj 146 563 dac~;
#X obj 118 43 r \$0-input;
#X obj 118 65 list trim;
#X obj 116 111 route /x /y /z;
#X obj 117 429 *~ 0.5;
#X obj 338 12 declare -path metaPdLibs;
#X obj 246 13 loadMetaPdLibs;
#X msg 309 152 /x \$1;
#X obj 309 108 random 1000;
#X obj 309 129 / 1000;
#X obj 307 53 tgl 15 0 empty empty empty 17 7 0 10 -262144 -1 -1 0
1;
#X obj 309 178 s input;
#X obj 406 119 bng 15 250 50 0 empty empty empty 17 7 0 10 -262144
-1 -1;
#X obj 116 86 t a a;
#N canvas 641 260 1140 735 rhodey 0;
#N canvas 424 366 478 366 pmosc 0;
#X obj 119 199 cos~;
#X obj 119 167 +~;
#X obj 120 273 outlet~;
#X obj 119 115 phasor~;
#X obj 119 86 inlet~;
#X obj 136 146 inlet~;
#X obj 160 199 inlet~;
#X obj 120 236 *~;
#X text 38 21 phase-modulation oscillator;
#X text 38 57 signal inlets: 1: freq \, 2: phase \, 3: amp;
#X connect 0 0 7 0;
#X connect 1 0 0 0;
#X connect 3 0 1 0;
#X connect 4 0 3 0;
#X connect 5 0 1 1;
#X connect 6 0 7 1;
#X connect 7 0 2 0;
#X restore 270 352 pd pmosc;
#N canvas 424 366 478 366 pmosc 0;
#X obj 119 199 cos~;
#X obj 119 167 +~;
#X obj 120 273 outlet~;
#X obj 119 115 phasor~;
#X obj 119 86 inlet~;
#X obj 136 146 inlet~;
#X obj 160 199 inlet~;
#X obj 120 236 *~;
#X text 38 21 phase-modulation oscillator;
#X text 38 57 signal inlets: 1: freq \, 2: phase \, 3: amp;
#X connect 0 0 7 0;
#X connect 1 0 0 0;
#X connect 3 0 1 0;
#X connect 4 0 3 0;
#X connect 5 0 1 1;
#X connect 6 0 7 1;
#X connect 7 0 2 0;
#X restore 245 396 pd pmosc;
#N canvas 424 366 478 366 pmosc 0;
#X obj 119 199 cos~;
#X obj 119 167 +~;
#X obj 120 273 outlet~;
#X obj 119 115 phasor~;
#X obj 119 86 inlet~;
#X obj 136 146 inlet~;
#X obj 160 199 inlet~;
#X obj 120 236 *~;
#X text 38 21 phase-modulation oscillator;
#X text 38 57 signal inlets: 1: freq \, 2: phase \, 3: amp;
#X connect 0 0 7 0;
#X connect 1 0 0 0;
#X connect 3 0 1 0;
#X connect 4 0 3 0;
#X connect 5 0 1 1;
#X connect 6 0 7 1;
#X connect 7 0 2 0;
#X restore 136 354 pd pmosc;
#N canvas 424 366 478 366 pmosc 0;
#X obj 119 199 cos~;
#X obj 119 167 +~;
#X obj 120 273 outlet~;
#X obj 119 115 phasor~;
#X obj 119 86 inlet~;
#X obj 136 146 inlet~;
#X obj 160 199 inlet~;
#X obj 120 236 *~;
#X text 38 21 phase-modulation oscillator;
#X text 38 57 signal inlets: 1: freq \, 2: phase \, 3: amp;
#X connect 0 0 7 0;
#X connect 1 0 0 0;
#X connect 3 0 1 0;
#X connect 4 0 3 0;
#X connect 5 0 1 1;
#X connect 6 0 7 1;
#X connect 7 0 2 0;
#X restore 109 399 pd pmosc;
#X obj 108 219 mtof;
#X obj 107 523 outlet~;
#X obj 397 149 * 0.535887;
#X obj 667 149 * 0.108819;
#X obj 671 281 / 127;
#X obj 397 286 / 127;
#X obj 397 127 / 127;
#X obj 397 172 t a a;
#X obj 397 308 t a a;
#X obj 671 303 t a a;
#X obj 667 169 t a a;
#X obj 667 123 / 127;
#X obj 671 253 r \$0-vel;
#X obj 667 94 r \$0-vel;
#X obj 397 258 r \$0-vel;
#X obj 397 101 r \$0-vel;
#X obj 108 81 unpack 0 0;
#X obj 175 105 s \$0-vel;
#X obj 108 57 inlet;
#X text 288 602 + --> Out;
#X text 241 616 2->1--/;
#X text 122 602 Algorithm 5 is : 4->3--;
#X text 118 581 4-op FM Rhodey piano based on algorithm 5:;
#X text 310 371 op 4;
#X text 277 413 op 3;
#X text 144 417 op 1;
#X text 169 370 op 2;
#X text 791 216 op 4;
#X text 819 324 op 3;
#X text 572 330 op 1;
#X text 573 198 op 2;
#X obj 840 31 inlet;
#X text 102 31 Midi: <pitch> <velocity>;
#X text 131 630 Clone of the STK Rhodey;
#N canvas 29 43 450 300 vib 0;
#X obj 144 64 inlet~;
#X obj 145 210 outlet~;
#X obj 144 168 +~;
#X obj 200 95 osc~ 0;
#X obj 200 64 inlet;
#X obj 281 65 inlet;
#X obj 199 123 *~ 0;
#X connect 0 0 2 0;
#X connect 2 0 1 0;
#X connect 3 0 6 0;
#X connect 4 0 3 0;
#X connect 5 0 6 1;
#X connect 6 0 2 1;
#X restore 108 278 pd vib;
#X obj 190 493 pack 0 10;
#X obj 190 470 r \$0-tone;
#X obj 150 220 r \$0-vib-freq;
#X obj 162 243 r \$0-vib-depth;
#X obj 270 326 * 15;
#X obj 136 330 * 0.5;
#X obj 561 88 r \$0-adsr24;
#X obj 561 112 / 127;
#X obj 666 222 *~ 1;
#X obj 397 221 *~ 1;
#X obj 135 376 *~ 1;
#X obj 182 329 r \$0-mod;
#X obj 275 437 loadbang;
#X msg 275 459 0.5;
#X obj 479 173 r \$0-decay;
#X obj 479 301 r \$0-decay;
#N canvas 172 83 586 377 LICENSE-GPL 0;
#X text 57 88 This program is free software: you can redistribute it
and/or modify it under the terms of the GNU General Public License
as published by the Free Software Foundation \, either version 3 of
the License \, or (at your option) any later version.;
#X text 58 168 This program is distributed in the hope that it will
be useful \, but WITHOUT ANY WARRANTY \; without even the implied warranty
of MERCHANTABILITY or FITNESS FOR A PARTICULAR PURPOSE. See the GNU
General Public License for more details.;
#X text 57 261 You should have received a copy of the GNU General Public
License along with this program. If not \, see <http://www.gnu.org/licenses/>.
;
#X text 61 54 Copyright (C) 2009 \, Reality Jockey Ltd.;
#X text 60 325 See the file LICENSE.txt for the full license text.
;
#X restore 972 29 pd LICENSE-GPL;
#X obj 840 103 dispatch \$0 tone;
#X obj 840 123 dispatch \$0 mod;
#X obj 840 144 dispatch \$0 vib-freq;
#X obj 840 166 dispatch \$0 vib-depth;
#X obj 840 186 dispatch \$0 adsr24;
#X obj 840 207 dispatch \$0 decay;
#X obj 108 493 xfade f;
#X obj 397 334 adsr 1 1 1500 0 40;
#X obj 397 199 adsr 1 1 1500 0 40;
#X obj 667 197 adsr 1 1 1000 0 40;
#X obj 671 330 adsr 1 1 250 0 40;
#X obj 548 456 hsl 128 15 0 1 0 0 empty empty tone_(0...1) 20 7 1 10
-262144 -1 -1 0 1;
#X obj 547 477 s \$0-tone;
#X obj 549 502 hsl 128 15 0 100 0 0 empty empty vib_freq_(0...100)
20 7 1 10 -262144 -1 -1 0 1;
#X obj 547 523 s \$0-vib-freq;
#X obj 546 545 hsl 128 15 0 1 0 0 empty empty vib_depth_(0..1) 20 7
1 10 -262144 -1 -1 0 1;
#X obj 548 567 s \$0-vib-depth;
#X floatatom 758 456 5 0 0 0 - - -, f 5;
#X obj 758 475 s \$0-mod;
#X floatatom 759 501 5 0 0 0 - - -, f 5;
#X obj 759 520 s \$0-adsr24;
#X obj 550 589 hsl 128 15 0 3000 0 0 empty empty decay_(0...3000) 20
7 1 10 -262144 -1 -1 0 1;
#X obj 548 610 s \$0-decay;
#X obj 871 394 loadbang;
#X msg 854 497 127;
#X msg 809 451 1;
#X floatatom 618 476 5 0 0 0 - - -, f 5;
#X msg 666 432 0.3;
#X floatatom 635 523 5 0 0 0 - - -, f 5;
#X floatatom 642 567 5 0 0 0 - - -, f 5;
#X floatatom 618 611 5 0 0 0 - - -, f 5;
#X msg 513 523 1.5;
#X msg 514 568 0.6;
#X msg 514 611 1800;
#X obj 421 510 loadbang;
#X connect 0 0 1 1;
#X connect 1 0 62 1;
#X connect 2 0 49 0;
#X connect 3 0 62 0;
#X connect 4 0 38 0;
#X connect 4 0 43 0;
#X connect 4 0 44 0;
#X connect 6 0 11 0;
#X connect 7 0 14 0;
#X connect 8 0 13 0;
#X connect 9 0 12 0;
#X connect 10 0 6 0;
#X connect 11 0 64 0;
#X connect 11 1 64 1;
#X connect 12 0 63 0;
#X connect 12 1 63 1;
#X connect 13 0 66 0;
#X connect 13 1 66 1;
#X connect 14 0 65 0;
#X connect 14 1 65 1;
#X connect 15 0 7 0;
#X connect 16 0 8 0;
#X connect 17 0 15 0;
#X connect 18 0 9 0;
#X connect 19 0 10 0;
#X connect 20 0 4 0;
#X connect 20 1 21 0;
#X connect 22 0 20 0;
#X connect 35 0 56 0;
#X connect 38 0 3 0;
#X connect 38 0 1 0;
#X connect 39 0 62 2;
#X connect 40 0 39 0;
#X connect 41 0 38 1;
#X connect 42 0 38 2;
#X connect 43 0 0 0;
#X connect 44 0 2 0;
#X connect 45 0 46 0;
#X connect 46 0 47 1;
#X connect 46 0 48 1;
#X connect 47 0 0 2;
#X connect 48 0 2 2;
#X connect 49 0 3 1;
#X connect 50 0 49 1;
#X connect 51 0 52 0;
#X connect 52 0 39 0;
#X connect 53 0 64 3;
#X connect 54 0 63 3;
#X connect 56 0 57 0;
#X connect 57 0 58 0;
#X connect 58 0 59 0;
#X connect 59 0 60 0;
#X connect 60 0 61 0;
#X connect 62 0 5 0;
#X connect 63 0 3 2;
#X connect 64 0 48 0;
#X connect 65 0 47 0;
#X connect 66 0 1 2;
#X connect 67 0 68 0;
#X connect 67 0 82 0;
#X connect 69 0 70 0;
#X connect 69 0 84 0;
#X connect 69 0 87 0;
#X connect 71 0 72 0;
#X connect 71 0 85 0;
#X connect 71 0 88 0;
#X connect 73 0 74 0;
#X connect 75 0 76 0;
#X connect 77 0 78 0;
#X connect 77 0 86 0;
#X connect 79 0 80 0;
#X connect 79 0 81 0;
#X connect 79 0 83 0;
#X connect 80 0 76 0;
#X connect 81 0 74 0;
#X connect 83 0 68 0;
#X connect 87 0 70 0;
#X connect 88 0 72 0;
#X connect 89 0 78 0;
#X connect 90 0 87 0;
#X connect 90 0 88 0;
#X connect 90 0 89 0;
#X restore 88 374 pd rhodey;
#X obj 74 295 t f b b;
#X msg 113 316 127;
#X floatatom 75 318 5 0 0 0 - - -, f 5;
#X obj 91 341 pack 0 0;
#X obj 80 248 * 80;
#X obj 80 270 + 20;
#X obj 308 83 metro 2000;
#X obj 163 278 * 2000;
#X obj 163 300 + 25;
#X msg 163 322 decay \$1;
#X obj 168 450 rev2~ 100 95 14400 60;
#X obj 168 420 *~ 0.2;
#X obj 437 118 random 1000;
#X obj 437 139 / 1000;
#X msg 437 162 /y \$1;
#X obj 155 224 t f;
#X obj 78 216 t f;
#X obj 192 43 inlet;
#X connect 1 0 2 0;
#X connect 2 0 13 0;
#X connect 3 0 31 0;
#X connect 3 1 30 0;
#X connect 4 0 0 0;
#X connect 4 0 0 1;
#X connect 7 0 11 0;
#X connect 8 0 9 0;
#X connect 9 0 7 0;
#X connect 10 0 21 0;
#X connect 12 0 8 0;
#X connect 13 0 3 0;
#X connect 14 0 4 0;
#X connect 14 0 26 0;
#X connect 15 0 17 0;
#X connect 15 1 16 0;
#X connect 16 0 18 1;
#X connect 17 0 18 0;
#X connect 18 0 14 0;
#X connect 19 0 20 0;
#X connect 20 0 15 0;
#X connect 21 0 8 0;
#X connect 21 0 27 0;
#X connect 22 0 23 0;
#X connect 23 0 24 0;
#X connect 24 0 14 1;
#X connect 25 0 0 0;
#X connect 25 1 0 1;
#X connect 26 0 25 0;
#X connect 27 0 28 0;
#X connect 28 0 29 0;
#X connect 29 0 11 0;
#X connect 30 0 22 0;
#X connect 31 0 19 0;
#X connect 32 0 2 0;
