#N canvas 0 22 902 796 10;
#X declare -path metaPdLibs;
#X obj 129 275 netreceive -u -b;
#X msg 129 247 listen 5000;
#X obj 129 298 oscparse;
#X msg 10 138 list /x 0.2 /y 0.88 /z 23.8648;
#X obj 129 319 list trim;
#X obj 150 635 drums;
#X obj 207 633 keys;
#X obj 264 632 strings;
#X obj 87 636 chirp;
#X obj 120 471 list;
#N canvas 1126 381 450 300 serialisePairs 0;
#X obj 164 29 inlet;
#X obj 174 243 outlet;
#X obj 169 105 until;
#X obj 187 71 t b l;
#X obj 167 133 list append;
#X obj 187 166 list split 2;
#X obj 303 167 bang;
#X connect 0 0 3 0;
#X connect 2 0 4 0;
#X connect 3 0 2 0;
#X connect 3 1 4 1;
#X connect 4 0 5 0;
#X connect 5 0 1 0;
#X connect 5 1 4 1;
#X connect 5 2 6 0;
#X connect 6 0 2 1;
#X restore 119 496 pd serialisePairs;
#X obj 10 160 oscformat touch;
#X text 14 8 parses OSC messages to play in the microjam synths. touch
messages have the address "touch" and instrument selection has the
address "inst".;
#X obj 121 521 list prepend;
#X obj 405 633 print NoMatchingInstrument;
#X obj 120 544 list trim;
#X obj 129 223 loadbang;
#X obj 342 56 declare -path metaPdLibs;
#X obj 342 79 loadMetaPdLibs;
#X msg 120 446 /x \$1 /y 0.5 /z 20;
#N canvas 0 22 450 300 duckie 0;
#X obj 54 247 dac~ 1 2;
#X obj 52 174 sigdelta;
#X obj 53 198 duckie;
#X obj 54 220 *~ 0.1;
#X obj 54 123 sig~;
#X obj 200 111 list trim;
#X obj 200 173 route /x /y /z;
#X obj 200 152 t a a;
#X obj 55 97 t f;
#X obj 200 89 r \$0-input;
#X obj 153 89 inlet;
#X obj 53 149 lop~ 10;
#X connect 1 0 2 0;
#X connect 2 0 3 0;
#X connect 3 0 0 0;
#X connect 3 0 0 1;
#X connect 4 0 11 0;
#X connect 5 0 7 0;
#X connect 6 0 8 0;
#X connect 7 0 6 0;
#X connect 8 0 4 0;
#X connect 9 0 5 0;
#X connect 10 0 5 0;
#X connect 11 0 1 0;
#X restore 332 633 pd duckie;
#X obj 121 590 route chirp drums keys strings duckie;
#X obj 297 402 print instrument;
#N canvas 847 104 350 398 instrument_changes 0;
#X obj 77 254 outlet;
#X msg 30 158 list chirp;
#X obj 73 181 oscformat inst;
#X msg 29 134 list drums;
#X msg 29 106 list keys;
#X msg 29 80 list strings;
#X msg 29 56 list duckie;
#X obj 167 60 loadbang;
#X obj 169 88 delay 1000;
#X connect 1 0 2 0;
#X connect 2 0 0 0;
#X connect 3 0 2 0;
#X connect 4 0 2 0;
#X connect 5 0 2 0;
#X connect 6 0 2 0;
#X connect 7 0 8 0;
#X connect 8 0 1 0;
#X restore 11 84 pd instrument_changes;
#X obj 20 274 r osctestinput;
#X obj 11 105 s osctestinput;
#X obj 10 184 s osctestinput;
#X obj 251 77 loadbang;
#X msg 260 144 \; pd dsp 1;
#X obj 238 202 print;
#X msg 238 178 turned dsp on.;
#X obj 254 106 delay 2000;
#X obj 127 346 route touch inst user rnn;
#X obj 326 517 list;
#N canvas 1126 381 450 300 serialisePairs 0;
#X obj 164 29 inlet;
#X obj 174 243 outlet;
#X obj 169 105 until;
#X obj 187 71 t b l;
#X obj 167 133 list append;
#X obj 187 166 list split 2;
#X obj 303 167 bang;
#X connect 0 0 3 0;
#X connect 2 0 4 0;
#X connect 3 0 2 0;
#X connect 3 1 4 1;
#X connect 4 0 5 0;
#X connect 5 0 1 0;
#X connect 5 1 4 1;
#X connect 5 2 6 0;
#X connect 6 0 2 1;
#X restore 325 542 pd serialisePairs;
#X msg 326 492 /x \$1 /y 0.5 /z 20;
#X obj 314 317 print;
#X connect 0 0 2 0;
#X connect 1 0 0 0;
#X connect 2 0 4 0;
#X connect 3 0 11 0;
#X connect 4 0 32 0;
#X connect 4 0 36 0;
#X connect 9 0 10 0;
#X connect 10 0 13 0;
#X connect 11 0 26 0;
#X connect 13 0 15 0;
#X connect 15 0 21 0;
#X connect 16 0 1 0;
#X connect 19 0 9 0;
#X connect 21 0 8 0;
#X connect 21 1 5 0;
#X connect 21 2 6 0;
#X connect 21 3 7 0;
#X connect 21 4 20 0;
#X connect 21 5 14 0;
#X connect 23 0 25 0;
#X connect 24 0 2 0;
#X connect 27 0 31 0;
#X connect 30 0 29 0;
#X connect 31 0 28 0;
#X connect 31 0 30 0;
#X connect 32 1 13 1;
#X connect 32 1 22 0;
#X connect 32 2 19 0;
#X connect 32 3 35 0;
#X connect 33 0 34 0;
#X connect 34 0 7 0;
#X connect 35 0 33 0;
