#N canvas 731 201 585 419 10;
#X declare -path metaPdLibs;
#X obj 217 120 netreceive -u -b;
#X msg 217 92 listen 5000;
#X obj 217 143 oscparse;
#X msg 19 64 list /x 0.2 /y 0.88 /z 23.8648;
#X obj 217 164 list trim;
#X obj 121 382 drums;
#X obj 178 380 keys;
#X obj 235 379 strings;
#X obj 58 383 chirp;
#X obj 179 218 list;
#N canvas 1126 381 450 300 serialisePairs 0;
#X obj 164 29 inlet;
#X obj 174 243 outlet;
#X obj 169 105 until;
#X obj 187 71 t b l;
#X obj 167 133 list append;
#X obj 187 166 list split 2;
#X obj 303 167 bang;
#X connect 0 0 3 0;
#X connect 2 0 4 0;
#X connect 3 0 2 0;
#X connect 3 1 4 1;
#X connect 4 0 5 0;
#X connect 5 0 1 0;
#X connect 5 1 4 1;
#X connect 5 2 6 0;
#X connect 6 0 2 1;
#X restore 186 247 pd serialisePairs;
#X obj 19 86 oscformat touch;
#X obj 215 191 route touch inst;
#X text 12 8 parses OSC messages to play in the microjam synths. touch
messages have the address "touch" and instrument selection has the
address "inst".;
#X obj 215 279 list prepend;
#X obj 293 380 print NoMatchingInstrument;
#X obj 214 302 list trim;
#X msg 19 196 list chirp;
#X obj 62 219 oscformat inst;
#X msg 18 172 list drums;
#X msg 18 144 list keys;
#X msg 18 118 list strings;
#X obj 329 192 print Instrument;
#X obj 217 68 loadbang;
#X obj 338 226 print Touch;
#X obj 379 12 declare -path metaPdLibs;
#X obj 402 44 loadMetaPdLibs;
#X msg 225 223 /x \$1 /y 0.5 /z 20;
#N canvas 0 22 450 300 duckie 0;
#X obj 54 247 dac~ 1 2;
#X obj 52 174 sigdelta;
#X obj 53 198 duckie;
#X obj 54 220 *~ 0.1;
#X obj 54 123 sig~;
#X obj 200 111 list trim;
#X obj 200 173 route /x /y /z;
#X obj 200 152 t a a;
#X obj 55 97 t f;
#X obj 200 89 r \$0-input;
#X obj 153 89 inlet;
#X obj 53 149 lop~ 10;
#X connect 1 0 2 0;
#X connect 2 0 3 0;
#X connect 3 0 0 0;
#X connect 3 0 0 1;
#X connect 4 0 11 0;
#X connect 5 0 7 0;
#X connect 6 0 8 0;
#X connect 7 0 6 0;
#X connect 8 0 4 0;
#X connect 9 0 5 0;
#X connect 10 0 5 0;
#X connect 11 0 1 0;
#X restore 305 342 pd duckie;
#X obj 46 341 route chirp drums keys strings duckie;
#X msg 27 269 list duckie;
#X obj 13 293 loadbang;
#X obj 21 315 delay 1000;
#X connect 0 0 2 0;
#X connect 1 0 0 0;
#X connect 2 0 4 0;
#X connect 3 0 11 0;
#X connect 4 0 12 0;
#X connect 9 0 10 0;
#X connect 9 0 24 0;
#X connect 10 0 14 0;
#X connect 11 0 2 0;
#X connect 12 0 27 0;
#X connect 12 1 14 1;
#X connect 12 1 22 0;
#X connect 14 0 16 0;
#X connect 16 0 29 0;
#X connect 17 0 18 0;
#X connect 18 0 2 0;
#X connect 19 0 18 0;
#X connect 20 0 18 0;
#X connect 21 0 18 0;
#X connect 23 0 1 0;
#X connect 27 0 9 0;
#X connect 29 0 8 0;
#X connect 29 1 5 0;
#X connect 29 2 6 0;
#X connect 29 3 7 0;
#X connect 29 4 28 0;
#X connect 29 5 15 0;
#X connect 30 0 18 0;
#X connect 31 0 32 0;
#X connect 32 0 30 0;
