#N canvas 853 140 603 399 10;
#X obj 45 81 t a a;
#X obj 110 146 * 12;
#X obj 45 237 +;
#X obj 45 304 outlet;
#X obj 45 41 inlet;
#X obj 289 191 loadbang;
#X obj 293 45 inlet;
#X obj 45 260 + \$1;
#X text 293 24 base note;
#X text 41 18 major step;
#X floatatom 57 146 5 0 0 0 - - -;
#X obj 45 120 mod 7;
#X obj 110 120 div 7;
#X obj 289 237 s \$0-phrygian;
#X obj 289 261 table \$0-phrygian 7;
#X obj 45 175 tabread \$0-phrygian;
#X msg 289 214 0 0 2 4 6 8 9 11;
#X connect 0 0 11 0;
#X connect 0 1 12 0;
#X connect 1 0 2 1;
#X connect 2 0 7 0;
#X connect 4 0 0 0;
#X connect 5 0 16 0;
#X connect 6 0 7 1;
#X connect 7 0 3 0;
#X connect 11 0 10 0;
#X connect 11 0 15 0;
#X connect 12 0 1 0;
#X connect 15 0 2 0;
#X connect 16 0 13 0;
