#N canvas 695 65 546 681 10;
#X declare -path metaPdLibs;
#X obj 146 563 dac~;
#X obj 118 43 r \$0-input;
#X obj 118 65 list trim;
#X obj 116 111 route /x /y /z;
#X obj 162 429 *~ 0.5;
#X obj 338 12 declare -path metaPdLibs;
#X obj 361 44 loadMetaPdLibs;
#N canvas 634 202 889 476 crystal 0;
#X obj 80 16 loadbang;
#X obj 33 16 inlet~;
#X obj 36 327 outlet~;
#X obj 279 30 inlet;
#X obj 312 116 line~;
#X obj 279 52 t b f;
#X msg 279 94 0 500;
#X obj 336 73 list append 50;
#X obj 279 74 delay 50;
#X obj 34 42 *~;
#X obj 430 29 vsl 15 128 0 1 0 0 empty empty empty 0 -9 0 10 -262144
-1 -1 0 1;
#X obj 81 92 f 12;
#X obj 36 298 *~ 0.5;
#X obj 60 115 pitchshift~;
#X obj 35 232 rlop~ 4720 1;
#X text 277 5 control inlet!;
#X obj 93 146 loadbang;
#X obj 54 264 rev2~ 100 95 14400 60;
#X obj 35 65 *~ 0.8;
#X obj 491 157 vline~;
#X obj 509 179 noise~;
#X obj 490 201 *~;
#X obj 491 94 bng 24 250 50 0 empty empty empty 17 7 0 10 -4034 -1
-1;
#X msg 491 121 0.8 10 \, 0 20 10;
#X msg 93 169 500;
#X msg 126 169 0.3;
#X obj 60 191 feedbackdelay 500;
#X obj 522 31 inlet;
#X obj 523 53 list append 50;
#X connect 0 0 11 0;
#X connect 1 0 9 0;
#X connect 3 0 5 0;
#X connect 4 0 9 1;
#X connect 5 0 8 0;
#X connect 5 1 7 0;
#X connect 6 0 4 0;
#X connect 7 0 4 0;
#X connect 8 0 6 0;
#X connect 9 0 18 0;
#X connect 10 0 7 0;
#X connect 11 0 13 1;
#X connect 12 0 2 0;
#X connect 13 0 26 0;
#X connect 14 0 12 0;
#X connect 14 0 17 0;
#X connect 16 0 24 0;
#X connect 16 0 25 0;
#X connect 17 0 12 0;
#X connect 18 0 13 0;
#X connect 18 0 14 0;
#X connect 19 0 21 0;
#X connect 20 0 21 1;
#X connect 21 0 18 0;
#X connect 22 0 23 0;
#X connect 23 0 19 0;
#X connect 24 0 26 1;
#X connect 25 0 26 2;
#X connect 26 0 14 0;
#X connect 27 0 28 0;
#X connect 28 0 4 0;
#X restore 231 459 pd crystal;
#X obj 316 396 vsl 15 128 0 1 0 0 empty empty empty 0 -9 0 10 -262144
-1 -1 3810 1;
#X obj 339 395 loadbang;
#X obj 116 86 t a a;
#X obj 96 304 stringsynth;
#X msg 297 151 /x \$1;
#X obj 297 107 random 1000;
#X obj 297 128 / 1000;
#X obj 295 52 tgl 15 0 empty empty empty 17 7 0 10 -262144 -1 -1 0
1;
#X obj 297 177 s input;
#X obj 394 118 bng 15 250 50 0 empty empty empty 17 7 0 10 -262144
-1 -1;
#X obj 296 82 metro 2000;
#X obj 425 117 random 1000;
#X obj 425 138 / 1000;
#X msg 425 161 /y \$1;
#X obj 59 226 t f b b;
#X msg 98 247 127;
#X floatatom 60 249 5 0 0 0 - - -, f 5;
#X obj 76 272 pack 0 0;
#X obj 65 179 * 80;
#X obj 65 201 + 20;
#X obj 140 155 t f;
#X obj 63 147 t f;
#X obj 146 230 * 100;
#X msg 341 418 0.3;
#X obj 190 43 inlet;
#X connect 1 0 2 0;
#X connect 2 0 10 0;
#X connect 3 0 29 0;
#X connect 3 1 28 0;
#X connect 4 0 0 0;
#X connect 4 0 0 1;
#X connect 4 0 7 0;
#X connect 7 0 0 0;
#X connect 7 0 0 1;
#X connect 8 0 7 2;
#X connect 9 0 31 0;
#X connect 10 0 3 0;
#X connect 11 0 4 0;
#X connect 11 1 4 0;
#X connect 12 0 16 0;
#X connect 13 0 14 0;
#X connect 14 0 12 0;
#X connect 15 0 18 0;
#X connect 17 0 13 0;
#X connect 18 0 13 0;
#X connect 18 0 19 0;
#X connect 19 0 20 0;
#X connect 20 0 21 0;
#X connect 21 0 16 0;
#X connect 22 0 24 0;
#X connect 22 1 23 0;
#X connect 23 0 25 1;
#X connect 24 0 25 0;
#X connect 25 0 11 0;
#X connect 26 0 27 0;
#X connect 27 0 22 0;
#X connect 28 0 30 0;
#X connect 29 0 26 0;
#X connect 30 0 11 1;
#X connect 31 0 8 0;
#X connect 32 0 2 0;
