#N canvas -1300 27 450 300 10;
#X obj 148 148 dac~;
#X obj 142 77 osc~ 440;
#X obj 150 111 *~ 0.5;
#X obj 267 77 loadbang;
#X msg 276 144 \; pd dsp 1;
#X obj 254 202 print;
#X msg 254 178 turned dsp on.;
#X obj 270 106 delay 2000;
#X connect 1 0 2 0;
#X connect 2 0 0 0;
#X connect 2 0 0 1;
#X connect 3 0 7 0;
#X connect 6 0 5 0;
#X connect 7 0 4 0;
#X connect 7 0 6 0;
