#N canvas 941 300 561 389 10;
#X text 179 146 * ~M_PI/2;
#X obj 106 138 * 1.5708;
#X obj 106 23 inlet;
#X obj 27 25 inlet~;
#X obj 28 314 outlet~;
#X obj 119 318 outlet~;
#X obj 47 170 cos;
#X obj 136 172 sin;
#X msg 157 95 0.5;
#X obj 119 287 *~;
#X obj 28 283 *~;
#X obj 136 256 line~;
#X obj 136 230 pack 0 10;
#X obj 47 259 line~;
#X obj 47 233 pack 0 10;
#X obj 157 71 loadbang;
#X connect 1 0 6 0;
#X connect 1 0 7 0;
#X connect 2 0 1 0;
#X connect 3 0 9 0;
#X connect 3 0 10 0;
#X connect 6 0 14 0;
#X connect 7 0 12 0;
#X connect 8 0 1 0;
#X connect 9 0 5 0;
#X connect 10 0 4 0;
#X connect 11 0 9 1;
#X connect 12 0 11 0;
#X connect 13 0 10 1;
#X connect 14 0 13 0;
#X connect 15 0 8 0;
