#N canvas 176 299 577 440 10;
#X obj 31 22 inlet~;
#X obj 31 268 outlet~;
#X obj 32 241 *~;
#X obj 262 18 inlet~;
#X obj 262 264 outlet~;
#X obj 262 239 *~;
#X obj 381 15 inlet;
#X obj 423 16 loadbang;
#X obj 423 41 f \$1;
#X msg 386 92 set \$1;
#X obj 304 98 dbtorms;
#X obj 304 121 pack 0 10;
#X obj 304 142 line~;
#X obj 102 118 nbx 5 14 -1e+37 1e+37 0 0 \$0-levelout \$0-levelin empty
0 -8 0 10 -262144 -1 -1 99.4987 256;
#X obj 386 113 s \$0-levelin;
#X obj 293 65 r \$0-levelout;
#X obj 365 148 cnv 15 100 60 empty empty empty 20 12 0 14 -233017 -66577
0;
#X connect 0 0 2 0;
#X connect 2 0 1 0;
#X connect 3 0 5 0;
#X connect 5 0 4 0;
#X connect 6 0 9 0;
#X connect 6 0 10 0;
#X connect 7 0 8 0;
#X connect 8 0 9 0;
#X connect 8 0 10 0;
#X connect 9 0 14 0;
#X connect 10 0 11 0;
#X connect 11 0 12 0;
#X connect 12 0 5 1;
#X connect 12 0 2 1;
#X connect 15 0 10 0;
#X coords 0 -1 1 1 60 35 1 100 100;
