#N canvas 249 198 542 386 10;
#X obj 147 224 outlet;
#X obj 180 51 bng 15 250 50 0 empty empty empty 17 7 0 10 -262144 -1
-1;
#X obj 81 74 t b b;
#X obj 54 200 select;
#X obj 39 96 random 100;
#X obj 79 118 pack;
#X obj 79 145 line 50;
#X floatatom 192 224 5 0 0 0 - - -;
#X obj 147 201 / 100;
#X obj 107 96 random 10000;
#X obj 284 30 loadbang;
#X obj 52 224 s \$0-newSample;
#X obj 389 262 metro;
#X obj 81 51 r \$0-newSample;
#X obj 284 52 s \$0-newSample;
#X obj 34 225 bng 15 250 50 0 empty empty empty 17 7 0 10 -262144 -1
-1;
#X obj 387 289 s \$0-newSample;
#X obj 432 261 bng 15 250 50 0 empty empty empty 17 7 0 10 -262144
-1 -1;
#X obj 329 278 print;
#X obj 332 241 pack 1 1;
#X msg 320 193 1;
#X obj 152 140 print;
#X obj 341 168 t b b;
#X obj 350 147 bng 15 250 50 0 empty empty empty 17 7 0 10 -262144
-1 -1;
#X obj 368 193 f \$1;
#X connect 1 0 2 0;
#X connect 2 0 4 0;
#X connect 2 1 9 0;
#X connect 3 0 11 0;
#X connect 3 0 15 0;
#X connect 4 0 3 1;
#X connect 4 0 5 0;
#X connect 5 0 6 0;
#X connect 5 0 21 0;
#X connect 6 0 3 0;
#X connect 6 0 8 0;
#X connect 8 0 0 0;
#X connect 8 0 7 0;
#X connect 9 0 5 1;
#X connect 10 0 14 0;
#X connect 12 0 16 0;
#X connect 12 0 17 0;
#X connect 13 0 2 0;
#X connect 19 0 18 0;
#X connect 19 0 12 0;
#X connect 20 0 19 0;
#X connect 22 0 20 0;
#X connect 22 1 24 0;
#X connect 23 0 22 0;
#X connect 24 0 19 1;
